<svg width="1600" height="504" viewBox="0 0 1600 504" fill="none" xmlns="http://www.w3.org/2000/svg">
<g clip-path="url(#clip0_1222_19484)">
<rect width="1600" height="614" fill="#4BA07B"/>
<g opacity="0.1">
<path fill-rule="evenodd" clip-rule="evenodd" d="M581.953 179.896C581.852 156.987 541.44 131.226 524.178 117.944C490.046 91.6754 454.546 67.4173 419.376 42.7718C384.206 18.1262 348.94 -6.45253 315.403 -33.5099C293.628 -51.0737 268.041 -70.8557 253.273 -95.9355C221.812 -149.382 321.005 -141.445 346.7 -142.614C412.065 -145.601 487.039 -144.238 548.309 -172.07C584.884 -188.685 599.469 -216.551 591.613 -257.164C589.081 -270.372 581.586 -285.571 587.935 -298.438C594.715 -312.18 610.313 -320.11 623.258 -325.428C670.474 -344.803 724.762 -347.048 774.719 -349.479C828.589 -352.152 882.965 -351.37 936.455 -351.577C959.136 -351.664 982.823 -360.262 1004.42 -367.25C1032.74 -376.41 1060.72 -386.698 1088.8 -396.646C1150.57 -418.479 1214.23 -441.474 1279.59 -447.019C1320.52 -450.493 1365.25 -445.797 1397.05 -415.579C1413.01 -400.407 1421.37 -377.853 1430.6 -357.817C1441.77 -333.612 1452.5 -309.174 1464.4 -285.35C1502.71 -208.621 1557.42 -133.642 1646.21 -129.874C1659.64 -129.306 1672.84 -131.157 1686.21 -131.504C1694.72 -131.718 1702.3 -129.547 1705.46 -120.147C1713.42 -96.5701 1688.41 -59.3513 1678.15 -40.645C1655.7 0.301805 1630.38 39.4114 1606.66 79.5364C1590.97 106.073 1563.81 142.336 1563.52 174.578C1563.27 203.305 1599.48 224.069 1619.19 238.219C1637.66 251.467 1671.13 270.007 1673.15 296.957C1674.13 310.025 1665.97 320.854 1657.44 329.259C1642.5 343.957 1625.28 354.325 1611.83 371.094C1589.78 398.606 1571.36 436.459 1574.36 473.531C1576.43 499.219 1590.32 516.041 1607.99 532.122C1615.41 538.883 1621.44 543.666 1621.83 554.643C1622.47 572.073 1616 590.519 1610.67 606.68C1591.6 664.516 1564.52 720.441 1534.4 772.658C1519.34 798.754 1503.08 824.769 1483.12 847.029C1470.05 861.647 1452.42 879.044 1432.48 879.024C1409.39 879.024 1384.97 870.232 1362.53 863.658C1320.61 851.372 1279.21 837.168 1237.97 822.597C1142.59 788.886 1048.11 752.444 954.534 713.272C888.618 685.634 821.303 657.955 759.331 621.211C747.245 613.995 735.837 605.582 725.262 596.084C713.963 586.11 699.941 581.647 685.724 578.32C597.481 557.669 500.807 573.523 412.198 583.464C389.707 585.983 367.216 588.515 344.661 590.279C325.272 591.795 302.059 596.144 283.214 589.61C246.082 576.75 278.543 529.349 292.267 510.035C340.585 442.031 402.924 384.496 460.706 325.758C488.179 297.785 515.86 269.886 541.839 240.33C555.367 224.964 582.042 199.978 581.953 179.896Z" stroke="white" stroke-width="2"/>
<path fill-rule="evenodd" clip-rule="evenodd" d="M598.603 176.034C583.793 151.793 557.809 133.876 536.24 117.015C505.201 92.7407 473.187 69.8156 441.654 46.2293C411.837 23.9253 381.957 1.36744 354.345 -23.9617C337.508 -39.4076 316.383 -57.8786 308.407 -80.7236C291.108 -130.24 384.174 -122.727 407.15 -124.023C464.268 -127.228 529.025 -127.963 581.868 -154.033C614.864 -170.314 628.42 -197.313 621.382 -234.795C618.95 -247.764 614.566 -258.836 620.115 -271.737C626.532 -286.669 641.291 -295.978 654.822 -302.549C697.206 -323.137 747.306 -327.511 793.25 -331.15C840.714 -334.91 890.167 -337.561 936.105 -334.81C954.475 -333.715 975.62 -339.932 993.8 -344.7C1021.77 -352.045 1049.46 -360.52 1077.29 -368.4C1133.86 -384.426 1191.9 -399.866 1250.75 -401.622C1293.23 -402.891 1337.53 -396.013 1372.87 -369.428C1408.7 -342.469 1424.59 -300.679 1444.45 -260.953C1478.76 -192.271 1525.1 -108.764 1604.47 -94.253C1616.51 -92.0493 1628.07 -93.2446 1640.1 -92.7037C1646.28 -92.4299 1653.32 -91.5618 1656.45 -85.131C1664.59 -68.4364 1642.29 -37.9118 1634.78 -25.1237C1614.04 10.2156 1590.72 43.8253 1568.99 78.4835C1551.73 106.003 1529.85 136.581 1523.17 169.202C1515.07 208.789 1568.01 236.956 1586.63 264.829C1618.9 313.164 1557.75 340.703 1527.61 363.749C1492.99 390.206 1464.41 438.474 1495.45 479.409C1507.32 495.062 1521.93 504.391 1527.23 524.819C1535.52 556.766 1529.25 593.274 1522.52 624.853C1512.39 672.326 1496.35 719.285 1474.54 762.19C1458.92 792.909 1433.01 841.076 1395.06 837.463C1369.51 835.053 1343.54 826.245 1318.66 818.458C1281.42 806.805 1244.64 793.523 1208.06 779.727C1123.61 747.967 1040.1 712.948 958.225 674.43C902.361 648.139 746.533 540.699 734.808 536.866C699.848 525.447 660.099 527.457 624.055 529.226C576.11 531.577 528.404 537.667 480.737 543.31C458.047 545.981 435.243 549.247 412.433 550.562C396.197 551.497 374.875 552.298 360.654 542.342C332.897 522.916 363.822 478.468 376.611 459.663C415.79 402.013 465.351 352.089 511.821 301.043C534.625 275.981 557.778 250.959 578.479 223.887C586.828 212.956 607.757 191.006 598.603 176.034Z" stroke="white" stroke-width="2"/>
<path fill-rule="evenodd" clip-rule="evenodd" d="M619.096 163.607C578.65 115.099 522.826 79.0212 474.647 38.5086C450.465 18.1688 426.131 -2.72538 405.275 -26.9528C394.426 -39.5508 380.878 -55.482 378.788 -73.0431C373.202 -120.022 457.084 -113.669 482.19 -115.453C530.73 -118.913 585.566 -121.538 629.603 -145.511C656.508 -160.167 669.758 -184.221 664.729 -215.836C662.5 -229.863 659.029 -241.78 664.729 -255.554C670.506 -269.508 682.539 -279.353 694.725 -286.735C729.743 -307.963 773.261 -314.749 812.688 -319.806C858.939 -325.696 905.538 -327.995 952.109 -326.686C992.897 -325.557 1033.49 -338.255 1073.31 -346.625C1126.07 -357.707 1179.79 -367.386 1233.77 -365.923C1276.41 -364.761 1319.39 -355.629 1355.84 -331.362C1392.87 -306.647 1415.14 -269.655 1435.22 -229.736C1465.57 -169.392 1503.39 -88.5266 1569.98 -65.6084C1579.66 -62.2686 1588.69 -61.9012 1598.68 -61.3201C1603.53 -61.0395 1609.79 -60.9527 1612.2 -55.6156C1617.99 -42.7637 1596.59 -17.8483 1590.61 -9.16467C1571.55 18.5563 1550.88 45.0281 1531.34 72.3816C1513.1 97.9182 1493.24 124.53 1481.9 154.456C1463.87 202.116 1521.52 229.983 1519.91 275.399C1518.9 303.594 1493.31 323.814 1473.04 337.801C1448.08 355.001 1412.15 366.31 1399.66 397.698C1390.36 421.077 1404.96 434.684 1416.2 452.425C1435.25 482.484 1436.55 523.231 1434.57 558.025C1431.89 605.044 1421.45 652.758 1403.67 695.975C1395.62 715.567 1385.75 735.947 1371.22 751.163C1357.61 765.425 1344.73 769.079 1326.54 766.159C1270.85 757.209 1214.63 732.26 1161.23 709.976C1094.14 681.975 1027.97 651.061 963.781 616.279C920.01 592.56 875.251 567.464 836.831 534.693C826.818 526.15 816.564 516.865 809.242 505.596C803.707 497.126 801.357 490.133 792.028 485.296C764.375 470.968 725.912 474.716 696.283 476.205C648.908 478.577 601.761 484.889 554.677 490.573C527.202 493.913 475.445 504.421 453.505 479.218C434.568 457.455 457.419 420.349 469.092 401.178C498.619 352.697 536.601 310.147 571.841 266.335C587.992 246.255 604.776 226.022 618.114 203.699C621.522 198.007 626.981 190.466 627.919 183.553C628.97 175.63 624.062 169.585 619.096 163.607Z" stroke="white" stroke-width="2"/>
<path fill-rule="evenodd" clip-rule="evenodd" d="M622.573 174.898C585.199 132.008 540.174 96.7716 500.051 56.6355C482.061 38.6398 463.894 19.7616 450.186 -2.19152C442.812 -13.997 434.983 -28.8575 437.016 -43.5308C442.85 -85.6456 511.84 -81.8418 539.711 -84.3086C581.126 -87.9318 628.705 -91.5818 665.325 -114.29C689.314 -129.164 698.308 -151.131 693.83 -179.461C689.022 -209.851 699.772 -231.911 724.236 -248.864C754.907 -270.102 793.624 -278.758 829.237 -284.909C872.143 -292.283 915.592 -295.552 959.056 -294.675C1001.33 -293.819 1042.28 -301.293 1084.27 -306.153C1139.94 -312.591 1197.4 -315.766 1252.45 -302.57C1300.38 -291.079 1343.67 -265.756 1376.12 -226.596C1410.02 -185.725 1426.8 -134.231 1454.32 -89.0147C1471.49 -60.8112 1495.42 -23.5029 1527.5 -12.5397C1538.2 -8.88305 1557.7 -13.8165 1549.15 4.17254C1544.27 14.4606 1535.13 23.4852 1527.91 31.8947C1516.24 45.4851 1504.19 58.7011 1492.32 72.1043C1467.03 100.676 1439.95 129.855 1421 163.687C1397.12 206.283 1432.62 239.066 1428.29 282.257C1425.97 305.5 1410.65 324.051 1394.45 338.624C1383.96 348.063 1372.49 356.239 1360.78 363.866C1348.55 371.834 1334.07 377.904 1323.4 388.206C1308.2 402.866 1314.8 420.22 1317.65 439.171C1322.67 472.477 1323.77 506.309 1320.93 539.899C1317.46 581.071 1309.32 623.42 1292.18 660.835C1285.51 675.402 1277.05 690.844 1264.51 700.61C1251.96 710.377 1238.98 709.709 1224.6 706.767C1181.95 698.077 1139.39 677.855 1098.93 658.689C1048.29 634.697 998.647 607.884 951.239 577.381C918.515 556.324 885.683 533.575 858.306 505.024C850.343 496.715 842.767 487.817 836.642 477.883C832.435 471.072 830.18 462.281 824.087 457.16C805.02 441.177 766.74 445.95 744.379 446.879C699.753 448.731 655.829 457.535 611.26 459.674C586.935 460.844 548.839 463.785 530.976 441.932C514.177 421.389 529.392 389.035 539.433 369.241C559.165 330.321 585.675 295.647 609.435 259.468C619.203 244.581 629.908 229.005 636.237 212.006C641.862 196.858 632.151 185.894 622.573 174.898Z" stroke="white" stroke-width="2"/>
<path fill-rule="evenodd" clip-rule="evenodd" d="M631.765 175.601C602.016 137.859 566.154 104.356 536.191 65.9997C518.652 43.5373 488.448 5.77505 502.012 -25.8926C516.892 -60.6909 568.762 -61.6388 598.744 -64.4424C634.429 -67.78 676.336 -72.3393 706.876 -94.0674C716.534 -100.936 724.763 -110.028 728.25 -122.004C731.984 -134.82 727.902 -146.035 727.37 -158.865C726.256 -185.779 741.485 -207.387 761.638 -222.227C790.12 -243.207 825.736 -253.127 859.376 -260.042C897.49 -267.842 936.235 -271.688 975.059 -271.524C1012.16 -271.39 1048.87 -272.258 1086.01 -273.259C1134.59 -274.594 1183.84 -272.438 1230.96 -258.827C1277.37 -245.41 1319.57 -220.264 1352.72 -183.276C1385.05 -147.183 1406.87 -103.066 1425.98 -58.1276C1436.82 -32.6213 1455.14 5.49469 1481 18.378C1492.5 24.1121 1503.79 23.7183 1491.56 38.6309C1476.16 57.4085 1455.4 72.4747 1437.57 88.5355C1411.84 111.712 1385.46 135.343 1363.87 162.898C1350.08 180.494 1343.93 197.57 1344.88 220.353C1345.61 237.708 1348.94 254.884 1347.26 272.307C1343.32 313.199 1312.79 341.242 1285.8 367.356C1268.44 384.151 1252.58 396.961 1243.65 420.852C1233.08 449.089 1228.64 479.808 1221.58 509.126C1213.82 541.321 1204.85 574.811 1187.92 603.168C1172.84 628.414 1154.5 639.735 1127.06 632.933C1084.25 622.333 1042.06 596.219 1004.06 572.061C965.381 547.482 927.367 519.847 895.315 486.063C878.01 467.819 866.199 446.398 850.832 426.8C831.502 402.195 787.772 411.513 761.783 413.596C718.642 417.054 582.895 442.927 595.421 359.126C600.649 324.147 621.239 291.865 636.296 260.999C642.537 248.189 651.569 232.815 652.981 218.136C654.519 202.149 640.708 186.963 631.765 175.601Z" stroke="white" stroke-width="2"/>
<path fill-rule="evenodd" clip-rule="evenodd" d="M647.471 178.802C624.738 144.6 597.532 112.288 578.025 75.3474C565.371 51.424 552.945 19.4593 569.269 -5.85326C587.693 -34.4184 628.319 -41.0772 658.17 -44.7171C688.925 -48.4639 725.641 -51.6162 750.778 -73.2755C758.776 -80.1747 765.368 -89.4783 766.596 -100.619C767.779 -111.305 764.438 -121.991 765.545 -132.87C768.026 -157.301 782.065 -177.431 800.167 -192.031C853.712 -235.223 933.408 -244.827 998.013 -245.955C1030.35 -246.517 1063.63 -243.571 1096.18 -241.461C1138.41 -238.722 1180.71 -232.845 1220.98 -218.679C1306.62 -188.571 1364.02 -121.797 1404.11 -38.7062C1416.72 -12.5521 1426.38 15.7459 1446.15 36.764C1456.34 47.617 1454.11 55.4112 1443.69 65.3091C1427.4 80.7772 1407.53 92.5987 1389.45 105.509C1363.73 123.869 1337.46 142.503 1314.71 164.496C1299.03 179.657 1287.9 194.263 1284.53 216.998C1282.11 233.207 1282.68 249.724 1281.23 266.033C1278.47 297.016 1269.02 327.765 1252.3 353.465C1239.01 373.835 1223.2 392.349 1206.85 410.001C1185.6 432.983 1167.62 456.332 1151.48 483.608C1130.08 519.713 1100.02 586.314 1049.62 568.689C994.027 549.24 941.924 499.824 906.258 451.944C894.281 435.868 884.449 416.152 868.296 404.297C844.114 386.579 819.578 387.2 790.816 387.273C747.754 387.373 654.051 397.238 653.038 329.168C652.64 302.199 663.699 276.699 668.995 250.759C674.968 221.706 662.997 202.111 647.471 178.802Z" stroke="white" stroke-width="2"/>
<path fill-rule="evenodd" clip-rule="evenodd" d="M664.4 181.852C641.914 137.275 591.492 64.027 629.842 14.4584C650.1 -11.7375 685.93 -21.5818 715.988 -27.4484C740.177 -32.1937 769.348 -33.9756 787.624 -54.0914C801.057 -68.8812 795.094 -90.4052 800.241 -108.919C806.628 -131.871 821.29 -150.652 839.306 -164.768C889.653 -204.219 959.656 -216.326 1020.22 -218.902C1083.12 -221.572 1152.43 -209.084 1211.62 -185.064C1285.42 -155.104 1340.71 -98.3741 1379.37 -26.534C1386.51 -13.2725 1392.99 0.335965 1399.84 13.7576C1404.44 22.761 1411.27 31.4707 1414.9 40.9413C1420.93 56.7322 1413.82 69.64 1402.41 79.9314C1386 94.748 1365.85 105.293 1347.14 116.412C1321.56 131.629 1295.41 146.572 1271.61 164.426C1255.62 176.439 1238.88 189.38 1233.16 210.223C1229.25 224.439 1228.44 239.496 1228.58 254.219C1228.89 285.788 1227.32 311.316 1213.35 340.228C1190.37 387.695 1155.03 430.376 1117.7 465.889C1088.41 493.76 1042.05 537.055 999.36 518.421C961.061 501.735 938.657 461.797 913.424 429.508C901.155 413.811 887.374 399.475 871.18 388.309C850.764 374.233 831.545 368.326 807.356 366.024C766.645 362.146 705.258 361.138 692.673 309.614C688.026 290.6 690.678 270.904 688.241 251.643C685.057 226.175 675.745 204.337 664.4 181.852Z" stroke="white" stroke-width="2"/>
<path fill-rule="evenodd" clip-rule="evenodd" d="M687.785 183.503C671.773 134.728 650.737 73.2579 689.411 29.9081C708.143 8.90807 734.492 -2.83143 759.994 -11.6043C778.258 -17.8916 807.259 -19.7423 818.456 -39.072C826.681 -53.297 827.819 -72.9207 835.259 -88.1612C845.483 -109.115 860.97 -126.373 879.139 -139.883C926.473 -175.088 988.124 -188.692 1044.35 -192.587C1166.51 -201.039 1290.81 -133.723 1356.18 -22.9695C1375.67 10.0439 1400.83 45.1821 1369.33 78.9105C1334.94 115.706 1283.14 132.944 1242.09 159.089C1226.41 169.071 1206.42 181.071 1197.67 199.145C1192.41 210.009 1192.05 223.639 1191.81 235.599C1191.18 266.06 1188.78 293.455 1177.17 321.878C1159.24 365.802 1130.65 406.326 1098.25 439.52C1070 468.464 1029.71 502.48 988.674 481.613C957.213 465.578 937.26 431.542 912.814 406.453C885.611 378.51 851.967 359.682 815.021 350.481C779.081 341.555 739.661 335.535 720.72 297.61C714.223 284.602 707.434 267.757 704.999 253.359C701.067 229.618 695.31 206.256 687.785 183.503Z" stroke="white" stroke-width="2"/>
<path fill-rule="evenodd" clip-rule="evenodd" d="M713.857 183.844C706.449 134.592 705.626 83.2352 740.043 44.417C756.106 26.3072 776.41 13.4412 796.943 1.78441C812.049 -6.79287 827.65 -14.0275 838.932 -28.0891C849.385 -41.1087 857.331 -56.2258 867.423 -69.586C880.736 -87.2912 896.665 -102.618 914.598 -114.977C959.55 -145.9 1014.23 -160.362 1066.55 -165.379C1091.87 -167.817 1119.35 -169.086 1144.5 -162.44C1168.79 -156.027 1192.81 -145.886 1215.15 -134.063C1262.64 -108.952 1303.79 -72.1779 1333.62 -25.6843C1354.08 6.20665 1365.14 37.2158 1338.65 69.5676C1308.79 106.034 1261.96 126.155 1223.36 149.823C1196.89 166.055 1167.22 181.967 1162.28 216.464C1158.34 243.912 1155.14 269.965 1144.96 295.91C1129.79 334.18 1107.5 368.848 1079.4 397.856C1053.7 424.282 1021.19 446.707 984.432 432.592C955.308 421.39 932.712 396.292 907.266 378.35C878.908 358.309 847.752 347.26 814.943 338.376C785.458 330.36 757.695 318.041 738.638 291.889C734.738 286.545 730.641 280.726 727.634 274.748C723.797 267.119 724.095 259.557 723.341 251.006C721.379 228.441 717.206 206.136 713.857 183.844Z" stroke="white" stroke-width="2"/>
<path fill-rule="evenodd" clip-rule="evenodd" d="M742.6 179.819C743.233 133.037 753.896 88.8234 783.101 52.3648C795.587 36.7684 810.497 23.9219 824.236 9.63019C835.298 -1.8915 845.752 -12.5969 858.472 -22.0913C888.646 -44.5726 913.168 -73.6646 945.234 -93.6837C988.039 -120.447 1037.07 -135.241 1085.72 -141.155C1109.48 -144.046 1134.02 -145.056 1158.06 -141.791C1178.7 -138.988 1198.47 -129.145 1216.81 -119.076C1252.75 -99.3508 1287.66 -71.3161 1310.99 -35.8477C1362.45 42.3486 1261 99.2009 1208.93 132.495C1184.98 147.81 1148.39 165.548 1138.58 195.884C1131.57 217.556 1127.3 239.596 1118.27 260.598C1094.01 317.002 1044.77 383.342 979.154 374.51C951.075 370.737 925.483 355.408 899.271 345.117C872.281 334.519 844.423 328.611 816.37 322.128C790.151 316.072 769.255 307.455 752.32 284.351C744.226 273.318 744.941 260.11 744.22 246.574C743.043 224.34 742.315 201.98 742.6 179.819Z" stroke="white" stroke-width="2"/>
<path fill-rule="evenodd" clip-rule="evenodd" d="M768.777 173.831C779.319 103.217 818.472 26.1259 876.042 -14.8831C943.761 -63.1232 1017.12 -103.745 1098.03 -115.423C1135.55 -120.838 1176.64 -123.502 1212.03 -105.795C1238.97 -92.3277 1270.26 -72.1971 1285.09 -43.8873C1321.36 25.3581 1240.68 80.482 1194.72 112.517C1169.97 129.764 1138.47 146.569 1119.82 171.754C1109 186.356 1103.48 205.672 1094.74 221.71C1068.26 270.311 1024.68 309.51 970.395 316.521C945.294 319.759 920.009 315.753 895.098 312.568C869.598 309.31 843.782 307.541 818.44 302.994C798.211 299.362 774.371 293.212 766.921 270.371C757.525 241.587 764.475 202.668 768.777 173.831Z" stroke="white" stroke-width="2"/>
<path fill-rule="evenodd" clip-rule="evenodd" d="M794.445 162.485C809.82 96.0954 842.378 31.3367 897.109 -8.29636C926.134 -29.3124 959.827 -43.8198 992.175 -58.1534C1028.84 -74.3982 1067.15 -87.0078 1106.28 -93.2625C1155 -101.054 1233.9 -108.077 1259.36 -49.5065C1284.62 8.63003 1220.78 60.0842 1183.03 89.4064C1158.82 108.19 1132.92 125.431 1109.8 145.966C1097.26 157.099 1087.6 169.962 1076.98 183.019C1047.65 219.198 1005.84 247.838 963.226 263.128C921.922 277.949 870.825 284.511 827.225 279.613C808.412 277.508 794.965 270.405 789.276 250.211C781.392 222.138 788.09 189.909 794.445 162.485Z" stroke="white" stroke-width="2"/>
<path fill-rule="evenodd" clip-rule="evenodd" d="M819.947 144.609C835.221 86.156 868.165 32.7669 916.218 -2.31566C970.084 -41.6438 1039.45 -63.4972 1103.2 -74.6103C1137.08 -80.5128 1210.52 -96.5169 1227.79 -50.7139C1245.06 -4.9109 1195.13 40.2266 1166.39 65.0745C1131.51 95.1862 1093.91 124.26 1056.34 151.277C1023.71 174.768 988.887 198.784 953.539 216.924C933.603 227.215 912.836 235.617 891.483 242.031C875.672 246.743 855.566 253.77 838.99 250.263C797.179 241.406 812.642 172.558 819.947 144.609Z" stroke="white" stroke-width="2"/>
<path fill-rule="evenodd" clip-rule="evenodd" d="M851.432 127.098C884.945 16.5566 991.121 -37.8099 1093.35 -56.7598C1117.11 -61.1585 1183.7 -77.0179 1196.98 -43.2499C1209.85 -10.5098 1168.93 28.3176 1149.77 46.7135C1090.4 103.717 1017.05 145.982 947.549 187.853C925.855 200.922 886.728 229.283 859.817 216.201C830.598 201.97 844.49 150.02 851.432 127.098Z" stroke="white" stroke-width="2"/>
<path fill-rule="evenodd" clip-rule="evenodd" d="M885.758 105.827C914.902 24.4213 999.669 -22.268 1077.6 -37.6598C1096.69 -41.4259 1145.17 -53.1517 1159.63 -30.4347C1173.01 -9.42046 1141.08 21.0291 1129.14 33.1288C1102.54 60.0727 1071.03 82.2689 1039.89 103.604C1011.1 123.342 982.002 143.575 951.709 160.269C935.754 169.057 905.83 187.807 887.699 174.239C868.179 159.642 879.287 123.903 885.758 105.827Z" stroke="white" stroke-width="2"/>
<path fill-rule="evenodd" clip-rule="evenodd" d="M923.585 82.0402C945.798 28.8789 1005.29 -5.64229 1057.77 -17.1137C1071.89 -20.1937 1102.41 -28.1842 1114.32 -13.9869C1125.29 -0.912055 1107.62 18.2559 1099.77 27.1084C1065.01 66.3464 1014.09 101.395 967.446 122.922C955.718 128.333 934.635 138.956 922.57 128.033C910.194 116.815 918.483 94.2466 923.585 82.0402Z" stroke="white" stroke-width="2"/>
<path fill-rule="evenodd" clip-rule="evenodd" d="M963.714 59.7081C976.231 33.3103 1008.94 13.3939 1036.04 7.05411C1055.11 2.59602 1078.04 6.44708 1061.42 29.4254C1044.91 52.2284 1014.27 73.0554 988.304 82.2885C968.493 89.3297 952.966 82.3829 963.714 59.7081Z" stroke="white" stroke-width="2"/>
<path fill-rule="evenodd" clip-rule="evenodd" d="M-51.3113 242.54C-52.1141 190.387 -78.3785 136.186 -65.4075 83.0457C-54.7564 39.4016 -1.13392 35.7579 31.0345 15.9846C56.5973 0.27538 71.1043 -27.5527 84.9287 -54.253C97.3498 -78.2239 108.507 -102.915 121.591 -126.493C130.062 -141.735 144.607 -171.665 162.976 -172.205C180.562 -172.726 196.687 -149.402 206.902 -135.615C220.221 -117.644 232.029 -98.4844 244.962 -80.2259C266.757 -49.4281 292.908 -26.6317 322.851 -5.05662C356.926 19.4926 391.564 43.2032 426.765 66.0752C452.681 82.9656 478.775 99.7292 503.687 118.288C519.313 129.933 553.801 151.782 553.96 173.25C554.035 183.494 544.838 194.839 538.637 203.027C528.143 216.888 516.184 229.56 504.186 241.96C481.841 265.056 458.547 287.105 435.507 309.421C405.601 338.384 377.036 366.872 350.746 399.752C323.565 433.787 297.598 468.942 271.1 503.617C253.154 527.108 235.227 553.488 209.342 567.902C176.921 585.92 150.309 566.921 117.521 566.701C89.3156 566.507 91.3953 497.531 87.8112 478.352C84.2144 458.939 76.2877 440.867 73.2156 421.407C69.385 397.116 69.3344 372.264 68.3925 347.713C67.2484 317.683 66.7933 289.094 36.3822 277.642C19.0748 271.136 0.351582 269.768 -17.5626 265.87C-29.1682 263.341 -51.0584 259.017 -51.3113 242.54Z" stroke="white" stroke-width="2"/>
<path fill-rule="evenodd" clip-rule="evenodd" d="M-37.4394 233.267C-40.3959 189.55 -57.8624 133.596 -41.3455 88.4691C-27.2343 49.9053 16.8973 44.9061 46.6138 24.6484C71.1455 7.9396 82.066 -19.4026 94.3286 -46.2636C104.167 -67.8113 113.707 -89.5661 124.874 -110.425C133.104 -125.797 145.671 -151.749 162.783 -154.931C178.167 -157.791 194.665 -134.88 203.3 -123.224C215.898 -106.208 226.673 -87.7281 237.802 -69.6359C257.358 -37.8558 277.382 -9.27712 306.003 14.0684C334.751 37.5141 366.202 55.0449 397.989 73.2909C422.856 87.5669 447.597 102.257 471.223 118.739C488.823 131.01 514.127 146.716 522.179 168.598C528.554 185.908 496.223 214.634 486.689 224.773C467.064 245.618 446.267 265.188 425.433 284.637C400.034 308.336 373.825 329.062 351.395 356.097C311.277 404.432 277.743 464.623 226.122 500.547C194.987 522.215 160.339 527.756 125.71 524.514C111.998 523.231 108.706 502.8 106.977 490.883C104.103 471.086 103.742 450.949 101.533 431.072C99.4629 412.465 94.8668 394.788 91.1633 376.542C87.4155 358.055 86.3646 339.114 83.6044 320.5C81.8951 308.945 80.2048 295.497 72.7282 286.207C64.992 276.59 52.2292 272.56 41.0744 269.499C20.126 263.804 -35.3503 264.118 -37.4394 233.267Z" stroke="white" stroke-width="2"/>
<path fill-rule="evenodd" clip-rule="evenodd" d="M-19.5953 214.965C-24.5674 174.836 -31.5284 124.856 -11.2726 87.884C5.28423 57.654 40.5957 51.1327 65.8173 31.4355C86.7952 15.0556 94.7189 -10.9961 105.132 -35.2055C113.676 -55.0629 122.265 -75.0071 132.621 -93.9034C140.475 -108.234 150.597 -127.665 166.191 -132.664C179.524 -136.936 194.586 -117.799 201.977 -108.274C214.563 -92.0411 224.824 -73.8525 235.015 -55.904C251.686 -26.535 267.026 4.83647 290.753 28.7255C313.809 51.907 341.196 65.5903 369.097 80.9756C390.468 92.7633 411.705 105.005 431.841 119.062C447.302 129.848 466.462 142.631 474.519 160.579C481.486 176.058 463.599 194.38 454.662 205.3C439.904 223.322 423.524 239.855 407.373 256.455C389.942 274.364 370.636 290.884 353.769 309.233C318.299 347.846 289.961 390.598 246.245 420.181C217.932 439.344 179.834 456.752 146.366 453.622C122.297 451.366 123.88 395.151 121.568 377.189C117.768 347.82 110.427 316.962 98.7663 289.909C88.7524 266.728 64.9559 259.579 43.066 254.38C29.3531 251.116 14.9814 249.354 1.71826 244.307C-13.6351 238.46 -17.5115 231.786 -19.5953 214.965Z" stroke="white" stroke-width="2"/>
<path fill-rule="evenodd" clip-rule="evenodd" d="M-2.95137 196.154C-5.91181 162.227 -5.24617 122.108 13.9301 92.7601C30.7355 67.0539 60.6569 60.2859 81.9379 40.0356C98.5468 24.237 105.07 -1.52274 114.002 -22.4157C124.918 -47.9613 140.215 -95.1429 167.753 -104.756C193.37 -113.693 220.159 -56.6037 229.434 -39.58C244.116 -12.6353 256.395 16.9134 274.202 41.7962C289.536 63.2181 310.082 75.0603 331.889 87.7862C359.693 104.04 401.906 123.313 416.772 154.991C427.853 178.595 391.821 213.686 379.516 230.041C366.647 247.125 356.955 267.375 343.674 283.856C322.716 309.864 288.757 330.804 260.718 346.783C233.459 362.327 198.061 379.532 167.138 378.507C146.814 377.838 142.947 344.714 138.611 328.534C132.398 305.533 124.138 284.921 106.395 269.276C88.3342 253.35 67.0469 245.846 44.6693 239.279C33.1825 235.932 20.0792 233.321 9.80327 226.56C-1.55037 219.203 -1.8103 209.195 -2.95137 196.154Z" stroke="white" stroke-width="2"/>
<path fill-rule="evenodd" clip-rule="evenodd" d="M17.3345 176.602C17.4988 147.292 23.8491 116.036 42.6789 93.4272C58.362 74.5954 82.9102 68.3003 97.9235 49.0488C109.815 33.8075 115.869 12.4109 123.83 -5.28851C133.567 -26.9781 147.336 -64.8683 171.549 -72.3957C195.181 -79.7233 216.084 -37.9894 225.145 -21.4757C238.414 2.73854 249.156 28.405 262.545 52.5527C273.034 71.4978 285.861 83.7082 302.941 95.9186C322.99 110.261 350.963 126.148 361.673 149.876C369.395 167.056 350.704 194.508 343.918 209.642C339.368 219.808 335.204 230.133 332.917 241.151C331.135 249.731 330.958 257.671 325.796 265.039C312.798 283.571 284.301 285.989 264.965 292.098C239.286 300.205 212.04 309.417 185.166 311.176C168.649 312.275 160.22 296.214 150.792 284.917C139.652 271.56 123.881 261.955 110.106 251.876C91.927 238.553 72.1431 230.266 51.6768 221.78C42.4451 217.949 31.6022 214.192 24.4494 206.578C16.9807 198.684 17.2776 187.18 17.3345 176.602Z" stroke="white" stroke-width="2"/>
<path fill-rule="evenodd" clip-rule="evenodd" d="M38.6328 159.198C41.8965 134.581 52.0674 111.053 69.2466 93.6512C82.4156 80.2907 99.9046 72.7687 110.474 56.7161C120.322 41.7524 127.185 24.7378 135.319 8.73864C143.928 -8.17572 156.717 -36.4464 176.572 -41.0491C197.97 -46.0059 214.453 -17.4879 223.581 -1.6825C235.111 18.2914 243.872 39.7817 254.182 60.4437C261.949 75.8439 271.856 89.9286 283.575 102.229C295.865 115.195 312.531 127.613 318.749 145.443C324.246 161.235 313.961 180.341 312.146 196.353C310.204 213.461 313.607 231.431 302.841 246.121C280.64 276.416 224.922 270.798 193.068 271.446C161.638 272.114 136.369 253.576 110.936 235.94C94.1361 224.297 76.6407 214.436 59.4172 203.588C41.8586 192.519 35.7611 180.862 38.6328 159.198Z" stroke="white" stroke-width="2"/>
<path fill-rule="evenodd" clip-rule="evenodd" d="M58.4277 145.11C68.0794 109.448 98.2244 90.4933 119.775 63.5426C137.407 41.4792 150.629 -4.21204 180.324 -10.2561C214.039 -17.1158 234.222 43.4248 245.943 66.7853C258.949 92.693 282.113 113.767 291.746 141.192C296.809 155.587 292.461 169.019 289.765 183.407C286.81 199.206 284.588 215.359 274.386 228.075C254.304 253.101 215.083 252.927 186.837 253.615C157.597 254.331 131.73 237.181 108.433 220.066C83.7247 201.94 48.5418 181.682 58.4277 145.11Z" stroke="white" stroke-width="2"/>
<path fill-rule="evenodd" clip-rule="evenodd" d="M74.5934 135.438C85.469 110.03 108.323 89.3735 126.868 69.8736C142.346 53.617 158.998 20.8911 182.598 18.5583C210.335 15.8067 227.146 50.7524 238.06 72.1798C248.802 93.2349 264.28 115.466 270.228 138.575C276.431 162.648 259.914 195.068 244.161 212.102C226.592 231.097 197.847 238.115 173.182 237.358C147.357 236.587 123.661 220.888 104.103 204.605C83.1932 187.199 61.9454 164.934 74.5934 135.438Z" stroke="white" stroke-width="2"/>
<path fill-rule="evenodd" clip-rule="evenodd" d="M89.5941 130.657C99.9827 109.524 117.99 91.6465 134.594 75.7002C147.408 63.3892 166.315 42.456 184.801 41.9433C205.138 41.3773 222.374 58.9482 230.458 76.9586C238.429 94.7225 246.826 116.994 248.019 136.483C250.61 178.922 197.863 226.461 158.256 222.593C120.702 218.924 68.8808 172.763 89.5941 130.657Z" stroke="white" stroke-width="2"/>
<path fill-rule="evenodd" clip-rule="evenodd" d="M103.465 128.326C117.797 100.792 152.609 61.5374 184.837 60.6051C221.83 59.5397 231.116 103.222 226.295 134.879C221.396 167.188 178.746 213.953 144.738 207.634C111.546 201.468 86.4804 160.982 103.465 128.326Z" stroke="white" stroke-width="2"/>
<path fill-rule="evenodd" clip-rule="evenodd" d="M118.115 123.88C130.249 100.826 156.143 72.0298 183.149 71.1582C215.327 70.127 214.72 107.007 207.423 129.962C199.835 153.794 166.418 194.5 138.242 188.073C110.844 181.799 106.487 145.977 118.115 123.88Z" stroke="white" stroke-width="2"/>
<path fill-rule="evenodd" clip-rule="evenodd" d="M130.869 121.221C138.878 104.77 158.923 83.9791 177.98 83.3139C201.272 82.5142 196.744 111.766 190.726 125.884C183.573 142.684 159.596 171.875 139.474 167.144C119.663 162.488 124.261 134.775 130.869 121.221Z" stroke="white" stroke-width="2"/>
</g>
</g>
<defs>
<clipPath id="clip0_1222_19484">
<rect width="1600" height="504" fill="white"/>
</clipPath>
</defs>
</svg>
