<svg width="1600" height="561" viewBox="0 0 1600 561" fill="none" xmlns="http://www.w3.org/2000/svg">
<g clip-path="url(#clip0_1222_18935)">
<rect width="1600" height="614" fill="#4BA07B"/>
<g opacity="0.1">
<path fill-rule="evenodd" clip-rule="evenodd" d="M559.263 -24.1084C559.152 -49.2098 514.872 -77.437 495.957 -91.9898C458.558 -120.773 419.66 -147.353 381.123 -174.358C342.586 -201.363 303.946 -228.294 267.198 -257.942C243.338 -277.187 215.302 -298.862 199.12 -326.343C164.648 -384.905 273.336 -376.209 301.49 -377.49C373.112 -380.762 455.263 -379.269 522.398 -409.765C562.474 -427.971 578.455 -458.504 569.848 -503.004C567.073 -517.476 558.861 -534.13 565.818 -548.229C573.246 -563.287 590.337 -571.976 604.521 -577.803C656.257 -599.032 715.741 -601.492 770.481 -604.156C829.507 -607.084 889.088 -606.228 947.698 -606.455C972.55 -606.55 998.505 -615.971 1022.17 -623.628C1053.2 -633.664 1083.85 -644.938 1114.62 -655.838C1182.31 -679.76 1252.06 -704.957 1323.68 -711.033C1368.52 -714.839 1417.54 -709.693 1452.38 -676.583C1469.87 -659.959 1479.03 -635.246 1489.14 -613.292C1501.39 -586.77 1513.14 -559.993 1526.17 -533.888C1568.16 -449.815 1628.1 -367.659 1725.39 -363.53C1740.11 -362.908 1754.57 -364.935 1769.22 -365.316C1778.54 -365.55 1786.85 -363.171 1790.32 -352.871C1799.03 -327.038 1771.63 -286.257 1760.39 -265.76C1735.79 -220.893 1708.05 -178.04 1682.06 -134.074C1664.86 -104.998 1635.1 -65.2633 1634.79 -29.9354C1634.51 1.54197 1674.18 24.2935 1695.78 39.798C1716.02 54.3142 1752.69 74.6281 1754.91 104.158C1755.99 118.477 1747.04 130.343 1737.7 139.552C1721.32 155.657 1702.46 167.018 1687.72 185.392C1663.57 215.537 1643.38 257.014 1646.66 297.634C1648.94 325.781 1664.15 344.214 1683.51 361.834C1691.65 369.242 1698.25 374.483 1698.68 386.51C1699.38 405.609 1692.29 425.821 1686.45 443.528C1665.56 506.9 1635.88 568.179 1602.87 625.395C1586.38 653.988 1568.56 682.493 1546.69 706.884C1532.37 722.901 1513.05 741.963 1491.2 741.941C1465.91 741.941 1439.14 732.308 1414.55 725.105C1368.63 711.643 1323.26 696.08 1278.07 680.114C1173.57 643.176 1070.05 603.246 967.507 560.324C895.282 530.04 821.524 499.712 753.619 459.45C740.376 451.544 727.877 442.325 716.289 431.918C703.908 420.989 688.545 416.099 672.966 412.454C576.277 389.827 470.349 407.198 373.258 418.09C348.614 420.85 323.97 423.624 299.257 425.557C278.011 427.219 252.577 431.984 231.928 424.825C191.241 410.733 226.809 358.796 241.847 337.633C294.79 263.119 363.096 200.076 426.409 135.716C456.512 105.066 486.843 74.4963 515.309 42.1112C530.131 25.2744 559.36 -2.10353 559.263 -24.1084Z" stroke="white" stroke-width="2"/>
<path fill-rule="evenodd" clip-rule="evenodd" d="M577.507 -28.3396C561.279 -54.9006 532.808 -74.5324 509.174 -93.0081C475.164 -119.606 440.085 -144.725 405.533 -170.569C372.863 -195.008 340.123 -219.725 309.868 -247.479C291.419 -264.403 268.271 -284.643 259.533 -309.674C240.577 -363.931 342.552 -355.699 367.727 -357.118C430.312 -360.631 501.268 -361.435 559.169 -390.001C595.324 -407.84 610.177 -437.423 602.466 -478.494C599.801 -492.704 594.998 -504.836 601.078 -518.972C608.109 -535.333 624.281 -545.533 639.107 -552.733C685.548 -575.292 740.443 -580.085 790.785 -584.072C842.793 -588.192 896.98 -591.097 947.315 -588.082C967.443 -586.882 990.612 -593.694 1010.53 -598.919C1041.18 -606.968 1071.52 -616.253 1102.02 -624.887C1164 -642.448 1227.59 -659.365 1292.07 -661.29C1338.63 -662.68 1387.16 -655.143 1425.89 -626.014C1465.14 -596.475 1482.56 -550.685 1504.32 -507.155C1541.92 -431.899 1592.69 -340.399 1679.66 -324.499C1692.84 -322.084 1705.52 -323.394 1718.69 -322.801C1725.47 -322.501 1733.18 -321.55 1736.61 -314.504C1745.53 -296.211 1721.09 -262.764 1712.87 -248.752C1690.14 -210.03 1664.6 -173.203 1640.78 -135.228C1621.87 -105.074 1597.89 -71.569 1590.58 -35.825C1581.7 7.5507 1639.71 38.4142 1660.1 68.9557C1695.47 121.917 1628.47 152.092 1595.44 177.344C1557.51 206.334 1526.2 259.222 1560.2 304.076C1573.21 321.227 1589.21 331.449 1595.02 353.832C1604.11 388.837 1597.23 428.839 1589.86 463.442C1578.76 515.459 1561.18 566.913 1537.29 613.925C1520.18 647.584 1491.78 700.362 1450.2 696.403C1422.21 693.762 1393.75 684.111 1366.49 675.579C1325.68 662.811 1285.38 648.257 1245.3 633.14C1152.77 598.34 1061.26 559.969 971.552 517.764C910.341 488.957 739.596 371.232 726.749 367.032C688.442 354.52 644.888 356.722 605.395 358.661C552.86 361.237 500.588 367.91 448.358 374.093C423.496 377.02 398.509 380.598 373.515 382.039C355.726 383.064 332.363 383.942 316.781 373.032C286.366 351.746 320.251 303.044 334.265 282.439C377.194 219.271 431.499 164.568 482.417 108.636C507.404 81.1752 532.773 53.7581 555.456 24.0946C564.604 12.1165 587.536 -11.9347 577.507 -28.3396Z" stroke="white" stroke-width="2"/>
<path fill-rule="evenodd" clip-rule="evenodd" d="M599.961 -41.9565C555.643 -95.1081 494.476 -134.639 441.684 -179.029C415.188 -201.316 388.525 -224.21 365.673 -250.757C353.785 -264.561 338.94 -282.017 336.65 -301.259C330.529 -352.734 422.44 -345.774 449.95 -347.728C503.137 -351.519 563.222 -354.396 611.474 -380.664C640.954 -396.722 655.473 -423.079 649.962 -457.72C647.52 -473.09 643.717 -486.148 649.962 -501.24C656.292 -516.529 669.477 -527.318 682.829 -535.405C721.2 -558.666 768.883 -566.102 812.084 -571.643C862.762 -578.096 913.822 -580.616 964.85 -579.181C1009.54 -577.944 1054.02 -591.858 1097.66 -601.029C1155.47 -613.171 1214.32 -623.777 1273.48 -622.174C1320.2 -620.9 1367.28 -610.895 1407.22 -584.305C1447.81 -557.224 1472.21 -516.69 1494.21 -472.951C1527.46 -406.83 1568.91 -318.225 1641.86 -293.113C1652.48 -289.453 1662.36 -289.051 1673.31 -288.414C1678.62 -288.106 1685.49 -288.011 1688.13 -282.163C1694.47 -268.081 1671.02 -240.781 1664.47 -231.266C1643.59 -200.892 1620.94 -171.886 1599.53 -141.914C1579.54 -113.933 1557.77 -84.7734 1545.36 -51.9837C1525.6 0.238334 1588.77 30.7737 1587 80.5366C1585.89 111.431 1557.85 133.586 1535.64 148.912C1508.3 167.759 1468.93 180.15 1455.25 214.543C1445.05 240.16 1461.05 255.069 1473.37 274.508C1494.24 307.444 1495.66 352.091 1493.49 390.217C1490.56 441.736 1479.12 494.017 1459.64 541.371C1450.81 562.838 1440 585.169 1424.08 601.842C1409.17 617.469 1395.05 621.472 1375.12 618.274C1314.1 608.466 1252.5 581.129 1193.99 556.712C1120.48 526.031 1047.98 492.158 977.64 454.047C929.679 428.057 880.635 400.559 838.538 364.651C827.566 355.29 816.331 345.116 808.308 332.769C802.243 323.488 799.668 315.825 789.446 310.526C759.147 294.826 717.001 298.932 684.537 300.565C632.627 303.163 580.967 310.079 529.376 316.308C499.271 319.968 442.559 331.481 418.519 303.865C397.769 280.02 422.808 239.362 435.598 218.356C467.952 165.234 509.57 118.611 548.183 70.6045C565.88 48.6032 584.27 26.4335 598.885 1.97296C602.619 -4.26294 608.601 -12.5262 609.628 -20.1016C610.78 -28.782 605.402 -35.4059 599.961 -41.9565Z" stroke="white" stroke-width="2"/>
<path fill-rule="evenodd" clip-rule="evenodd" d="M603.771 -29.5848C562.82 -76.5806 513.484 -115.189 469.521 -159.167C449.809 -178.886 429.902 -199.571 414.882 -223.625C406.803 -236.561 398.224 -252.844 400.452 -268.922C406.845 -315.068 482.438 -310.9 512.978 -313.603C558.357 -317.573 610.49 -321.572 650.615 -346.455C676.9 -362.752 686.756 -386.821 681.849 -417.864C676.581 -451.162 688.359 -475.334 715.165 -493.909C748.773 -517.18 791.195 -526.666 830.217 -533.405C877.23 -541.485 924.839 -545.067 972.463 -544.106C1018.78 -543.169 1063.65 -551.358 1109.66 -556.683C1170.67 -563.737 1233.63 -567.216 1293.94 -552.757C1346.46 -540.165 1393.89 -512.419 1429.45 -469.511C1466.59 -424.727 1484.98 -368.304 1515.13 -318.759C1533.94 -287.856 1560.17 -246.977 1595.32 -234.964C1607.04 -230.958 1628.41 -236.363 1619.05 -216.652C1613.69 -205.379 1603.68 -195.491 1595.77 -186.276C1582.98 -171.385 1569.77 -156.904 1556.77 -142.218C1529.06 -110.912 1499.39 -78.9392 1478.63 -41.8685C1452.46 4.80496 1491.35 40.7256 1486.61 88.051C1484.07 113.519 1467.28 133.845 1449.53 149.813C1438.04 160.156 1425.47 169.114 1412.64 177.472C1399.24 186.203 1383.38 192.854 1371.69 204.141C1355.03 220.205 1362.26 239.22 1365.38 259.985C1370.88 296.479 1372.09 333.549 1368.98 370.355C1365.18 415.468 1356.26 461.871 1337.47 502.868C1330.16 518.828 1320.9 535.748 1307.15 546.45C1293.4 557.151 1279.18 556.419 1263.42 553.196C1216.69 543.674 1170.06 521.516 1125.72 500.516C1070.24 474.228 1015.84 444.848 963.898 411.425C928.041 388.352 892.067 363.426 862.068 332.142C853.344 323.037 845.042 313.288 838.33 302.403C833.722 294.939 831.251 285.307 824.574 279.696C803.682 262.183 761.738 267.413 737.237 268.431C688.338 270.46 640.211 280.107 591.375 282.451C564.722 283.732 522.979 286.955 503.406 263.011C484.999 240.502 501.671 205.05 512.672 183.361C534.293 140.716 563.34 102.723 589.376 63.0809C600.078 46.7686 611.809 29.7019 618.742 11.075C624.906 -5.52294 614.266 -17.5356 603.771 -29.5848Z" stroke="white" stroke-width="2"/>
<path fill-rule="evenodd" clip-rule="evenodd" d="M613.842 -28.8144C581.246 -70.1693 541.951 -106.88 509.12 -148.907C489.902 -173.52 456.807 -214.897 471.669 -249.596C487.974 -287.725 544.809 -288.764 577.661 -291.836C616.762 -295.493 662.68 -300.488 696.143 -324.296C706.726 -331.823 715.742 -341.785 719.563 -354.907C723.655 -368.95 719.182 -381.238 718.599 -395.296C717.379 -424.787 734.065 -448.464 756.147 -464.723C787.356 -487.712 826.38 -498.581 863.241 -506.159C905.003 -514.705 947.457 -518.919 989.997 -518.739C1030.65 -518.593 1070.88 -519.544 1111.57 -520.641C1164.79 -522.104 1218.76 -519.741 1270.39 -504.827C1321.25 -490.126 1367.48 -462.573 1403.8 -422.044C1439.24 -382.496 1463.14 -334.156 1484.08 -284.916C1495.96 -256.969 1516.03 -215.204 1544.37 -201.087C1556.97 -194.805 1569.34 -195.236 1555.94 -178.896C1539.06 -158.321 1516.32 -141.813 1496.78 -124.214C1468.59 -98.8193 1439.69 -72.9268 1416.02 -42.7334C1400.91 -23.453 1394.18 -4.74309 1395.22 20.2205C1396.02 39.2376 1399.67 58.0573 1397.83 77.1475C1393.51 121.955 1360.06 152.682 1330.48 181.295C1311.46 199.698 1294.09 213.734 1284.3 239.912C1272.71 270.851 1267.85 304.512 1260.11 336.636C1251.61 371.913 1241.79 408.608 1223.23 439.68C1206.71 467.342 1186.62 479.747 1156.55 472.294C1109.64 460.679 1063.41 432.065 1021.77 405.595C979.393 378.664 937.74 348.383 902.62 311.365C883.659 291.375 870.718 267.904 853.879 246.429C832.698 219.469 784.783 229.679 756.306 231.961C709.036 235.75 560.295 264.1 574.02 172.277C579.748 133.95 602.309 98.5784 618.808 64.7572C625.646 50.7211 635.543 33.8763 637.089 17.7922C638.775 0.274527 623.642 -16.3655 613.842 -28.8144Z" stroke="white" stroke-width="2"/>
<path fill-rule="evenodd" clip-rule="evenodd" d="M631.052 -25.3063C606.143 -62.7822 576.332 -98.1871 554.959 -138.663C541.094 -164.877 527.478 -199.901 545.364 -227.637C565.552 -258.936 610.066 -266.232 642.775 -270.221C676.474 -274.326 716.705 -277.78 744.248 -301.513C753.011 -309.072 760.235 -319.267 761.579 -331.473C762.876 -343.182 759.216 -354.891 760.429 -366.812C763.146 -393.582 778.53 -415.638 798.364 -431.636C857.035 -478.962 944.359 -489.485 1015.15 -490.722C1050.58 -491.337 1087.05 -488.109 1122.71 -485.797C1168.98 -482.797 1215.33 -476.357 1259.46 -460.835C1353.29 -427.845 1416.19 -354.679 1460.11 -263.634C1473.94 -234.977 1484.52 -203.97 1506.18 -180.94C1517.35 -169.048 1514.91 -160.508 1503.49 -149.663C1485.64 -132.714 1463.86 -119.761 1444.05 -105.615C1415.87 -85.4975 1387.08 -65.0801 1362.16 -40.9816C1344.98 -24.3696 1332.79 -8.3649 1329.09 16.5459C1326.44 34.3069 1327.06 52.4045 1325.47 70.2752C1322.45 104.224 1312.1 137.916 1293.78 166.076C1279.22 188.396 1261.89 208.682 1243.97 228.024C1220.69 253.205 1200.99 278.789 1183.31 308.677C1159.86 348.238 1126.92 421.214 1071.69 401.902C1010.78 380.591 953.69 326.445 914.611 273.982C901.487 256.367 890.714 234.764 873.015 221.774C846.518 202.359 819.633 203.04 788.118 203.121C740.934 203.23 638.262 214.039 637.152 139.453C636.716 109.903 648.834 81.9622 654.636 53.5388C661.181 21.7051 648.064 0.233831 631.052 -25.3063Z" stroke="white" stroke-width="2"/>
<path fill-rule="evenodd" clip-rule="evenodd" d="M649.602 -21.9656C624.964 -70.8089 569.714 -151.069 611.736 -205.382C633.932 -234.086 673.193 -244.872 706.127 -251.3C732.631 -256.5 764.595 -258.452 784.62 -280.494C799.34 -296.699 792.805 -320.284 798.445 -340.57C805.444 -365.719 821.509 -386.298 841.25 -401.765C896.416 -444.992 973.119 -458.257 1039.48 -461.08C1108.4 -464.005 1184.34 -450.323 1249.2 -424.003C1330.06 -391.176 1390.65 -329.015 1433.01 -250.298C1440.83 -235.768 1447.94 -220.856 1455.44 -206.15C1460.48 -196.285 1467.96 -186.741 1471.94 -176.364C1478.55 -159.062 1470.76 -144.919 1458.26 -133.642C1440.28 -117.407 1418.19 -105.853 1397.69 -93.6693C1369.66 -76.9957 1341.01 -60.6219 1314.94 -41.0597C1297.41 -27.8964 1279.07 -13.7165 1272.8 9.12189C1268.52 24.6985 1267.64 41.1966 1267.79 57.329C1268.12 91.9193 1266.4 119.891 1251.1 151.571C1225.92 203.581 1187.2 250.348 1146.3 289.26C1114.19 319.799 1063.4 367.238 1016.62 346.82C974.659 328.538 950.111 284.777 922.462 249.397C909.019 232.197 893.919 216.488 876.175 204.254C853.805 188.831 832.746 182.359 806.242 179.836C761.633 175.587 694.37 174.483 680.58 118.027C675.489 97.192 678.395 75.6114 675.725 54.5062C672.236 26.5999 662.032 2.67184 649.602 -21.9656Z" stroke="white" stroke-width="2"/>
<path fill-rule="evenodd" clip-rule="evenodd" d="M675.225 -20.1556C657.68 -73.5996 634.631 -140.954 677.006 -188.453C697.532 -211.463 726.403 -224.327 754.346 -233.939C774.359 -240.828 806.135 -242.856 818.404 -264.036C827.416 -279.623 828.664 -301.125 836.816 -317.824C848.018 -340.783 864.987 -359.694 884.896 -374.497C936.761 -413.072 1004.31 -427.978 1065.92 -432.246C1199.77 -441.507 1335.97 -367.747 1407.6 -246.392C1428.96 -210.219 1456.53 -171.717 1422.01 -134.76C1384.33 -94.4429 1327.56 -75.5544 1282.59 -46.9069C1265.41 -35.9692 1243.51 -22.8205 1233.92 -3.01691C1228.15 8.8872 1227.76 23.8222 1227.49 36.927C1226.8 70.3039 1224.17 100.32 1211.45 131.464C1191.81 179.593 1160.48 223.996 1124.98 260.367C1094.03 292.082 1049.88 329.354 1004.92 306.49C970.443 288.919 948.58 251.626 921.795 224.135C891.987 193.518 855.123 172.887 814.64 162.806C775.26 153.025 732.067 146.429 711.313 104.874C704.193 90.62 696.755 72.1635 694.087 56.3865C689.778 30.3737 683.47 4.77501 675.225 -20.1556Z" stroke="white" stroke-width="2"/>
<path fill-rule="evenodd" clip-rule="evenodd" d="M703.793 -19.7812C695.676 -73.7483 694.774 -130.021 732.485 -172.555C750.086 -192.398 772.334 -206.496 794.831 -219.268C811.384 -228.667 828.478 -236.594 840.84 -252.002C852.294 -266.267 861 -282.831 872.058 -297.471C886.645 -316.871 904.099 -333.664 923.749 -347.207C973.004 -381.089 1032.92 -396.936 1090.25 -402.433C1117.99 -405.105 1148.1 -406.495 1175.66 -399.212C1202.28 -392.186 1228.6 -381.075 1253.07 -368.119C1305.1 -340.605 1350.2 -300.311 1382.88 -249.366C1405.3 -214.423 1417.42 -180.445 1388.39 -144.997C1355.67 -105.039 1304.36 -82.9929 1262.07 -57.0597C1233.06 -39.2732 1200.56 -21.838 1195.14 15.9602C1190.82 46.0363 1187.32 74.5825 1176.16 103.012C1159.54 144.945 1135.12 182.931 1104.33 214.715C1076.17 243.672 1040.55 268.243 1000.27 252.777C968.356 240.502 943.596 213.003 915.715 193.342C884.643 171.384 850.504 159.277 814.554 149.542C782.247 140.759 751.827 127.261 730.945 98.6053C726.672 92.7496 722.183 86.3743 718.888 79.8233C714.684 71.4644 715.01 63.1787 714.185 53.8096C712.034 29.0842 707.462 4.64412 703.793 -19.7812Z" stroke="white" stroke-width="2"/>
<path fill-rule="evenodd" clip-rule="evenodd" d="M735.287 -24.1922C735.98 -75.4529 747.664 -123.898 779.665 -163.847C793.346 -180.936 809.683 -195.012 824.737 -210.672C836.858 -223.297 848.313 -235.027 862.251 -245.43C895.313 -270.063 922.182 -301.94 957.318 -323.875C1004.22 -353.201 1057.95 -369.41 1111.26 -375.891C1137.29 -379.058 1164.18 -380.165 1190.51 -376.588C1213.13 -373.516 1234.79 -362.731 1254.89 -351.698C1294.27 -330.085 1332.52 -299.367 1358.09 -260.503C1414.47 -174.822 1303.31 -112.528 1246.26 -76.0468C1220.02 -59.2653 1179.92 -39.8299 1169.18 -6.5896C1161.49 17.1566 1156.81 41.306 1146.92 64.3191C1120.34 126.122 1066.38 198.813 994.484 189.135C963.718 185 935.676 168.204 906.955 156.929C877.381 145.316 846.857 138.842 816.118 131.738C787.39 125.103 764.493 115.66 745.937 90.3454C737.069 78.256 737.852 63.7839 737.062 48.9526C735.772 24.5906 734.975 0.0892463 735.287 -24.1922Z" stroke="white" stroke-width="2"/>
<path fill-rule="evenodd" clip-rule="evenodd" d="M763.97 -30.754C775.521 -108.127 818.421 -192.597 881.502 -237.532C955.703 -290.39 1036.09 -334.9 1124.74 -347.695C1165.85 -353.629 1210.87 -356.548 1249.65 -337.146C1279.17 -322.39 1313.46 -300.332 1329.7 -269.312C1369.44 -193.439 1281.05 -133.038 1230.68 -97.9364C1203.57 -79.0393 1169.05 -60.6251 1148.62 -33.0293C1136.76 -17.0294 1130.71 4.13566 1121.13 21.7086C1092.12 74.9613 1044.37 117.913 984.887 125.595C957.383 129.143 929.678 124.754 902.383 121.264C874.442 117.694 846.154 115.755 818.387 110.773C796.221 106.793 770.099 100.055 761.936 75.0272C751.641 43.4881 759.256 0.843522 763.97 -30.754Z" stroke="white" stroke-width="2"/>
<path fill-rule="evenodd" clip-rule="evenodd" d="M792.095 -43.1853C808.942 -115.929 844.615 -186.887 904.586 -230.314C936.389 -253.341 973.307 -269.237 1008.75 -284.943C1048.93 -302.743 1090.91 -316.56 1133.78 -323.413C1187.16 -331.95 1273.62 -339.646 1301.51 -275.469C1329.19 -211.767 1259.24 -155.388 1217.87 -123.259C1191.35 -102.677 1162.97 -83.7858 1137.63 -61.2853C1123.89 -49.0868 1113.31 -34.992 1101.68 -20.6848C1069.54 18.9566 1023.73 50.3387 977.032 67.0915C931.774 83.3317 875.786 90.5219 828.012 85.1549C807.399 82.8484 792.665 75.0651 786.431 52.938C777.792 22.1783 785.131 -13.1358 792.095 -43.1853Z" stroke="white" stroke-width="2"/>
<path fill-rule="evenodd" clip-rule="evenodd" d="M820.038 -62.7737C836.773 -126.822 872.871 -185.322 925.525 -223.762C984.547 -266.855 1060.55 -290.8 1130.4 -302.977C1167.53 -309.445 1247.99 -326.981 1266.92 -276.793C1285.85 -226.606 1231.13 -177.148 1199.64 -149.922C1161.43 -116.928 1120.22 -85.071 1079.06 -55.4676C1043.31 -29.7286 1005.15 -3.41362 966.418 16.463C944.574 27.7389 921.819 36.9455 898.422 43.9738C881.097 49.1362 859.067 56.836 840.904 52.9933C795.09 43.2884 812.034 -32.1494 820.038 -62.7737Z" stroke="white" stroke-width="2"/>
<path fill-rule="evenodd" clip-rule="evenodd" d="M854.537 -81.96C891.257 -203.083 1007.6 -262.654 1119.61 -283.418C1145.64 -288.237 1218.61 -305.615 1233.16 -268.614C1247.26 -232.74 1202.42 -190.196 1181.43 -170.04C1116.38 -107.58 1036.01 -61.2694 959.854 -15.3902C936.083 -1.06983 893.211 30.0063 863.724 15.6714C831.708 0.0784252 846.93 -56.8446 854.537 -81.96Z" stroke="white" stroke-width="2"/>
<path fill-rule="evenodd" clip-rule="evenodd" d="M-134.619 44.5326C-135.499 -12.6122 -164.277 -72.0019 -150.065 -130.229C-138.394 -178.051 -79.6387 -182.043 -44.3911 -203.709C-16.3814 -220.922 -0.485652 -251.414 14.662 -280.67C28.2721 -306.936 40.4969 -333.991 54.8342 -359.825C64.1154 -376.526 80.0527 -409.321 100.18 -409.913C119.449 -410.484 137.118 -384.927 148.311 -369.82C162.904 -350.129 175.843 -329.135 190.014 -309.129C213.895 -275.383 242.549 -250.405 275.359 -226.765C312.696 -199.865 350.649 -173.885 389.219 -148.824C417.617 -130.317 446.208 -111.949 473.504 -91.6133C490.626 -78.8535 528.416 -54.9133 528.589 -31.39C528.672 -20.1658 518.594 -7.73504 511.8 1.23702C500.302 16.4245 487.198 30.3103 474.052 43.8964C449.567 69.2039 424.044 93.3634 398.798 117.815C366.03 149.55 334.73 180.766 305.924 216.793C276.141 254.086 247.688 292.606 218.654 330.6C198.99 356.339 179.347 385.244 150.984 401.039C115.46 420.782 86.3001 399.964 50.3737 399.723C19.4688 399.511 21.7476 323.932 17.8204 302.916C13.8794 281.645 5.19387 261.844 1.82771 240.521C-2.36958 213.905 -2.42501 186.674 -3.45702 159.773C-4.71067 126.868 -5.20935 95.5425 -38.5315 82.9947C-57.4955 75.8653 -78.011 74.3663 -97.64 70.096C-110.357 67.3247 -134.342 62.5864 -134.619 44.5326Z" stroke="white" stroke-width="2"/>
<path fill-rule="evenodd" clip-rule="evenodd" d="M-119.419 34.3721C-122.659 -13.5294 -141.797 -74.8398 -123.699 -124.286C-108.237 -166.542 -59.8814 -172.019 -27.3203 -194.216C-0.440488 -212.524 11.5254 -242.484 24.9618 -271.916C35.7415 -295.526 46.1952 -319.364 58.4316 -342.219C67.4493 -359.063 81.2188 -387.499 99.9687 -390.985C116.825 -394.119 134.902 -369.015 144.364 -356.243C158.168 -337.598 169.974 -317.35 182.169 -297.526C203.597 -262.703 225.537 -231.389 256.898 -205.809C288.398 -180.119 322.86 -160.91 357.689 -140.918C384.937 -125.275 412.045 -109.179 437.933 -91.1194C457.217 -77.6739 484.944 -60.4642 493.767 -36.4878C500.752 -17.5206 465.326 13.9548 454.88 25.0642C433.376 47.9054 410.589 69.3479 387.76 90.6586C359.93 116.627 331.212 139.336 306.635 168.959C262.677 221.921 225.933 287.874 169.371 327.237C135.256 350.979 97.2912 357.05 59.3472 353.498C44.3223 352.092 40.7152 329.705 38.8214 316.647C35.6722 294.956 35.2767 272.891 32.8558 251.111C30.5875 230.723 25.5514 211.353 21.4935 191.361C17.3869 171.105 16.2354 150.351 13.211 129.955C11.3381 117.293 9.48597 102.559 1.29369 92.3796C-7.183 81.8415 -21.1675 77.4255 -33.39 74.0714C-56.3436 67.832 -117.13 68.1762 -119.419 34.3721Z" stroke="white" stroke-width="2"/>
<path fill-rule="evenodd" clip-rule="evenodd" d="M-99.8671 14.3173C-105.315 -29.6527 -112.942 -84.4177 -90.7477 -124.928C-72.6061 -158.052 -33.9145 -165.197 -6.27865 -186.78C16.7073 -204.728 25.3895 -233.273 36.7991 -259.8C46.1615 -281.558 55.5724 -303.412 66.9196 -324.117C75.5254 -339.819 86.6159 -361.11 103.703 -366.587C118.312 -371.268 134.815 -350.3 142.915 -339.863C156.705 -322.076 167.948 -302.146 179.115 -282.48C197.381 -250.3 214.19 -215.925 240.188 -189.75C265.451 -164.349 295.46 -149.356 326.032 -132.498C349.448 -119.582 372.718 -106.169 394.781 -90.766C411.722 -78.947 432.716 -64.9413 441.544 -45.2748C449.179 -28.3143 429.579 -8.23822 419.787 3.72699C403.616 23.474 385.669 41.59 367.971 59.7792C348.872 79.4018 327.718 97.5032 309.236 117.609C270.371 159.918 239.321 206.763 191.42 239.177C160.397 260.174 118.652 279.249 81.9798 275.818C55.6071 273.346 57.3421 211.75 54.809 192.069C50.6448 159.889 42.6011 126.078 29.8242 96.4354C18.8518 71.035 -7.2225 63.2019 -31.2078 57.5046C-46.2333 53.9282 -61.9806 51.9974 -76.5134 46.4683C-93.3364 40.0615 -97.5838 32.7478 -99.8671 14.3173Z" stroke="white" stroke-width="2"/>
<path fill-rule="evenodd" clip-rule="evenodd" d="M-81.63 -6.29297C-84.8738 -43.4674 -84.1445 -87.4267 -63.1326 -119.584C-44.7185 -147.751 -11.933 -155.167 11.385 -177.355C29.5837 -194.666 36.7312 -222.892 46.5183 -245.785C58.4794 -273.775 75.2403 -325.473 105.414 -336.007C133.483 -345.799 162.837 -283.245 172.999 -264.592C189.087 -235.068 202.541 -202.691 222.053 -175.426C238.855 -151.954 261.368 -138.978 285.262 -125.034C315.728 -107.224 361.981 -86.1064 378.27 -51.3966C390.412 -25.533 350.93 12.9177 337.448 30.8374C323.347 49.5566 312.727 71.7454 298.175 89.8045C275.211 118.301 238.001 141.246 207.278 158.755C177.41 175.787 138.623 194.638 104.74 193.516C82.4712 192.782 78.2341 156.488 73.483 138.759C66.6758 113.556 57.6251 90.9707 38.183 73.8286C18.3936 56.3783 -4.93136 48.1556 -29.451 40.9599C-42.0373 37.2923 -56.3949 34.4316 -67.6545 27.0232C-80.0949 18.9619 -80.3797 7.99584 -81.63 -6.29297Z" stroke="white" stroke-width="2"/>
<path fill-rule="evenodd" clip-rule="evenodd" d="M-59.4023 -27.7167C-59.2223 -59.8326 -52.2641 -94.0798 -31.6319 -118.853C-14.4476 -139.487 12.4504 -146.385 28.9008 -167.479C41.931 -184.18 48.5637 -207.624 57.2874 -227.018C67.9566 -250.784 83.0431 -292.301 109.574 -300.549C135.468 -308.578 158.371 -262.849 168.3 -244.755C182.839 -218.222 194.609 -190.099 209.28 -163.64C220.773 -142.881 234.828 -129.502 253.543 -116.123C275.511 -100.408 306.162 -82.9998 317.897 -57.0005C326.358 -38.1762 305.878 -8.09679 298.442 8.4867C293.457 19.6251 288.894 30.9387 286.388 43.0113C284.436 52.4125 284.242 61.113 278.585 69.1858C264.343 89.4918 233.118 92.1414 211.932 98.8346C183.795 107.718 153.94 117.812 124.494 119.739C106.396 120.944 97.1602 103.345 86.8303 90.9662C74.624 76.3316 57.3428 65.8064 42.2494 54.7629C22.3304 40.1647 0.652675 31.0846 -21.7727 21.7856C-31.8881 17.5887 -43.7689 13.472 -51.6063 5.12914C-59.79 -3.52026 -59.4646 -16.1257 -59.4023 -27.7167Z" stroke="white" stroke-width="2"/>
<path fill-rule="evenodd" clip-rule="evenodd" d="M-36.0653 -46.7878C-32.4891 -73.7608 -21.3447 -99.5407 -2.52113 -118.608C11.9084 -133.248 31.0716 -141.49 42.6527 -159.079C53.4436 -175.475 60.9634 -194.118 69.8761 -211.649C79.3087 -230.182 93.3224 -261.159 115.078 -266.203C138.524 -271.634 156.585 -240.386 166.586 -223.068C179.221 -201.182 188.819 -177.634 200.116 -154.995C208.627 -138.12 219.483 -122.687 232.323 -109.21C245.789 -95.0025 264.051 -81.3952 270.864 -61.859C276.887 -44.5553 265.618 -23.621 263.629 -6.07573C261.501 12.67 265.23 32.3599 253.434 48.4559C229.107 81.6507 168.055 75.4948 133.153 76.2048C98.7145 76.9368 71.0266 56.6247 43.1586 37.3007C24.7509 24.5425 5.58076 13.7387 -13.2913 1.85149C-32.5307 -10.2772 -39.2119 -23.05 -36.0653 -46.7878Z" stroke="white" stroke-width="2"/>
<path fill-rule="evenodd" clip-rule="evenodd" d="M-14.3756 -62.2232C-3.80005 -101.299 29.2305 -122.068 52.8436 -151.599C72.164 -175.774 86.6508 -225.839 119.189 -232.461C156.131 -239.978 178.246 -173.642 191.089 -148.046C205.34 -119.658 230.722 -96.5668 241.276 -66.5161C246.824 -50.7435 242.06 -36.0259 239.106 -20.2607C235.867 -2.94966 233.433 14.7496 222.254 28.6834C200.25 56.1041 157.275 55.9136 126.325 56.6682C94.286 57.4521 65.9434 38.6612 40.4164 19.907C13.3428 0.0466056 -25.2078 -22.1507 -14.3756 -62.2232Z" stroke="white" stroke-width="2"/>
<path fill-rule="evenodd" clip-rule="evenodd" d="M3.33745 -72.8214C15.2542 -100.662 40.2961 -123.296 60.616 -144.662C77.576 -162.475 95.8213 -198.333 121.68 -200.889C152.073 -203.904 170.493 -165.614 182.452 -142.135C194.222 -119.065 211.182 -94.705 217.699 -69.3842C224.495 -43.0074 206.397 -7.48386 189.136 11.1809C169.885 31.9939 138.389 39.6841 111.363 38.8539C83.0664 38.0092 57.1024 20.8082 35.6719 2.96632C12.7605 -16.1062 -10.5212 -40.5022 3.33745 -72.8214Z" stroke="white" stroke-width="2"/>
<path fill-rule="evenodd" clip-rule="evenodd" d="M19.7741 -78.0618C31.157 -101.218 50.8884 -120.806 69.0816 -138.279C83.1215 -151.768 103.839 -174.705 124.095 -175.267C146.378 -175.887 165.263 -156.634 174.122 -136.9C182.855 -117.436 192.057 -93.0322 193.364 -71.6783C196.203 -25.1768 138.407 26.9131 95.0079 22.6744C53.86 18.6546 -2.92191 -31.9251 19.7741 -78.0618Z" stroke="white" stroke-width="2"/>
<path fill-rule="evenodd" clip-rule="evenodd" d="M34.973 -80.6136C50.6764 -110.784 88.8203 -153.796 124.134 -154.817C164.668 -155.985 174.843 -108.121 169.56 -73.434C164.193 -38.0322 117.46 13.2099 80.1964 6.28564C43.8276 -0.47075 16.3623 -44.8324 34.973 -80.6136Z" stroke="white" stroke-width="2"/>
<path fill-rule="evenodd" clip-rule="evenodd" d="M1265.59 941.482C1209.1 977.646 1145.24 1007.5 1085.02 1037.84C997.018 1082.17 907.716 1125.32 815.246 1158.34C765.669 1176.04 701.427 1201.57 648.23 1187.7C628.78 1182.63 611.044 1167.3 593.605 1157.33C569.558 1143.6 545.158 1130.54 520.799 1117.45C471.936 1091.22 422.921 1065.25 374.897 1037.34C351.772 1023.9 329.334 1006.96 305.26 995.494C291.191 988.787 274.356 991.925 259.323 992.349C224.501 993.336 189.7 995.209 154.899 996.804C112.332 998.749 69.6677 1000.82 27.0521 1000.05C7.83139 999.7 -39.2426 1003.3 -49.8237 985.832C-55.5164 976.425 -42.0994 959.462 -35.8798 951.613C-24.4597 937.189 -11.3338 924.19 1.61869 911.324C31.573 881.567 63.3856 853.23 90.0117 819.992C103.692 802.905 121.616 782.028 112.685 758.702C103.671 735.141 88.0563 714.74 78.5291 691.26C67.5598 664.239 63.0111 636.121 57.8315 607.47C53.9971 586.293 45.0663 567.531 36.6694 548.008C27.3918 526.43 17.7814 504.668 11.3399 481.912C7.08247 466.88 0.21105 439.838 15.105 430.321C36.2672 416.789 75.9497 427.746 100.073 431.733C133.411 437.234 166.506 444.241 199.754 450.276C223.891 454.665 248.111 459.478 272.65 459.99C312.208 460.816 351.897 457.956 391.351 455.294C464.406 450.364 536.938 443.678 610.239 443.678C674.459 443.678 822.867 522.07 857.605 535.873C926.944 563.427 998.127 589.548 1063.74 626.21C1081.49 636.136 1108.81 649.361 1118.15 669.791C1123.91 682.38 1121.27 689.658 1134.86 697.77C1153.4 708.837 1177.15 713.182 1197.68 718.134C1230.73 726.107 1264.04 732.859 1297.25 740.078C1364.41 754.642 1431.11 771.115 1498 786.966C1518.22 791.757 1542.68 792.818 1561.95 801.259C1574.38 806.679 1573.09 813.504 1563.47 821.74C1546.6 836.194 1522.96 844.218 1503.03 852.462C1473.83 864.539 1444.16 875.313 1414.46 885.934C1384.77 896.555 1354.93 906.847 1325.23 917.49C1305.6 924.497 1283.23 930.196 1265.59 941.482Z" stroke="white" stroke-width="2"/>
<path fill-rule="evenodd" clip-rule="evenodd" d="M1219.11 933.527C1159.35 969.765 1093.02 998.633 1029.08 1026.8C947.242 1062.87 863.553 1096.67 777.326 1119.22C726.697 1132.45 666.963 1147.06 615.232 1131.89C596.777 1126.47 582.99 1114.31 567.17 1103.57C549.138 1091.31 530.413 1080.08 511.687 1069.03C473.141 1046.28 434.187 1024.3 394.826 1003.1C373.979 991.828 351.03 976.731 327.477 972.819C308.752 969.706 287.481 974.211 268.672 975.523C234.8 977.881 200.935 980.313 167.048 982.379C127.947 984.76 88.7342 986.957 49.5494 986.576C27.71 986.364 -9.78269 989.873 -25.2277 974.98C-38.7032 961.986 10.3576 914.987 18.9852 906.058C45.9291 878.178 74.267 851.631 99.3453 821.818C114.166 804.237 132.212 782.855 138.461 759.554C143.78 739.695 133.516 717.068 127.454 698.711C119.874 675.717 113.757 651.881 104.949 629.37C97.1052 609.314 84.6215 591.448 73.6567 573.216C61.5961 553.159 49.3829 532.773 40.4293 510.893C34.9435 497.429 25.8651 474.882 36.7675 462.048C49.3621 447.251 88.1863 456.921 104.145 459.031C136.519 463.367 168.643 469.813 200.796 475.585C254.198 485.167 305.111 493.547 359.491 491.54C430.308 488.917 501.055 482.749 571.859 479.336C598.005 478.061 624.567 475.497 650.734 476.882C665.736 477.68 677.158 482.515 685.883 493.422C697.798 508.307 725.241 516.548 744.327 525.089C774.087 538.399 804.221 550.778 834.272 563.319C900.241 590.862 967.479 617.408 1030.04 653.031C1049.84 664.297 1072.5 676.86 1087.14 695.473C1095.31 705.853 1093.25 715.852 1098.24 726.883C1104.84 741.395 1126.55 747.943 1139.53 752.69C1164.57 761.861 1190.64 768.007 1216.51 773.765C1275.04 786.789 1333.72 795.352 1393.2 801.659C1407.14 803.124 1462.03 808.2 1433.2 832.667C1401.35 859.704 1355.35 872.955 1317.85 888.192C1284.07 901.89 1250.26 914.636 1219.11 933.527Z" stroke="white" stroke-width="2"/>
<path fill-rule="evenodd" clip-rule="evenodd" d="M1136.53 926.828C1080.36 958.708 1018.14 982.492 957.646 1005.25C884.24 1032.85 808.993 1057.47 732.004 1071.25C683.64 1079.9 630.319 1086.55 582.282 1072.17C549.477 1062.36 524.101 1035.82 495.288 1017.57C466.476 999.314 436.496 982.178 405.622 967.894C386.459 959.03 365.846 950.1 344.525 951.27C292.683 954.108 240.903 960.873 189.005 964.157C154.673 966.351 120.271 968.157 85.835 967.616C65.069 967.294 36.5408 968.611 18.1562 957.084C-2.16546 944.337 106.039 835.494 116.265 823.244C141.905 792.526 172.954 751.759 167.996 708.075C163.254 666.313 142.704 635.135 119.459 602.413C106.268 583.8 63.965 534.074 79.6419 509.866C88.5982 496.028 118.119 500.819 132.144 501.762C159.783 503.62 187.27 507.613 214.763 511.08C254.851 516.104 296.043 523.864 336.305 526.139C364.34 527.719 392.541 525.605 420.625 525.561C460.894 525.503 501.162 525.824 541.43 526.205C575.242 526.526 609.338 526.205 643.032 529.628C663.978 531.734 679.877 536.466 694.902 549.835C707.975 561.464 727.7 568.273 744.362 575.667C771.884 587.874 799.766 599.188 827.558 610.685C885.746 634.762 944.6 658.334 1000.3 688.423C1025.72 702.151 1068.47 721.371 1074.43 754.656C1076.58 766.657 1078.17 771.843 1089.28 778.667C1105.04 788.35 1123.93 792.716 1141.62 796.512C1182.86 805.362 1225.29 804.038 1266.46 812.785C1283.23 816.391 1305.12 824.172 1285.98 841.989C1263.64 862.825 1231.13 874.279 1204.37 887.151C1191.02 893.572 1177.25 899.584 1164.57 907.424C1154.83 913.465 1146.49 921.211 1136.53 926.828Z" stroke="white" stroke-width="2"/>
<path fill-rule="evenodd" clip-rule="evenodd" d="M1030.15 916.876C978.254 942.77 921.898 961.596 866.554 978.568C805.082 997.395 742.127 1012.99 678.34 1019.62C634.295 1024.22 587.366 1025.58 544.617 1011.51C517.583 1002.61 499.255 983.89 475.992 968.194C440.882 944.471 402.895 925.674 360.715 930.248C313.426 935.365 265.982 939.205 218.383 941.766C189.671 943.312 160.848 944.471 132.102 943.393C113.927 942.719 90.5108 941.582 74.6993 932.895C53.5432 921.26 133.01 832.729 142.916 819.826C167.482 787.826 185.491 754.249 196.014 714.602C204.595 682.249 187.065 656.817 168.98 632.617C157.736 617.588 121.406 579.789 132.781 560.273C139.02 549.511 159.58 550.068 170.622 549.518C191.668 548.477 212.803 549.562 233.848 550.039C264.923 550.772 298.002 545.735 328.814 549.79C397.1 558.763 465.213 566.534 533.921 572.685C571.797 576.072 609.901 579.151 647.438 585.683C660.913 588.029 674.832 590.514 687.601 595.822C695.815 599.231 700.293 605.037 707.225 609.803C740.276 632.485 783.42 644.157 820.644 658.694C870.131 678.019 919.881 697.044 968.05 719.873C993.386 731.881 1028.77 745.679 1046.21 770.187C1051.48 777.591 1049.23 783.515 1052.54 790.633C1056.36 798.844 1067.94 801.293 1075.42 803.58C1092.39 808.778 1163.45 816.637 1130.71 847.127C1115.08 861.651 1095.17 870.968 1077.56 882.383C1071.18 886.518 1064.96 890.675 1059.65 896.254C1050.75 905.608 1041.99 910.945 1030.15 916.876Z" stroke="white" stroke-width="2"/>
</g>
</g>
<defs>
<clipPath id="clip0_1222_18935">
<rect width="1600" height="561" fill="white"/>
</clipPath>
</defs>
</svg>
