<svg width="1600" height="804" viewBox="0 0 1600 804" fill="none" xmlns="http://www.w3.org/2000/svg">
<g clip-path="url(#clip0_1222_18534)">
<rect width="1600" height="804" fill="#F9F9F7"/>
<path fill-rule="evenodd" clip-rule="evenodd" d="M547.169 361.404C547.074 339.966 509.256 315.858 493.102 303.429C461.161 278.846 427.94 256.145 395.027 233.082C362.114 210.018 329.113 187.017 297.728 161.697C277.35 145.26 253.406 126.748 239.586 103.278C210.144 53.262 302.971 60.6894 327.016 59.5953C388.185 56.8007 458.347 58.0761 515.684 32.0303C549.912 16.4816 563.56 -9.59552 556.209 -47.6014C553.839 -59.9616 546.825 -74.1849 552.767 -86.2262C559.111 -99.0865 573.708 -106.508 585.822 -111.484C630.008 -129.615 680.811 -131.716 727.562 -133.991C777.973 -136.492 828.859 -135.761 878.916 -135.955C900.141 -136.036 922.308 -144.082 942.52 -150.622C969.017 -159.193 995.201 -168.821 1021.48 -178.13C1079.29 -198.562 1138.86 -220.081 1200.02 -225.27C1238.33 -228.522 1280.19 -224.126 1309.95 -195.849C1324.89 -181.65 1332.71 -160.544 1341.34 -141.794C1351.8 -119.143 1361.84 -96.2731 1372.97 -73.9785C1408.83 -2.17441 1460.02 67.9917 1543.11 71.5179C1555.68 72.0493 1568.03 70.3175 1580.54 69.9924C1588.51 69.7923 1595.6 71.8243 1598.56 80.6208C1606.01 102.684 1582.6 137.514 1573.01 155.019C1551.99 193.338 1528.3 229.937 1506.1 267.487C1491.42 292.319 1466 326.255 1465.73 356.427C1465.49 383.311 1499.38 402.742 1517.83 415.984C1535.11 428.382 1566.43 445.731 1568.33 470.951C1569.24 483.18 1561.6 493.315 1553.62 501.18C1539.64 514.934 1523.52 524.637 1510.94 540.33C1490.31 566.075 1473.07 601.499 1475.87 636.192C1477.82 660.23 1490.81 675.973 1507.35 691.022C1514.29 697.349 1519.93 701.825 1520.3 712.097C1520.89 728.408 1514.84 745.67 1509.85 760.794C1492.01 814.917 1466.67 867.253 1438.48 916.118C1424.39 940.539 1409.17 964.884 1390.49 985.715C1378.26 999.395 1361.76 1015.67 1343.1 1015.66C1321.5 1015.66 1298.64 1007.43 1277.64 1001.28C1238.42 989.779 1199.67 976.487 1161.07 962.852C1071.82 931.304 983.408 897.202 895.834 860.544C834.149 834.68 771.155 808.778 713.161 774.392C701.851 767.639 691.175 759.766 681.279 750.878C670.705 741.544 657.583 737.368 644.278 734.254C561.7 714.929 471.231 729.765 388.309 739.068C367.262 741.425 346.215 743.795 325.108 745.445C306.963 746.864 285.241 750.934 267.605 744.82C232.856 732.785 263.234 688.427 276.077 670.352C321.293 606.713 379.631 552.871 433.704 497.904C459.413 471.727 485.318 445.618 509.63 417.959C522.289 403.58 547.252 380.197 547.169 361.404Z" stroke="white" stroke-width="2"/>
<path fill-rule="evenodd" clip-rule="evenodd" d="M562.749 357.79C548.89 335.105 524.574 318.338 504.389 302.559C475.343 279.843 445.383 258.39 415.874 236.317C387.971 215.445 360.009 194.335 334.17 170.632C318.413 156.177 298.644 138.892 291.181 117.513C274.991 71.1751 362.084 78.2055 383.585 76.9932C437.037 73.9935 497.637 73.3061 547.088 48.9091C577.966 33.6735 590.652 8.40788 584.066 -26.6691C581.79 -38.8051 577.688 -49.1663 582.881 -61.2398C588.885 -75.2131 602.697 -83.9245 615.359 -90.0738C655.023 -109.34 701.907 -113.433 744.902 -116.839C789.319 -120.357 835.599 -122.838 878.588 -120.264C895.779 -119.239 915.566 -125.057 932.579 -129.519C958.756 -136.393 984.667 -144.323 1010.71 -151.697C1063.65 -166.696 1117.96 -181.144 1173.03 -182.787C1212.79 -183.975 1254.24 -177.538 1287.32 -152.66C1320.84 -127.432 1335.72 -88.324 1354.31 -51.1473C1386.41 13.126 1429.78 91.2727 1504.05 104.852C1515.31 106.914 1526.14 105.796 1537.39 106.302C1543.18 106.558 1549.76 107.371 1552.7 113.389C1560.31 129.012 1539.44 157.577 1532.42 169.544C1513.01 202.615 1491.19 234.068 1470.85 266.501C1454.7 292.254 1434.22 320.869 1427.97 351.397C1420.39 388.442 1469.93 414.802 1487.35 440.886C1517.56 486.118 1460.33 511.89 1432.12 533.456C1399.73 558.215 1372.99 603.385 1402.03 641.692C1413.14 656.341 1426.81 665.071 1431.77 684.187C1439.53 714.083 1433.66 748.248 1427.36 777.801C1417.88 822.226 1402.87 866.171 1382.46 906.322C1367.85 935.069 1343.6 980.144 1308.08 976.764C1284.17 974.508 1259.87 966.265 1236.59 958.978C1201.73 948.073 1167.32 935.644 1133.08 922.733C1054.06 893.011 975.906 860.24 899.288 824.195C847.01 799.592 701.184 699.048 690.211 695.461C657.495 684.775 620.297 686.656 586.568 688.312C541.699 690.511 497.056 696.211 452.449 701.491C431.215 703.991 409.875 707.047 388.529 708.278C373.335 709.153 353.382 709.903 340.074 700.585C314.098 682.406 343.038 640.811 355.006 623.213C391.67 569.264 438.05 522.545 481.537 474.775C502.878 451.322 524.544 427.906 543.916 402.572C551.729 392.342 571.315 371.801 562.749 357.79Z" stroke="white" stroke-width="2"/>
<path fill-rule="evenodd" clip-rule="evenodd" d="M581.925 346.16C544.075 300.765 491.835 267.004 446.748 229.092C424.118 210.057 401.347 190.504 381.829 167.832C371.676 156.043 358.998 141.134 357.042 124.7C351.815 80.7371 430.312 86.6818 453.807 85.0128C499.231 81.7748 550.548 79.3182 591.758 56.8834C616.936 43.1688 629.336 20.659 624.63 -8.92693C622.543 -22.054 619.295 -33.2057 624.63 -46.0952C630.035 -59.1535 641.296 -68.3675 652.7 -75.2748C685.47 -95.1404 726.195 -101.491 763.091 -106.223C806.373 -111.735 849.981 -113.887 893.562 -112.662C931.732 -111.606 969.719 -123.489 1006.99 -131.321C1056.36 -141.692 1106.63 -150.749 1157.15 -149.38C1197.05 -148.293 1237.26 -139.747 1271.37 -117.038C1306.04 -93.909 1326.88 -59.2911 1345.66 -21.9352C1374.07 34.5361 1409.46 110.211 1471.77 131.658C1480.84 134.783 1489.28 135.127 1498.63 135.671C1503.17 135.933 1509.03 136.015 1511.28 141.009C1516.7 153.036 1496.67 176.352 1491.08 184.478C1473.24 210.42 1453.9 235.193 1435.62 260.79C1418.55 284.688 1399.96 309.592 1389.35 337.596C1372.48 382.197 1426.43 408.276 1424.91 450.776C1423.97 477.162 1400.02 496.084 1381.05 509.173C1357.7 525.269 1324.08 535.852 1312.39 565.226C1303.68 587.104 1317.34 599.837 1327.87 616.44C1345.69 644.569 1346.91 682.7 1345.05 715.262C1342.55 759.262 1332.78 803.913 1316.14 844.357C1308.6 862.691 1299.37 881.763 1285.77 896.002C1273.03 909.348 1260.98 912.768 1243.96 910.036C1191.85 901.66 1139.23 878.312 1089.26 857.459C1026.48 831.255 964.556 802.325 904.486 769.776C863.524 747.579 821.638 724.094 785.685 693.427C776.314 685.432 766.718 676.743 759.866 666.198C754.686 658.271 752.487 651.727 743.757 647.201C717.879 633.793 681.885 637.299 654.158 638.693C609.824 640.912 565.703 646.82 521.642 652.139C495.93 655.265 447.494 665.098 426.963 641.513C409.241 621.147 430.626 586.423 441.55 568.482C469.181 523.113 504.726 483.294 537.704 442.294C552.818 423.503 568.524 404.569 581.007 383.678C584.195 378.353 589.304 371.295 590.182 364.825C591.166 357.412 586.572 351.755 581.925 346.16Z" stroke="white" stroke-width="2"/>
<path fill-rule="evenodd" clip-rule="evenodd" d="M585.18 356.727C550.205 316.589 508.07 283.615 470.522 246.055C453.687 229.215 436.686 211.548 423.858 191.004C416.958 179.957 409.631 166.05 411.534 152.319C416.993 112.907 481.554 116.467 507.637 114.158C546.394 110.768 590.918 107.352 625.187 86.1009C647.636 72.1818 656.054 51.6252 651.863 25.1132C647.364 -3.32567 657.423 -23.9697 680.317 -39.8344C709.02 -59.7091 745.251 -67.8103 778.578 -73.5657C818.73 -80.4666 859.391 -83.5256 900.065 -82.7054C939.622 -81.9047 977.946 -88.8986 1017.24 -93.4466C1069.34 -99.4709 1123.11 -102.442 1174.63 -90.0935C1219.48 -79.3398 1259.99 -55.6428 1290.36 -18.9964C1322.08 19.2515 1337.78 67.44 1363.54 109.754C1379.6 136.147 1402 171.061 1432.02 181.32C1442.04 184.742 1460.28 180.126 1452.29 196.96C1447.71 206.588 1439.16 215.033 1432.4 222.903C1421.48 235.621 1410.2 247.988 1399.1 260.531C1375.44 287.269 1350.09 314.575 1332.36 346.236C1310.01 386.098 1343.23 416.776 1339.18 457.195C1337.01 478.946 1322.67 496.306 1307.51 509.943C1297.7 518.777 1286.96 526.428 1276 533.565C1264.55 541.022 1251.01 546.703 1241.03 556.343C1226.8 570.062 1232.98 586.302 1235.64 604.037C1240.34 635.205 1241.37 666.865 1238.71 698.299C1235.47 736.829 1227.85 776.459 1211.8 811.473C1205.56 825.104 1197.65 839.555 1185.91 848.695C1174.17 857.835 1162.02 857.209 1148.56 854.456C1108.65 846.324 1068.82 827.4 1030.96 809.465C983.571 787.013 937.114 761.921 892.75 733.375C862.126 713.67 831.402 692.381 805.781 665.663C798.33 657.887 791.24 649.56 785.508 640.264C781.572 633.89 779.461 625.663 773.759 620.871C755.916 605.914 720.093 610.38 699.168 611.25C657.406 612.983 616.302 621.222 574.593 623.223C551.83 624.318 516.179 627.071 499.462 606.621C483.742 587.397 497.98 557.118 507.376 538.595C525.842 502.174 550.65 469.725 572.885 435.869C582.026 421.937 592.044 407.361 597.966 391.453C603.23 377.277 594.143 367.017 585.18 356.727Z" stroke="white" stroke-width="2"/>
<path fill-rule="evenodd" clip-rule="evenodd" d="M593.783 357.385C565.944 322.065 532.384 290.712 504.343 254.818C487.93 233.797 459.665 198.459 472.358 168.824C486.284 136.259 534.824 135.372 562.882 132.749C596.276 129.625 635.493 125.359 664.073 105.025C673.111 98.5973 680.811 90.0891 684.075 78.8823C687.57 66.8884 683.749 56.3938 683.252 44.3874C682.209 19.2002 696.46 -1.02088 715.32 -14.9076C741.974 -34.5414 775.303 -43.8242 806.785 -50.2959C842.451 -57.5953 878.71 -61.1939 915.042 -61.0404C949.763 -60.9155 984.117 -61.7275 1018.87 -62.6645C1064.33 -63.9139 1110.42 -61.8962 1154.51 -49.1589C1197.95 -36.6028 1237.44 -13.071 1268.46 21.5427C1298.72 55.3193 1319.14 96.6045 1337.02 138.658C1347.16 162.527 1364.31 198.197 1388.51 210.253C1399.27 215.619 1409.83 215.251 1398.39 229.206C1383.98 246.778 1364.55 260.877 1347.86 275.907C1323.79 297.596 1299.1 319.71 1278.89 345.497C1265.99 361.964 1260.24 377.943 1261.12 399.263C1261.81 415.505 1264.93 431.578 1263.35 447.882C1259.66 486.15 1231.09 512.393 1205.84 536.831C1189.59 552.548 1174.75 564.536 1166.39 586.893C1156.5 613.317 1152.35 642.065 1145.74 669.501C1138.47 699.63 1130.09 730.97 1114.24 757.506C1100.13 781.132 1082.97 791.727 1057.29 785.361C1017.23 775.441 977.744 751.003 942.182 728.396C905.985 705.395 870.411 679.533 840.416 647.918C824.222 630.846 813.17 610.8 798.788 592.459C780.699 569.433 739.776 578.154 715.456 580.103C675.084 583.339 548.05 607.551 559.772 529.129C564.665 496.395 583.932 466.186 598.024 437.3C603.864 425.313 612.316 410.926 613.637 397.189C615.076 382.228 602.152 368.017 593.783 357.385Z" stroke="white" stroke-width="2"/>
<path fill-rule="evenodd" clip-rule="evenodd" d="M608.48 360.381C587.206 328.374 561.746 298.136 543.492 263.567C531.651 241.179 520.022 211.266 535.298 187.578C552.539 160.847 590.557 154.615 618.492 151.209C647.274 147.703 681.633 144.753 705.156 124.484C712.64 118.027 718.81 109.321 719.959 98.8958C721.066 88.8957 717.94 78.8956 718.976 68.7142C721.297 45.8514 734.435 27.0136 751.375 13.3509C801.483 -27.0684 876.063 -36.056 936.521 -37.1123C966.783 -37.6373 997.927 -34.881 1028.38 -32.906C1067.91 -30.3434 1107.49 -24.8434 1145.18 -11.5869C1225.32 16.5884 1279.03 79.0768 1316.55 156.834C1328.35 181.309 1337.39 207.791 1355.89 227.46C1365.43 237.616 1363.35 244.91 1353.6 254.173C1338.35 268.648 1319.75 279.711 1302.83 291.792C1278.76 308.974 1254.18 326.411 1232.89 346.993C1218.22 361.181 1207.8 374.85 1204.64 396.125C1202.39 411.294 1202.91 426.75 1201.56 442.013C1198.98 471.007 1190.14 499.782 1174.49 523.833C1162.05 542.895 1147.25 560.221 1131.95 576.74C1112.06 598.246 1095.24 620.097 1080.14 645.622C1060.11 679.41 1031.98 741.736 984.812 725.242C932.791 707.041 884.033 660.797 850.657 615.99C839.448 600.946 830.247 582.496 815.131 571.402C792.502 554.821 769.54 555.402 742.624 555.471C702.326 555.564 614.638 564.796 613.69 501.095C613.317 475.857 623.667 451.994 628.623 427.719C634.212 400.531 623.01 382.193 608.48 360.381Z" stroke="white" stroke-width="2"/>
<path fill-rule="evenodd" clip-rule="evenodd" d="M624.325 363.234C603.282 321.519 556.096 252.972 591.985 206.585C610.942 182.071 644.473 172.858 672.601 167.368C695.237 162.928 722.536 161.26 739.639 142.435C752.21 128.595 746.629 108.452 751.446 91.1269C757.423 69.6479 771.144 52.0724 788.004 38.8627C835.119 1.94432 900.628 -9.38542 957.305 -11.7963C1016.17 -14.2946 1081.02 -2.60883 1136.42 19.8695C1205.48 47.9065 1257.22 100.995 1293.41 168.224C1300.08 180.634 1306.15 193.369 1312.56 205.929C1316.87 214.355 1323.25 222.505 1326.65 231.368C1332.3 246.145 1325.64 258.225 1314.96 267.856C1299.61 281.721 1280.75 291.589 1263.24 301.995C1239.3 316.235 1214.83 330.219 1192.56 346.926C1177.59 358.169 1161.93 370.279 1156.58 389.784C1152.92 403.088 1152.16 417.178 1152.29 430.956C1152.58 460.498 1151.11 484.388 1138.04 511.445C1116.53 555.864 1083.47 595.805 1048.53 629.039C1021.11 655.121 977.731 695.637 937.784 678.199C901.943 662.585 880.978 625.21 857.364 594.994C845.883 580.304 832.986 566.888 817.832 556.439C798.726 543.266 780.741 537.739 758.104 535.584C720.006 531.956 662.559 531.012 650.782 482.795C646.434 465.001 648.916 446.57 646.635 428.545C643.655 404.712 634.941 384.276 624.325 363.234Z" stroke="white" stroke-width="2"/>
<path fill-rule="evenodd" clip-rule="evenodd" d="M646.204 364.78C631.22 319.136 611.535 261.611 647.726 221.044C665.256 201.392 689.914 190.406 713.778 182.196C730.87 176.312 758.009 174.58 768.488 156.491C776.184 143.179 777.25 124.815 784.212 110.553C793.78 90.9448 808.272 74.7941 825.276 62.1512C869.571 29.206 927.265 16.4755 979.878 12.8302C1094.2 4.92061 1210.52 67.9162 1271.7 171.56C1289.94 202.455 1313.48 235.337 1284 266.901C1251.82 301.334 1203.34 317.466 1164.93 341.933C1150.25 351.274 1131.55 362.504 1123.36 379.417C1118.44 389.584 1118.1 402.34 1117.88 413.532C1117.28 442.038 1115.04 467.674 1104.18 494.273C1087.4 535.377 1060.64 573.3 1030.33 604.363C1003.89 631.45 966.179 663.282 927.78 643.755C898.338 628.748 879.666 596.897 856.789 573.419C831.332 547.27 799.848 529.65 765.273 521.04C731.64 512.687 694.751 507.053 677.025 471.563C670.945 459.389 664.592 443.626 662.313 430.151C658.634 407.935 653.246 386.072 646.204 364.78Z" stroke="white" stroke-width="2"/>
<path fill-rule="evenodd" clip-rule="evenodd" d="M670.603 365.099C663.671 319.008 662.9 270.948 695.108 234.621C710.14 217.674 729.141 205.634 748.355 194.725C762.492 186.698 777.091 179.928 787.65 166.769C797.432 154.585 804.867 140.438 814.312 127.936C826.77 111.367 841.676 97.024 858.458 85.458C900.525 56.5205 951.699 42.9863 1000.66 38.2915C1024.36 36.0098 1050.06 34.8221 1073.6 41.0421C1096.34 47.0434 1118.82 56.533 1139.72 67.5979C1184.16 91.0966 1222.67 125.51 1250.59 169.02C1269.73 198.863 1280.08 227.882 1255.29 258.157C1227.34 292.284 1183.52 311.113 1147.4 333.261C1122.63 348.452 1094.87 363.342 1090.24 395.624C1086.56 421.311 1083.56 445.691 1074.03 469.972C1059.84 505.785 1038.98 538.227 1012.68 565.373C988.635 590.104 958.21 611.089 923.81 597.88C896.556 587.397 875.41 563.91 851.597 547.119C825.06 528.365 795.903 518.026 765.2 509.711C737.608 502.21 711.627 490.682 693.793 466.208C690.143 461.207 686.31 455.762 683.495 450.167C679.905 443.028 680.183 435.952 679.478 427.95C677.642 406.833 673.737 385.96 670.603 365.099Z" stroke="white" stroke-width="2"/>
<path fill-rule="evenodd" clip-rule="evenodd" d="M697.502 361.332C698.094 317.552 708.073 276.177 735.404 242.058C747.088 227.463 761.041 215.441 773.898 202.067C784.25 191.285 794.033 181.266 805.936 172.382C834.173 151.343 857.122 124.119 887.129 105.385C927.187 80.3389 973.072 66.495 1018.6 60.9599C1040.83 58.255 1063.8 57.3095 1086.29 60.3651C1105.61 62.9886 1124.11 72.1991 1141.27 81.6225C1174.91 100.081 1207.57 126.316 1229.41 159.508C1277.57 232.685 1182.63 285.888 1133.9 317.045C1111.49 331.377 1077.25 347.976 1068.07 376.366C1061.51 396.646 1057.51 417.271 1049.06 436.926C1026.36 489.709 980.279 551.791 918.872 543.526C892.595 539.995 868.646 525.65 844.117 516.02C818.859 506.102 792.789 500.573 766.536 494.506C742.001 488.839 722.446 480.774 706.598 459.154C699.024 448.829 699.693 436.469 699.018 423.802C697.916 402.995 697.235 382.07 697.502 361.332Z" stroke="white" stroke-width="2"/>
<path fill-rule="evenodd" clip-rule="evenodd" d="M722.001 355.728C731.867 289.646 768.506 217.504 822.381 179.127C885.753 133.984 954.408 95.9692 1030.12 85.041C1065.23 79.9737 1103.68 77.4806 1136.81 94.051C1162.01 106.654 1191.3 125.492 1205.17 151.985C1239.11 216.785 1163.62 268.371 1120.6 298.35C1097.44 314.489 1067.97 330.216 1050.51 353.785C1040.39 367.45 1035.22 385.526 1027.04 400.534C1002.26 446.015 961.481 482.699 910.677 489.259C887.188 492.29 863.526 488.541 840.214 485.56C816.351 482.511 792.191 480.855 768.477 476.6C749.546 473.201 727.236 467.447 720.264 446.071C711.472 419.135 717.976 382.714 722.001 355.728Z" stroke="white" stroke-width="2"/>
<path fill-rule="evenodd" clip-rule="evenodd" d="M746.02 345.111C760.408 282.983 790.875 222.381 842.094 185.292C869.255 165.625 900.785 152.049 931.057 138.635C965.371 123.433 1001.22 111.633 1037.84 105.779C1083.43 98.4879 1157.27 91.9155 1181.09 146.727C1204.73 201.132 1144.99 249.283 1109.66 276.723C1087.01 294.302 1062.77 310.435 1041.13 329.652C1029.39 340.07 1020.35 352.108 1010.42 364.327C982.976 398.183 943.849 424.986 903.967 439.294C865.314 453.164 817.497 459.304 776.695 454.721C759.09 452.751 746.506 446.103 741.182 427.206C733.804 400.935 740.072 370.775 746.02 345.111Z" stroke="white" stroke-width="2"/>
<path fill-rule="evenodd" clip-rule="evenodd" d="M769.889 328.381C784.182 273.68 815.012 223.718 859.981 190.887C910.39 154.083 975.298 133.633 1034.96 123.233C1066.67 117.709 1135.39 102.732 1151.55 145.595C1167.72 188.458 1120.99 230.699 1094.1 253.952C1061.45 282.13 1026.26 309.338 991.113 334.621C960.573 356.604 927.986 379.078 894.907 396.054C876.25 405.684 856.816 413.547 836.834 419.55C822.038 423.959 803.222 430.535 787.71 427.253C748.582 418.964 763.053 354.536 769.889 328.381Z" stroke="white" stroke-width="2"/>
<path fill-rule="evenodd" clip-rule="evenodd" d="M799.347 311.995C830.708 208.549 930.07 157.672 1025.74 139.938C1047.97 135.822 1110.29 120.981 1122.72 152.581C1134.76 183.22 1096.46 219.555 1078.53 236.77C1022.98 290.114 954.336 329.666 889.294 368.85C868.992 381.08 832.377 407.621 807.193 395.378C779.85 382.061 792.85 333.445 799.347 311.995Z" stroke="white" stroke-width="2"/>
<path fill-rule="evenodd" clip-rule="evenodd" d="M831.473 292.089C858.746 215.908 938.073 172.216 1011.01 157.812C1028.87 154.288 1074.24 143.315 1087.77 164.574C1100.29 184.239 1070.41 212.734 1059.23 224.057C1034.34 249.271 1004.85 270.043 975.712 290.008C948.771 308.48 921.539 327.414 893.191 343.037C878.26 351.26 850.257 368.807 833.29 356.109C815.022 342.449 825.418 309.005 831.473 292.089Z" stroke="white" stroke-width="2"/>
<path fill-rule="evenodd" clip-rule="evenodd" d="M866.874 269.829C887.661 220.08 943.335 187.775 992.446 177.04C1005.66 174.158 1034.22 166.68 1045.37 179.966C1055.63 192.202 1039.09 210.139 1031.75 218.424C999.217 255.143 951.573 287.942 907.92 308.087C896.944 313.151 877.214 323.092 865.924 312.87C854.343 302.372 862.099 281.252 866.874 269.829Z" stroke="white" stroke-width="2"/>
<path fill-rule="evenodd" clip-rule="evenodd" d="M904.427 248.93C916.141 224.227 946.755 205.589 972.114 199.656C989.962 195.484 1011.41 199.088 995.861 220.591C980.409 241.931 951.739 261.421 927.439 270.061C908.9 276.65 894.369 270.15 904.427 248.93Z" stroke="white" stroke-width="2"/>
<path fill-rule="evenodd" clip-rule="evenodd" d="M-45.4474 420.028C-46.1987 371.223 -70.7773 320.5 -58.6388 270.771C-48.6713 229.928 1.50917 226.518 31.6127 208.014C55.5347 193.314 69.1106 167.272 82.0476 142.285C93.6714 119.853 104.112 96.7463 116.357 74.6825C124.284 60.4188 137.895 32.4098 155.085 31.9039C171.542 31.4168 186.632 53.2432 196.192 66.1455C208.655 82.9635 219.705 100.893 231.808 117.979C252.205 146.8 276.677 168.133 304.698 188.324C336.586 211.297 369.001 233.486 401.942 254.89C426.195 270.696 450.614 286.384 473.926 303.751C488.549 314.649 520.824 335.095 520.972 355.185C521.043 364.771 512.436 375.388 506.633 383.051C496.813 396.022 485.621 407.881 474.394 419.484C453.483 441.099 431.684 461.732 410.123 482.616C382.137 509.719 355.405 536.379 330.803 567.149C305.367 598.998 281.066 631.897 256.269 664.347C239.475 686.329 222.699 711.016 198.475 724.505C168.135 741.367 143.231 723.587 112.548 723.381C86.1529 723.2 88.0991 658.651 84.7451 640.703C81.3792 622.536 73.9612 605.624 71.0864 587.414C67.5016 564.682 67.4543 541.425 66.5729 518.45C65.5022 490.347 65.0763 463.593 36.6172 452.877C20.4208 446.788 2.89932 445.508 -13.865 441.86C-24.7257 439.494 -45.2108 435.447 -45.4474 420.028Z" stroke="white" stroke-width="2"/>
<path fill-rule="evenodd" clip-rule="evenodd" d="M-32.4706 411.35C-35.2373 370.439 -51.5827 318.076 -36.1259 275.846C-22.9205 239.757 18.3784 235.079 46.1875 216.122C69.1445 200.485 79.364 174.898 90.8395 149.761C100.046 129.597 108.974 109.238 119.425 89.7182C127.126 75.3328 138.886 51.0466 154.9 48.0695C169.296 45.3925 184.735 66.8329 192.816 77.7408C204.606 93.6648 214.689 110.958 225.104 127.889C243.404 157.63 262.143 184.374 288.927 206.221C315.83 228.162 345.262 244.567 375.009 261.642C398.28 275.002 421.432 288.749 443.542 304.173C460.012 315.656 483.691 330.354 491.227 350.831C497.193 367.03 466.937 393.912 458.015 403.4C439.65 422.908 420.188 441.221 400.691 459.422C376.922 481.6 352.395 500.996 331.405 526.295C293.862 571.528 262.481 627.856 214.173 661.474C185.037 681.751 152.613 686.936 120.207 683.902C107.375 682.701 104.294 663.581 102.676 652.43C99.9868 633.904 99.6491 615.059 97.5815 596.458C95.6442 579.046 91.3431 562.502 87.8774 545.428C84.3701 528.128 83.3867 510.402 80.8036 492.984C79.2041 482.17 77.6222 469.585 70.6255 460.892C63.3859 451.891 51.4424 448.12 41.0036 445.255C21.3998 439.927 -30.5156 440.221 -32.4706 411.35Z" stroke="white" stroke-width="2"/>
<path fill-rule="evenodd" clip-rule="evenodd" d="M-15.7696 394.222C-20.4226 356.669 -26.9367 309.896 -7.98111 275.298C7.51296 247.008 40.5579 240.905 64.1605 222.472C83.7919 207.144 91.207 182.764 100.952 160.109C108.948 141.526 116.985 122.862 126.676 105.179C134.026 91.7679 143.498 73.5847 158.091 68.9062C170.568 64.9086 184.663 82.8169 191.581 91.7304C203.358 106.921 212.96 123.943 222.498 140.739C238.098 168.223 252.454 197.581 274.658 219.936C296.234 241.63 321.864 254.435 347.973 268.833C367.972 279.864 387.847 291.319 406.69 304.474C421.158 314.568 439.089 326.53 446.628 343.326C453.148 357.812 436.409 374.958 428.046 385.177C414.235 402.042 398.907 417.514 383.792 433.049C367.48 449.808 349.414 465.267 333.629 482.439C300.436 518.574 273.917 558.581 233.007 586.265C206.512 604.198 170.859 620.489 139.539 617.559C117.015 615.448 118.496 562.841 116.333 546.032C112.777 518.549 105.907 489.672 94.9946 464.355C85.6234 442.662 63.3544 435.972 42.8696 431.106C30.0369 428.052 16.5877 426.403 4.17588 421.68C-10.192 416.209 -13.8195 409.962 -15.7696 394.222Z" stroke="white" stroke-width="2"/>
<path fill-rule="evenodd" clip-rule="evenodd" d="M-0.193706 376.619C-2.96412 344.87 -2.34121 307.326 15.6042 279.862C31.3309 255.806 59.3317 249.472 79.2466 230.522C94.7895 215.737 100.894 191.631 109.253 172.079C119.468 148.173 133.783 104.02 159.553 95.0242C183.526 86.6609 208.596 140.086 217.275 156.017C231.014 181.232 242.505 208.884 259.169 232.169C273.52 252.216 292.747 263.298 313.154 275.207C339.173 290.418 378.677 308.454 392.588 338.098C402.958 360.187 369.239 393.026 357.724 408.331C345.681 424.318 336.611 443.269 324.182 458.692C304.57 483.03 272.79 502.626 246.551 517.58C221.042 532.126 187.916 548.226 158.978 547.268C139.959 546.641 136.34 515.644 132.282 500.502C126.468 478.977 118.738 459.688 102.134 445.048C85.2324 430.144 65.3115 423.122 44.3702 416.976C33.6208 413.844 21.3586 411.4 11.7422 405.073C1.11736 398.188 0.87412 388.823 -0.193706 376.619Z" stroke="white" stroke-width="2"/>
<path fill-rule="evenodd" clip-rule="evenodd" d="M18.7906 358.322C18.9443 330.893 24.887 301.644 42.5082 280.487C57.1846 262.864 80.1571 256.973 94.2067 238.957C105.335 224.694 111 204.671 118.451 188.107C127.563 167.81 140.447 132.352 163.107 125.308C185.222 118.45 204.782 157.505 213.262 172.959C225.679 195.619 235.732 219.638 248.262 242.236C258.077 259.965 270.081 271.391 286.064 282.818C304.827 296.24 331.004 311.107 341.027 333.312C348.253 349.389 330.762 375.079 324.411 389.242C320.154 398.755 316.257 408.418 314.116 418.728C312.449 426.758 312.283 434.188 307.452 441.083C295.289 458.425 268.621 460.688 250.526 466.405C226.495 473.991 200.998 482.613 175.849 484.258C160.392 485.287 152.504 470.257 143.682 459.685C133.257 447.186 118.498 438.197 105.607 428.765C88.5952 416.297 70.0811 408.542 50.9285 400.6C42.2894 397.016 32.1425 393.5 25.4488 386.375C18.4595 378.988 18.7374 368.222 18.7906 358.322Z" stroke="white" stroke-width="2"/>
<path fill-rule="evenodd" clip-rule="evenodd" d="M38.7261 342.034C41.7803 318.998 51.2984 296.98 67.3748 280.695C79.6985 268.192 96.065 261.153 105.956 246.131C115.172 232.128 121.594 216.205 129.206 201.233C137.262 185.404 149.231 158.948 167.811 154.641C187.836 150.003 203.261 176.69 211.802 191.481C222.593 210.173 230.791 230.284 240.439 249.619C247.708 264.031 256.98 277.212 267.946 288.722C279.447 300.856 295.044 312.478 300.862 329.163C306.006 343.941 296.381 361.82 294.683 376.805C292.865 392.815 296.05 409.631 285.976 423.378C265.199 451.729 213.057 446.471 183.248 447.077C153.836 447.703 130.189 430.355 106.388 413.851C90.6667 402.955 74.2943 393.728 58.1764 383.575C41.7448 373.217 36.0388 362.308 38.7261 342.034Z" stroke="white" stroke-width="2"/>
<path fill-rule="evenodd" clip-rule="evenodd" d="M57.2453 328.852C66.2775 295.478 94.4876 277.74 114.655 252.52C131.155 231.872 143.528 189.114 171.317 183.458C202.868 177.038 221.756 233.693 232.725 255.554C244.896 279.799 266.573 299.52 275.587 325.185C280.326 338.656 276.257 351.226 273.734 364.69C270.968 379.475 268.889 394.591 259.341 406.491C240.548 429.91 203.845 429.747 177.412 430.392C150.049 431.061 125.843 415.013 104.041 398.996C80.9186 382.034 47.994 363.076 57.2453 328.852Z" stroke="white" stroke-width="2"/>
<path fill-rule="evenodd" clip-rule="evenodd" d="M72.3782 319.8C82.5558 296.022 103.943 276.692 121.297 258.443C135.782 243.23 151.365 212.605 173.45 210.422C199.407 207.847 215.139 240.55 225.352 260.602C235.405 280.305 249.89 301.11 255.456 322.735C261.26 345.263 245.803 375.602 231.062 391.543C214.62 409.318 187.72 415.886 164.639 415.177C140.471 414.456 118.297 399.765 99.9937 384.527C80.426 368.238 60.5421 347.402 72.3782 319.8Z" stroke="white" stroke-width="2"/>
<path fill-rule="evenodd" clip-rule="evenodd" d="M86.4155 315.324C96.1372 295.548 112.989 278.818 128.527 263.896C140.518 252.375 158.212 232.785 175.511 232.305C194.543 231.776 210.672 248.219 218.238 265.073C225.697 281.697 233.555 302.539 234.672 320.776C237.096 360.491 187.735 404.979 150.67 401.359C115.527 397.926 67.0318 354.728 86.4155 315.324Z" stroke="white" stroke-width="2"/>
<path fill-rule="evenodd" clip-rule="evenodd" d="M99.3963 313.145C112.808 287.378 145.385 250.643 175.545 249.771C210.163 248.774 218.854 289.652 214.342 319.277C209.758 349.512 169.845 393.276 138.02 387.362C106.959 381.592 83.5017 343.704 99.3963 313.145Z" stroke="white" stroke-width="2"/>
<path fill-rule="evenodd" clip-rule="evenodd" d="M113.103 308.984C124.458 287.409 148.689 260.461 173.962 259.646C204.075 258.68 203.507 293.193 196.678 314.674C189.578 336.977 158.305 375.071 131.938 369.056C106.298 363.184 102.221 329.661 113.103 308.984Z" stroke="white" stroke-width="2"/>
<path fill-rule="evenodd" clip-rule="evenodd" d="M125.037 306.494C132.532 291.1 151.291 271.643 169.124 271.021C190.922 270.272 186.684 297.646 181.053 310.859C174.359 326.58 151.92 353.897 133.09 349.47C114.551 345.112 118.854 319.178 125.037 306.494Z" stroke="white" stroke-width="2"/>
<path fill-rule="evenodd" clip-rule="evenodd" d="M1150.42 1186.08C1102.17 1216.96 1047.63 1242.46 996.201 1268.37C921.04 1306.24 844.771 1343.08 765.796 1371.29C723.454 1386.41 668.587 1408.2 623.154 1396.36C606.543 1392.03 591.395 1378.93 576.501 1370.43C555.964 1358.69 535.125 1347.54 514.321 1336.37C472.589 1313.96 430.727 1291.79 389.711 1267.95C369.962 1256.46 350.798 1242 330.237 1232.21C318.222 1226.48 303.843 1229.16 291.004 1229.52C261.264 1230.36 231.542 1231.96 201.82 1233.32C165.465 1234.99 129.027 1236.75 92.6312 1236.1C76.2156 1235.8 36.0115 1238.87 26.9746 1223.95C22.1127 1215.92 33.5716 1201.43 38.8836 1194.73C48.6371 1182.41 59.8474 1171.31 70.9095 1160.32C96.4923 1134.91 123.662 1110.7 146.402 1082.32C158.086 1067.72 173.395 1049.89 165.767 1029.97C158.069 1009.85 144.732 992.425 136.596 972.371C127.227 949.294 123.342 925.28 118.919 900.809C115.644 882.724 108.016 866.699 100.845 850.026C92.9213 831.596 84.7135 813.011 79.212 793.576C75.5759 780.738 69.7073 757.642 82.4277 749.514C100.501 737.957 134.393 747.315 154.995 750.72C183.468 755.418 211.733 761.402 240.129 766.556C260.743 770.305 281.429 774.415 302.386 774.853C336.171 775.559 370.068 773.116 403.764 770.842C466.158 766.631 528.104 760.921 590.708 760.921C645.556 760.921 772.304 827.873 801.973 839.661C861.193 863.195 921.987 885.503 978.027 916.815C993.187 925.292 1016.52 936.587 1024.5 954.036C1029.42 964.787 1027.16 971.003 1038.76 977.931C1054.6 987.383 1074.89 991.094 1092.41 995.323C1120.64 1002.13 1149.09 1007.9 1177.45 1014.07C1234.81 1026.5 1291.78 1040.57 1348.91 1054.11C1366.17 1058.2 1387.07 1059.11 1403.53 1066.32C1414.14 1070.95 1413.04 1076.77 1404.83 1083.81C1390.42 1096.15 1370.22 1103.01 1353.21 1110.05C1328.27 1120.36 1302.92 1129.56 1277.56 1138.63C1252.21 1147.71 1226.72 1156.5 1201.35 1165.59C1184.59 1171.57 1165.48 1176.44 1150.42 1186.08Z" stroke="white" stroke-width="2"/>
<path fill-rule="evenodd" clip-rule="evenodd" d="M1110.71 1179.28C1059.68 1210.23 1003.03 1234.89 948.418 1258.94C878.524 1289.75 807.048 1318.62 733.405 1337.88C690.165 1349.17 639.149 1361.65 594.967 1348.69C579.206 1344.07 567.43 1333.68 553.92 1324.51C538.519 1314.04 522.527 1304.45 506.534 1295.01C473.613 1275.58 440.344 1256.81 406.728 1238.7C388.922 1229.07 369.323 1216.18 349.207 1212.84C333.215 1210.18 315.048 1214.03 298.984 1215.15C270.055 1217.16 241.132 1219.24 212.192 1221C178.796 1223.04 145.307 1224.91 111.84 1224.59C93.1882 1224.41 61.1673 1227.4 47.9763 1214.69C36.4675 1203.59 78.3683 1163.45 85.7367 1155.82C108.748 1132.01 132.951 1109.34 154.369 1083.88C167.027 1068.86 182.439 1050.6 187.776 1030.7C192.319 1013.74 183.553 994.412 178.376 978.734C171.902 959.096 166.678 938.739 159.155 919.514C152.456 902.384 141.794 887.126 132.429 871.554C122.129 854.425 111.698 837.014 104.051 818.327C99.3661 806.828 91.6126 787.571 100.924 776.611C111.68 763.973 144.839 772.231 158.468 774.033C186.118 777.737 213.554 783.242 241.014 788.172C286.623 796.355 330.105 803.512 376.549 801.798C437.031 799.558 497.454 794.29 557.924 791.375C580.254 790.286 602.94 788.097 625.288 789.279C638.1 789.961 647.856 794.09 655.307 803.406C665.483 816.118 688.921 823.156 705.222 830.451C730.639 841.818 756.375 852.391 782.04 863.102C838.382 886.625 895.808 909.297 949.241 939.721C966.146 949.343 985.503 960.072 998.007 975.969C1004.98 984.834 1003.23 993.374 1007.48 1002.8C1013.12 1015.19 1031.66 1020.78 1042.74 1024.84C1064.13 1032.67 1086.4 1037.92 1108.49 1042.83C1158.48 1053.96 1208.59 1061.27 1259.4 1066.66C1271.3 1067.91 1318.19 1072.25 1293.56 1093.14C1266.36 1116.23 1227.08 1127.55 1195.05 1140.56C1166.2 1152.26 1137.32 1163.15 1110.71 1179.28Z" stroke="white" stroke-width="2"/>
</g>
<defs>
<clipPath id="clip0_1222_18534">
<rect width="1600" height="804" fill="white"/>
</clipPath>
</defs>
</svg>
