<svg width="590" height="480" viewBox="0 0 590 480" fill="none" xmlns="http://www.w3.org/2000/svg">
<rect width="590" height="480" rx="12" fill="#E8F3E6"/>
<mask id="mask0_1222_18665" style="mask-type:alpha" maskUnits="userSpaceOnUse" x="0" y="0" width="590" height="480">
<rect width="590" height="480" rx="12" fill="white"/>
</mask>
<g mask="url(#mask0_1222_18665)">
<g opacity="0.5">
<path fill-rule="evenodd" clip-rule="evenodd" d="M175.142 118.007C175.09 106.423 154.657 93.3977 145.929 86.6822C128.67 73.3998 110.721 61.1341 92.9373 48.6726C75.1541 36.211 57.3229 23.7832 40.3654 10.1022C29.3549 1.22134 16.4176 -8.78104 8.95029 -21.4622C-6.95732 -48.4864 43.198 -44.4733 56.1898 -45.0645C89.2405 -46.5744 127.15 -45.8853 158.13 -59.9582C176.623 -68.3594 183.998 -82.4492 180.026 -102.984C178.746 -109.663 174.956 -117.348 178.166 -123.854C181.594 -130.802 189.481 -134.812 196.026 -137.501C219.901 -147.297 247.35 -148.432 272.61 -149.662C299.848 -151.013 327.343 -150.618 354.389 -150.723C365.857 -150.767 377.834 -155.114 388.755 -158.647C403.072 -163.279 417.219 -168.481 431.417 -173.511C462.653 -184.55 494.84 -196.177 527.887 -198.981C548.583 -200.738 571.203 -198.363 587.28 -183.084C595.352 -175.413 599.577 -164.008 604.244 -153.878C609.893 -141.639 615.318 -129.282 621.332 -117.236C640.706 -78.4395 668.367 -40.5278 713.264 -38.6226C720.056 -38.3354 726.726 -39.2711 733.486 -39.4468C737.791 -39.5549 741.622 -38.457 743.223 -33.7041C747.246 -21.783 734.6 -2.96403 729.415 6.49446C718.062 27.1984 705.259 46.9734 693.266 67.2619C685.331 80.6795 671.597 99.0154 671.453 115.318C671.325 129.843 689.633 140.342 699.6 147.497C708.94 154.196 725.862 163.57 726.886 177.197C727.382 183.804 723.253 189.28 718.942 193.529C711.385 200.961 702.679 206.204 695.881 214.683C684.732 228.593 675.418 247.733 676.932 266.478C677.982 279.467 685.005 287.972 693.938 296.103C697.692 299.522 700.739 301.941 700.938 307.491C701.258 316.304 697.987 325.631 695.292 333.802C685.651 363.046 671.958 391.323 656.726 417.726C649.115 430.921 640.892 444.075 630.8 455.33C624.191 462.722 615.277 471.518 605.194 471.508C593.521 471.508 581.17 467.062 569.823 463.738C548.631 457.526 527.695 450.344 506.842 442.977C458.618 425.931 410.847 407.505 363.53 387.699C330.201 373.724 296.164 359.729 264.829 341.149C258.718 337.501 252.95 333.247 247.603 328.445C241.89 323.401 234.8 321.145 227.611 319.462C182.993 309.021 134.111 317.037 89.3077 322.064C77.9355 323.337 66.5633 324.617 55.1591 325.509C45.3553 326.276 33.6183 328.475 24.0897 325.171C5.31426 318.669 21.7276 294.702 28.6667 284.936C53.0979 250.551 84.6186 221.459 113.835 191.759C127.726 177.616 141.723 163.509 154.859 148.564C161.699 140.795 175.186 128.161 175.142 118.007Z" stroke="white" stroke-width="2"/>
<path fill-rule="evenodd" clip-rule="evenodd" d="M183.561 116.054C176.072 103.797 162.934 94.7378 152.028 86.2121C136.334 73.9383 120.146 62.3467 104.202 50.4207C89.1257 39.1431 74.0175 27.7371 60.056 14.9299C51.5426 7.11999 40.8609 -2.21954 36.8284 -13.7707C28.0812 -38.8077 75.1386 -35.0091 86.7556 -35.6642C115.636 -37.2849 148.38 -37.6563 175.098 -50.8384C191.782 -59.0704 198.637 -72.7217 195.078 -91.6742C193.848 -98.2315 191.632 -103.83 194.438 -110.353C197.682 -117.903 205.145 -122.61 211.987 -125.933C233.417 -136.343 258.749 -138.554 281.98 -140.394C305.979 -142.295 330.985 -143.636 354.212 -142.245C363.501 -141.691 374.192 -144.835 383.384 -147.245C397.528 -150.96 411.528 -155.244 425.602 -159.229C454.204 -167.332 483.549 -175.139 513.304 -176.027C534.786 -176.669 557.184 -173.191 575.057 -159.749C593.169 -146.118 601.205 -124.987 611.25 -104.9C628.597 -70.1724 652.026 -27.9488 692.159 -20.6116C698.244 -19.4973 704.093 -20.1017 710.172 -19.8282C713.298 -19.6897 716.856 -19.2508 718.442 -15.9992C722.558 -7.55785 711.28 7.87633 707.485 14.3424C696.998 32.2111 685.208 49.2052 674.219 66.7294C665.491 80.6442 654.428 96.1053 651.052 112.6C646.956 132.616 673.723 146.858 683.136 160.952C699.455 185.391 668.537 199.316 653.294 210.969C635.79 224.346 621.342 248.752 637.033 269.45C643.035 277.365 650.421 282.082 653.102 292.411C657.295 308.564 654.124 327.024 650.722 342.991C645.598 366.995 637.488 390.739 626.464 412.433C618.565 427.965 605.462 452.32 586.273 450.494C573.356 449.275 560.224 444.821 547.646 440.884C528.813 434.992 510.217 428.276 491.72 421.3C449.022 405.241 406.795 387.535 365.397 368.059C337.15 354.765 258.358 300.44 252.43 298.502C234.753 292.728 214.655 293.744 196.43 294.639C172.187 295.828 148.066 298.907 123.964 301.76C112.491 303.111 100.961 304.762 89.4268 305.427C81.2177 305.9 70.4367 306.305 63.2461 301.271C49.2109 291.448 64.8476 268.974 71.3143 259.466C91.1243 230.316 116.184 205.073 139.681 179.263C151.211 166.591 162.918 153.939 173.385 140.25C177.606 134.723 188.189 123.624 183.561 116.054Z" stroke="white" stroke-width="2"/>
<path fill-rule="evenodd" clip-rule="evenodd" d="M193.921 109.77C173.47 85.2429 145.244 67.0011 120.883 46.5167C108.656 36.2322 96.3522 25.6675 85.8065 13.4173C80.3207 7.04739 73.4707 -1.00794 72.4139 -9.88735C69.5893 -33.6412 112.003 -30.4292 124.697 -31.331C149.241 -33.0805 176.967 -34.4079 199.234 -46.5297C212.838 -53.9399 219.538 -66.1022 216.995 -82.0879C215.868 -89.1806 214.113 -95.206 216.995 -102.17C219.915 -109.226 226 -114.204 232.162 -117.937C249.868 -128.67 271.872 -132.102 291.807 -134.658C315.193 -137.636 338.755 -138.799 362.303 -138.137C382.927 -137.566 403.451 -143.987 423.588 -148.219C450.264 -153.822 477.424 -158.716 504.722 -157.977C526.281 -157.389 548.01 -152.772 566.44 -140.502C585.168 -128.005 596.427 -109.3 606.579 -89.1164C621.925 -58.6042 641.05 -17.7163 674.718 -6.12818C679.614 -4.43943 684.178 -4.25368 689.228 -3.95984C691.681 -3.81798 694.848 -3.77407 696.065 -1.07546C698.992 5.42283 688.171 18.0208 685.151 22.4116C675.512 36.4281 665.062 49.8131 655.183 63.6439C645.96 76.5561 635.914 90.012 630.184 105.143C621.067 129.241 650.216 143.332 649.399 166.296C648.89 180.552 635.949 190.776 625.701 197.848C613.083 206.545 594.916 212.263 588.601 228.134C583.896 239.955 591.278 246.835 596.962 255.806C606.595 271.005 607.252 291.607 606.249 309.201C604.898 332.975 599.617 357.1 590.628 378.953C586.554 388.859 581.565 399.163 574.218 406.857C567.336 414.068 560.823 415.916 551.625 414.44C523.469 409.914 495.041 397.299 468.041 386.032C434.118 371.873 400.662 356.242 368.205 338.656C346.073 326.662 323.441 313.973 304.015 297.403C298.952 293.083 293.767 288.389 290.065 282.691C287.266 278.408 286.078 274.872 281.361 272.427C267.379 265.182 247.93 267.077 232.949 267.83C208.995 269.029 185.156 272.221 161.349 275.095C147.457 276.784 121.286 282.096 110.193 269.353C100.618 258.349 112.172 239.587 118.074 229.894C133.004 205.38 152.209 183.866 170.028 161.713C178.194 151.56 186.68 141.33 193.425 130.042C195.148 127.164 197.908 123.351 198.382 119.855C198.914 115.85 196.432 112.793 193.921 109.77Z" stroke="white" stroke-width="2"/>
<path fill-rule="evenodd" clip-rule="evenodd" d="M195.68 115.48C176.782 93.7929 154.016 75.9764 133.729 55.6824C124.632 46.5832 115.446 37.0378 108.515 25.9376C104.787 19.9683 100.828 12.4544 101.856 5.03514C104.806 -16.2594 139.689 -14.3361 153.782 -15.5834C174.723 -17.4154 198.78 -19.2609 217.296 -30.7431C229.426 -38.2638 233.974 -49.3708 231.709 -63.6956C229.278 -79.0615 234.714 -90.2157 247.084 -98.7876C262.592 -109.526 282.168 -113.903 300.175 -117.013C321.87 -120.742 343.84 -122.395 365.816 -121.951C387.189 -121.519 407.896 -125.298 429.128 -127.755C457.279 -131.01 486.333 -132.616 514.166 -125.943C538.399 -120.133 560.288 -107.329 576.697 -87.5286C593.836 -66.8627 602.32 -40.8259 616.237 -17.9629C624.917 -3.70236 637.021 15.1619 653.24 20.7052C658.65 22.5541 668.509 20.0596 664.188 29.1554C661.719 34.3574 657.097 38.9205 653.445 43.1727C647.546 50.0444 641.45 56.7268 635.451 63.5039C622.665 77.9504 608.973 92.7045 599.39 109.811C587.315 131.349 605.264 147.925 603.076 169.764C601.901 181.516 594.156 190.896 585.963 198.265C580.662 203.037 574.862 207.171 568.939 211.028C562.755 215.057 555.436 218.126 550.042 223.335C542.355 230.747 545.693 239.522 547.134 249.104C549.671 265.945 550.228 283.051 548.793 300.036C547.038 320.854 542.922 342.266 534.252 361.185C530.879 368.55 526.606 376.358 520.261 381.296C513.916 386.235 507.353 385.897 500.083 384.409C478.518 380.015 456.997 369.791 436.54 360.1C410.936 347.969 385.834 334.411 361.864 318.988C345.317 308.341 328.717 296.838 314.874 282.402C310.847 278.2 307.017 273.701 303.919 268.679C301.793 265.234 300.653 260.789 297.571 258.2C287.93 250.119 268.575 252.532 257.269 253.002C234.704 253.938 212.495 258.39 189.959 259.471C177.66 260.063 158.398 261.55 149.365 250.5C140.871 240.113 148.565 223.754 153.641 213.745C163.618 194.067 177.023 176.534 189.037 158.241C193.976 150.714 199.389 142.838 202.588 134.242C205.433 126.583 200.523 121.04 195.68 115.48Z" stroke="white" stroke-width="2"/>
<path fill-rule="evenodd" clip-rule="evenodd" d="M200.326 115.835C185.284 96.7513 167.151 79.811 152.001 60.4168C143.133 49.0591 127.861 29.9654 134.719 13.9532C142.243 -3.64192 168.47 -4.12116 183.63 -5.53877C201.673 -7.22639 222.863 -9.53168 238.305 -20.5181C243.188 -23.9912 247.349 -28.5883 249.112 -34.6435C251 -41.124 248.936 -46.7944 248.667 -53.2816C248.104 -66.8906 255.804 -77.8162 265.994 -85.3194C280.396 -95.9278 298.404 -100.943 315.414 -104.44C334.685 -108.384 354.276 -110.329 373.907 -110.246C392.667 -110.178 411.229 -110.617 430.009 -111.123C454.568 -111.798 479.473 -110.708 503.297 -103.826C526.765 -97.0416 548.101 -84.3271 564.862 -65.6249C581.212 -47.3749 592.244 -25.068 601.906 -2.34583C607.388 10.551 616.65 29.8236 629.726 36.3378C635.541 39.2372 641.248 39.038 635.064 46.5783C627.278 56.0729 616.784 63.6908 607.766 71.8116C594.756 83.5305 581.42 95.4788 570.501 109.412C563.527 118.309 560.42 126.943 560.9 138.463C561.271 147.238 562.954 155.923 562.103 164.732C560.109 185.409 544.674 199.588 531.028 212.792C522.249 221.284 514.232 227.761 509.713 239.841C504.369 254.119 502.125 269.651 498.554 284.476C494.63 300.754 490.098 317.688 481.534 332.026C473.911 344.791 464.64 350.516 450.763 347.076C429.119 341.716 407.785 328.512 388.571 316.297C369.013 303.87 349.792 289.896 333.585 272.814C324.836 263.59 318.864 252.758 311.093 242.849C301.319 230.408 279.208 235.119 266.068 236.172C244.254 237.921 175.616 251.003 181.95 208.63C184.593 190.944 195.004 174.622 202.618 159.014C205.773 152.537 210.34 144.764 211.054 137.342C211.831 129.258 204.848 121.58 200.326 115.835Z" stroke="white" stroke-width="2"/>
<path fill-rule="evenodd" clip-rule="evenodd" d="M208.271 117.454C196.776 100.16 183.02 83.8221 173.157 65.1439C166.759 53.0475 160.476 36.8852 168.729 24.0863C178.045 9.64291 198.587 6.27604 213.68 4.43557C229.231 2.54107 247.796 0.947144 260.506 -10.0045C264.55 -13.4929 267.883 -18.1971 268.504 -23.8299C269.102 -29.2331 267.413 -34.6363 267.973 -40.1375C269.227 -52.4905 276.326 -62.6688 285.479 -70.051C312.553 -91.89 352.849 -96.7462 385.516 -97.3169C401.866 -97.6006 418.694 -96.1113 435.15 -95.0442C456.505 -93.6596 477.891 -90.6878 498.256 -83.5252C541.557 -68.3017 570.579 -34.5384 590.849 7.47488C597.228 20.6992 602.11 35.0076 612.107 45.635C617.261 51.1226 616.135 55.0636 610.866 60.0683C602.628 67.8894 592.58 73.8667 583.437 80.3945C570.432 89.6779 557.149 99.0997 545.648 110.22C537.721 117.886 532.094 125.271 530.385 136.767C529.167 144.963 529.451 153.314 528.719 161.561C527.324 177.227 522.548 192.774 514.092 205.769C507.374 216.069 499.376 225.43 491.11 234.355C480.364 245.976 471.275 257.782 463.114 271.573C452.294 289.829 437.092 323.505 411.608 314.593C383.5 304.759 357.155 279.773 339.122 255.563C333.066 247.435 328.094 237.466 319.927 231.471C307.7 222.512 295.294 222.826 280.75 222.863C258.977 222.914 211.598 227.902 211.086 193.484C210.884 179.847 216.476 166.954 219.154 153.838C222.174 139.148 216.121 129.239 208.271 117.454Z" stroke="white" stroke-width="2"/>
<path fill-rule="evenodd" clip-rule="evenodd" d="M216.831 118.995C205.461 96.4562 179.966 59.4195 199.357 34.3561C209.6 21.1106 227.717 16.133 242.915 13.1667C255.146 10.7673 269.896 9.86633 279.137 -0.304836C285.929 -7.78304 282.914 -18.6662 285.516 -28.0275C288.746 -39.6329 296.159 -49.1291 305.269 -56.2665C330.726 -76.214 366.121 -82.3356 396.744 -83.6382C428.549 -84.9881 463.592 -78.6741 493.521 -66.5288C530.837 -51.38 558.793 -22.6956 578.345 13.629C581.952 20.3345 585.23 27.2153 588.693 34.0017C591.02 38.5541 594.471 42.958 596.305 47.7467C599.359 55.7311 595.761 62.2576 589.993 67.4613C581.696 74.953 571.504 80.2849 562.046 85.9071C549.111 93.6013 535.888 101.157 523.856 110.184C515.77 116.259 507.307 122.802 504.413 133.341C502.438 140.529 502.029 148.142 502.099 155.587C502.253 171.549 501.459 184.457 494.398 199.076C482.778 223.076 464.911 244.657 446.035 262.613C431.221 276.706 407.781 298.597 386.197 289.175C366.832 280.739 355.504 260.545 342.745 244.218C336.542 236.281 329.573 229.032 321.385 223.387C311.063 216.269 301.345 213.283 289.114 212.119C268.529 210.158 237.49 209.648 231.126 183.596C228.777 173.982 230.118 164.023 228.886 154.284C227.276 141.406 222.567 130.365 216.831 118.995Z" stroke="white" stroke-width="2"/>
<path fill-rule="evenodd" clip-rule="evenodd" d="M228.655 119.831C220.559 95.1684 209.923 64.0872 229.477 42.1682C238.949 31.5499 252.272 25.6141 265.166 21.1782C274.401 17.9992 289.065 17.0634 294.727 7.28967C298.885 0.0970752 299.461 -9.82526 303.223 -17.5314C308.392 -28.126 316.223 -36.8524 325.41 -43.6836C349.343 -61.4843 380.516 -68.3627 408.944 -70.3323C470.713 -74.606 533.564 -40.5687 566.617 15.4316C576.473 32.1242 589.194 49.8912 573.267 66.9453C555.879 85.5501 529.683 94.2664 508.929 107.486C501 112.533 490.894 118.601 486.47 127.74C483.809 133.233 483.627 140.125 483.505 146.172C483.185 161.574 481.973 175.426 476.103 189.797C467.038 212.007 452.582 232.497 436.201 249.281C421.915 263.916 401.542 281.115 380.794 270.564C364.887 262.456 354.797 245.247 342.437 232.561C328.682 218.433 311.671 208.912 292.99 204.26C274.817 199.747 254.885 196.703 245.308 177.527C242.023 170.949 238.591 162.432 237.359 155.152C235.371 143.148 232.46 131.335 228.655 119.831Z" stroke="white" stroke-width="2"/>
<path fill-rule="evenodd" clip-rule="evenodd" d="M241.838 120.003C238.092 95.0997 237.676 69.1321 255.078 49.5044C263.2 40.3475 273.467 33.8421 283.849 27.948C291.487 23.6111 299.375 19.9531 305.08 12.843C310.365 6.25995 314.383 -1.38373 319.486 -8.13909C326.217 -17.0914 334.271 -24.8411 343.339 -31.0904C366.068 -46.7257 393.718 -54.0384 420.17 -56.5751C432.975 -57.8079 446.866 -58.4497 459.585 -55.0889C471.868 -51.8463 484.014 -46.719 495.308 -40.7405C519.318 -28.0438 540.127 -9.44964 555.211 14.059C565.555 30.1841 571.147 45.8633 557.753 62.2214C542.652 80.6601 518.975 90.8337 499.46 102.801C486.076 111.009 471.074 119.054 468.574 136.497C466.583 150.375 464.966 163.548 459.815 176.667C452.149 196.018 440.877 213.547 426.669 228.214C413.675 241.576 397.236 252.915 378.649 245.778C363.923 240.114 352.498 227.424 339.632 218.351C325.293 208.218 309.539 202.632 292.95 198.139C278.041 194.086 264.004 187.858 254.368 174.634C252.396 171.932 250.325 168.99 248.804 165.967C246.864 162.11 247.014 158.286 246.633 153.963C245.641 142.553 243.531 131.275 241.838 120.003Z" stroke="white" stroke-width="2"/>
<path fill-rule="evenodd" clip-rule="evenodd" d="M256.367 117.968C256.687 94.3131 262.079 71.9574 276.846 53.5228C283.16 45.6368 290.698 39.1412 297.645 31.9148C303.238 26.0891 308.525 20.6761 314.956 15.8755C330.213 4.5082 342.612 -10.2016 358.826 -20.3239C380.469 -33.8564 405.262 -41.3364 429.862 -44.3271C441.874 -45.7886 454.283 -46.2995 466.436 -44.6485C476.874 -43.231 486.87 -38.2544 496.143 -33.1628C514.318 -23.1894 531.965 -9.01412 543.766 8.91979C569.784 48.4583 518.487 77.2046 492.159 94.039C480.051 101.783 461.55 110.752 456.59 126.091C453.044 137.049 450.885 148.193 446.318 158.812C434.054 187.332 409.156 220.876 375.977 216.41C361.779 214.502 348.839 206.751 335.585 201.548C321.938 196.189 307.853 193.202 293.668 189.923C280.411 186.862 269.845 182.504 261.282 170.822C257.19 165.244 257.551 158.565 257.187 151.721C256.591 140.479 256.223 129.173 256.367 117.968Z" stroke="white" stroke-width="2"/>
<path fill-rule="evenodd" clip-rule="evenodd" d="M269.605 114.94C274.935 79.2351 294.732 40.2557 323.841 19.5202C358.082 -4.87152 395.177 -25.4112 436.087 -31.3158C455.055 -34.0538 475.832 -35.4008 493.729 -26.4476C507.35 -19.6382 523.171 -9.45954 530.667 4.85476C549.006 39.8674 508.215 67.7398 484.974 83.9379C472.462 92.6581 456.534 101.156 447.104 113.89C441.632 121.273 438.839 131.04 434.422 139.149C421.035 163.723 398.999 183.544 371.549 187.089C358.857 188.726 346.072 186.7 333.477 185.09C320.583 183.442 307.529 182.548 294.716 180.249C284.487 178.412 272.433 175.303 268.666 163.754C263.915 149.2 267.43 129.521 269.605 114.94Z" stroke="white" stroke-width="2"/>
<path fill-rule="evenodd" clip-rule="evenodd" d="M282.586 109.203C290.36 75.6348 306.822 42.8908 334.496 22.8511C349.172 12.2247 366.208 4.88932 382.564 -2.35822C401.104 -10.5721 420.475 -16.9479 440.26 -20.1105C464.893 -24.0502 504.79 -27.6013 517.66 2.01396C530.434 31.4096 498.154 57.4264 479.066 72.2527C466.827 81.7505 453.73 90.4678 442.036 100.851C435.696 106.48 430.812 112.984 425.446 119.586C410.616 137.879 389.475 152.361 367.927 160.092C347.042 167.586 321.206 170.904 299.16 168.427C289.648 167.363 282.849 163.771 279.972 153.56C275.985 139.366 279.372 123.07 282.586 109.203Z" stroke="white" stroke-width="2"/>
<path fill-rule="evenodd" clip-rule="evenodd" d="M295.481 100.164C303.204 70.6084 319.862 43.6131 344.159 25.8743C371.396 5.98874 406.467 -5.06104 438.701 -10.6801C455.835 -13.6647 492.966 -21.7568 501.699 1.40262C510.433 24.5621 485.186 47.385 470.654 59.9489C453.018 75.1743 434.004 89.8748 415.011 103.536C398.51 115.413 380.903 127.556 363.03 136.729C352.95 141.932 342.449 146.181 331.653 149.424C323.658 151.806 313.492 155.359 305.11 153.586C283.969 149.107 291.788 114.296 295.481 100.164Z" stroke="white" stroke-width="2"/>
<path fill-rule="evenodd" clip-rule="evenodd" d="M311.4 91.3104C328.345 35.417 382.031 7.92753 433.723 -1.65411C445.734 -3.87824 479.407 -11.8972 486.121 5.17692C492.627 21.7313 471.935 41.3637 462.248 50.6652C432.23 79.4878 395.143 100.858 360 122.03C349.031 128.638 329.247 142.978 315.64 136.363C300.866 129.168 307.89 102.9 311.4 91.3104Z" stroke="white" stroke-width="2"/>
<path fill-rule="evenodd" clip-rule="evenodd" d="M328.754 80.5549C343.49 39.3935 386.351 15.7859 425.758 8.00338C435.41 6.0991 459.923 0.170184 467.233 11.6566C473.998 22.2821 457.854 37.6783 451.814 43.7963C438.367 57.42 422.431 68.6431 406.688 79.4306C392.131 89.4112 377.418 99.6416 362.101 108.082C354.034 112.526 338.903 122.007 329.735 115.146C319.865 107.765 325.482 89.6948 328.754 80.5549Z" stroke="white" stroke-width="2"/>
<path fill-rule="evenodd" clip-rule="evenodd" d="M347.881 68.5277C359.113 41.6477 389.194 24.1927 415.729 18.3924C422.869 16.835 438.301 12.7948 444.325 19.9734C449.87 26.5844 440.933 36.2764 436.966 40.7524C419.388 60.5924 393.645 78.3143 370.059 89.1987C364.128 91.935 353.468 97.3063 347.368 91.783C341.11 86.1111 345.301 74.6996 347.881 68.5277Z" stroke="white" stroke-width="2"/>
<path fill-rule="evenodd" clip-rule="evenodd" d="M368.171 57.2356C374.5 43.8881 391.041 33.8177 404.743 30.6121C414.386 28.358 425.977 30.3052 417.573 41.9238C409.225 53.4537 393.734 63.9844 380.604 68.653C370.587 72.2133 362.736 68.7007 368.171 57.2356Z" stroke="white" stroke-width="2"/>
<path fill-rule="evenodd" clip-rule="evenodd" d="M-145.056 149.682C-145.462 123.312 -158.742 95.9059 -152.184 69.0365C-146.798 46.9687 -119.685 45.1263 -103.419 35.1283C-90.4941 27.1852 -83.1588 13.1144 -76.1688 -0.386071C-69.8883 -12.5065 -64.247 -24.9913 -57.6309 -36.9127C-53.3481 -44.6195 -45.9937 -59.7532 -36.7056 -60.0265C-27.8138 -60.2897 -19.6603 -48.4966 -14.4953 -41.5253C-7.76097 -32.4384 -1.7905 -22.7508 4.74888 -13.5188C15.7693 2.05354 28.9919 13.5801 44.1322 24.4892C61.3617 36.902 78.8757 48.8909 96.6742 60.4557C109.779 68.996 122.972 77.4722 135.568 86.8561C143.469 92.7442 160.908 103.792 160.988 114.647C161.026 119.826 156.376 125.562 153.24 129.703C147.934 136.711 141.887 143.119 135.821 149.388C124.522 161.067 112.745 172.215 101.094 183.499C85.9734 198.143 71.5298 212.548 58.2369 229.173C44.4934 246.382 31.3635 264.158 17.9651 281.691C8.89113 293.568 -0.173243 306.907 -13.2616 314.195C-29.6548 323.306 -43.1107 313.699 -59.6893 313.588C-73.9506 313.49 -72.8991 278.613 -74.7113 268.916C-76.53 259.1 -80.538 249.962 -82.0913 240.123C-84.0282 227.84 -84.0538 215.275 -84.53 202.861C-85.1085 187.676 -85.3386 173.221 -100.715 167.431C-109.467 164.141 -118.934 163.449 -127.992 161.478C-133.86 160.2 -144.928 158.013 -145.056 149.682Z" stroke="white" stroke-width="2"/>
<path fill-rule="evenodd" clip-rule="evenodd" d="M-138.042 144.993C-139.537 122.888 -148.369 94.5962 -140.017 71.7786C-132.882 52.2795 -110.568 49.7517 -95.5424 39.5088C-83.1384 31.0603 -77.6167 17.2352 -71.4163 3.65345C-66.4419 -7.2417 -61.618 -18.2416 -55.9714 -28.7887C-51.81 -36.5613 -45.456 -49.6835 -36.8036 -51.2921C-29.0251 -52.7384 -20.6833 -41.1539 -16.3171 -35.2602C-9.94706 -26.6563 -4.49892 -17.3123 1.12848 -8.16429C11.0164 7.90471 21.1413 22.355 35.6131 34.1592C50.1489 46.0141 66.0516 54.8783 82.124 64.104C94.6976 71.3224 107.207 78.7503 119.153 87.0838C128.052 93.2884 140.847 101.23 144.918 112.294C148.142 121.047 131.794 135.571 126.973 140.698C117.05 151.238 106.535 161.133 96.0004 170.967C83.1579 182.95 69.9057 193.43 58.5644 207.1C38.2795 231.539 21.3237 261.974 -4.77741 280.138C-20.52 291.094 -38.0392 293.896 -55.5488 292.257C-62.4822 291.608 -64.1468 281.277 -65.0206 275.252C-66.4739 265.242 -66.6564 255.06 -67.7735 245.009C-68.8203 235.601 -71.1442 226.663 -73.0168 217.437C-74.9118 208.09 -75.4432 198.512 -76.8388 189.101C-77.7031 183.258 -78.5578 176.459 -82.3382 171.761C-86.2498 166.898 -92.7031 164.86 -98.3433 163.313C-108.935 160.433 -136.986 160.592 -138.042 144.993Z" stroke="white" stroke-width="2"/>
<path fill-rule="evenodd" clip-rule="evenodd" d="M-129.022 135.739C-131.536 115.448 -135.056 90.1764 -124.814 71.4824C-116.443 56.1971 -98.5879 52.8997 -85.8351 42.9402C-75.228 34.658 -71.2215 21.4855 -65.9564 9.24444C-61.6361 -0.796119 -57.2933 -10.8805 -52.057 -20.4351C-48.0858 -27.6812 -42.968 -37.5058 -35.0832 -40.0336C-28.3416 -42.1936 -20.7258 -32.5175 -16.9884 -27.7014C-10.6248 -19.4935 -5.43652 -10.2967 -0.283503 -1.22138C8.14579 13.6285 15.9025 29.4909 27.8996 41.5699C39.5571 53.2912 53.4052 60.2099 67.5128 67.9893C78.3184 73.9495 89.0568 80.1392 99.2379 87.2469C107.056 92.7008 116.743 99.1639 120.817 108.239C124.34 116.066 115.296 125.33 110.777 130.852C103.315 139.964 95.0329 148.324 86.8662 156.717C78.0526 165.772 68.291 174.126 59.7624 183.403C41.8278 202.928 27.4992 224.544 5.39475 239.502C-8.92096 249.192 -28.1847 257.994 -45.1074 256.411C-57.2773 255.27 -56.4767 226.846 -57.6456 217.764C-59.5672 202.914 -63.279 187.312 -69.1751 173.633C-74.2384 161.911 -86.2706 158.297 -97.3389 155.668C-104.273 154.017 -111.539 153.126 -118.246 150.575C-126.009 147.618 -127.969 144.243 -129.022 135.739Z" stroke="white" stroke-width="2"/>
<path fill-rule="evenodd" clip-rule="evenodd" d="M-120.606 126.228C-122.103 109.073 -121.766 88.7877 -112.07 73.9485C-103.572 60.9506 -88.4433 57.5285 -77.683 47.2893C-69.285 39.3011 -65.9867 26.2761 -61.4704 15.712C-55.9508 2.79534 -48.2163 -21.0612 -34.2923 -25.9218C-21.3396 -30.4406 -7.7938 -1.57453 -3.10439 7.03317C4.31917 20.6572 10.5279 35.598 19.5317 48.1795C27.2854 59.0111 37.6739 64.9989 48.7003 71.4335C62.7589 79.652 84.1032 89.397 91.6197 105.414C97.2226 117.349 79.0035 135.093 72.782 143.362C66.2751 152 61.3742 162.239 54.659 170.573C44.0621 183.723 26.8911 194.311 12.7139 202.39C-1.06901 210.25 -18.9676 218.949 -34.6032 218.431C-44.8795 218.093 -46.8348 201.345 -49.0272 193.163C-52.1685 181.533 -56.345 171.111 -65.3168 163.201C-74.4488 155.148 -85.2123 151.354 -96.5271 148.033C-102.335 146.341 -108.961 145.02 -114.156 141.602C-119.897 137.882 -120.029 132.821 -120.606 126.228Z" stroke="white" stroke-width="2"/>
<path fill-rule="evenodd" clip-rule="evenodd" d="M-110.346 116.342C-110.263 101.522 -107.052 85.7179 -97.5311 74.2861C-89.6012 64.7642 -77.1889 61.5812 -69.5977 51.847C-63.5848 44.1405 -60.524 33.3217 -56.4984 24.3724C-51.575 13.4054 -44.6132 -5.75305 -32.3702 -9.55915C-20.4211 -13.2642 -9.85221 7.83775 -5.27066 16.1876C1.43873 28.4311 6.87012 41.4089 13.6402 53.6187C18.9438 63.1979 25.4296 69.3719 34.0655 75.5458C44.2031 82.7976 58.3471 90.8309 63.7625 102.828C67.6667 111.515 58.2161 125.396 54.7847 133.048C52.4843 138.188 50.3789 143.409 49.2223 148.98C48.3213 153.318 48.2319 157.333 45.6216 161.058C39.0496 170.429 24.6404 171.651 14.8639 174.74C1.87963 178.839 -11.897 183.498 -25.4851 184.387C-33.8367 184.943 -38.0987 176.822 -42.8656 171.109C-48.4983 164.356 -56.4728 159.499 -63.4378 154.403C-72.6297 147.666 -82.633 143.476 -92.9815 139.185C-97.6493 137.248 -103.132 135.349 -106.748 131.499C-110.525 127.507 -110.375 121.691 -110.346 116.342Z" stroke="white" stroke-width="2"/>
<path fill-rule="evenodd" clip-rule="evenodd" d="M-99.5774 107.541C-97.9271 95.0941 -92.7844 83.1977 -84.0981 74.3987C-77.4394 67.6433 -68.5964 63.8399 -63.2522 55.7232C-58.2726 48.1571 -54.8025 39.554 -50.6896 31.4643C-46.3369 22.9119 -39.8701 8.6173 -29.8309 6.29004C-19.0114 3.78376 -10.6769 18.2033 -6.0619 26.195C-0.231578 36.2945 4.19793 47.1606 9.411 57.608C13.3383 65.3948 18.3479 72.5165 24.2731 78.7357C30.4872 85.2919 38.9144 91.5711 42.0583 100.586C44.8375 108.571 39.6372 118.232 38.7193 126.328C37.7375 134.978 39.4581 144.065 34.0148 151.492C22.7891 166.81 -5.38388 163.97 -21.49 164.297C-37.3819 164.635 -50.1587 155.262 -63.0187 146.345C-71.5131 140.457 -80.3594 135.472 -89.0681 129.986C-97.9463 124.389 -101.029 118.495 -99.5774 107.541Z" stroke="white" stroke-width="2"/>
<path fill-rule="evenodd" clip-rule="evenodd" d="M-89.5683 100.418C-84.6881 82.3862 -69.4458 72.8022 -58.5493 59.175C-49.6338 48.0191 -42.9487 24.9162 -27.9336 21.8601C-10.8865 18.3916 -0.681232 49.0029 5.24543 60.8146C11.8217 73.9144 23.5342 84.57 28.4048 98.4372C30.9649 105.716 28.7664 112.507 27.4032 119.782C25.9087 127.771 24.7855 135.938 19.6268 142.368C9.47281 155.021 -10.3584 154.934 -24.6407 155.282C-39.4253 155.644 -52.5043 146.972 -64.284 138.318C-76.7773 129.153 -94.5669 118.91 -89.5683 100.418Z" stroke="white" stroke-width="2"/>
<path fill-rule="evenodd" clip-rule="evenodd" d="M-81.3961 95.5275C-75.897 82.6802 -64.3412 72.2356 -54.9643 62.3759C-47.138 54.156 -38.7185 37.6088 -26.7855 36.4292C-12.7606 35.038 -4.26053 52.7076 1.2579 63.542C6.6893 74.1881 14.5157 85.4291 17.5231 97.1136C20.6594 109.285 12.3077 125.678 4.34268 134.291C-4.54096 143.896 -19.0752 147.444 -31.5465 147.061C-44.6044 146.671 -56.5857 138.734 -66.475 130.5C-77.0477 121.699 -87.7912 110.441 -81.3961 95.5275Z" stroke="white" stroke-width="2"/>
<path fill-rule="evenodd" clip-rule="evenodd" d="M-73.8114 93.1094C-68.5587 82.4239 -59.4534 73.3846 -51.058 65.3217C-44.5792 59.0969 -35.019 48.5124 -25.6717 48.2531C-15.3888 47.967 -6.67399 56.8514 -2.58599 65.958C1.44393 74.94 5.69003 86.2012 6.29339 96.0551C7.60336 117.514 -19.0671 141.551 -39.0941 139.595C-58.0821 137.74 -84.2847 114.4 -73.8114 93.1094Z" stroke="white" stroke-width="2"/>
<path fill-rule="evenodd" clip-rule="evenodd" d="M501.084 563.588C475.016 580.276 445.547 594.051 417.758 608.053C377.147 628.511 335.938 648.42 293.267 663.66C270.389 671.828 240.744 683.605 216.196 677.206C207.221 674.866 199.036 667.791 190.988 663.194C179.892 656.855 168.632 650.83 157.392 644.791C134.843 632.687 112.225 620.704 90.0634 607.823C79.3924 601.619 69.0381 593.805 57.9288 588.512C51.4366 585.417 43.6677 586.865 36.7307 587.061C20.6618 587.516 4.60256 588.381 -11.4567 589.116C-31.0997 590.014 -50.7875 590.969 -70.4529 590.615C-79.3225 590.453 -101.045 592.114 -105.928 584.053C-108.555 579.712 -102.364 571.885 -99.4934 568.263C-94.2235 561.606 -88.1664 555.608 -82.1894 549.671C-68.3666 535.939 -53.6864 522.863 -41.3996 507.525C-35.0866 499.64 -26.8153 490.006 -30.9365 479.242C-35.0961 468.37 -42.3019 458.955 -46.6983 448.12C-51.7602 435.651 -53.8592 422.676 -56.2494 409.454C-58.0188 399.682 -62.1401 391.024 -66.0149 382.015C-70.2961 372.058 -74.7309 362.016 -77.7034 351.515C-79.6681 344.578 -82.8389 332.099 -75.966 327.708C-66.2005 321.463 -47.8886 326.519 -36.7568 328.359C-21.3727 330.897 -6.10047 334.131 9.24211 336.916C20.3803 338.941 31.5568 341.162 42.8806 341.398C61.1349 341.78 79.45 340.46 97.6563 339.231C131.368 336.956 164.839 333.871 198.664 333.871C228.3 333.871 296.783 370.046 312.814 376.415C344.811 389.131 377.659 401.184 407.938 418.102C416.129 422.683 428.736 428.786 433.046 438.213C435.705 444.022 434.483 447.381 440.754 451.124C449.31 456.231 460.272 458.236 469.743 460.522C484.996 464.201 500.368 467.316 515.691 470.648C546.683 477.369 577.465 484.97 608.329 492.285C617.659 494.496 628.948 494.985 637.843 498.88C643.577 501.381 642.982 504.531 638.544 508.332C630.759 515.001 619.848 518.704 610.652 522.508C597.178 528.081 583.483 533.053 569.782 537.955C556.081 542.856 542.309 547.605 528.602 552.516C519.547 555.75 509.221 558.379 501.084 563.588Z" stroke="white" stroke-width="2"/>
<path fill-rule="evenodd" clip-rule="evenodd" d="M479.635 559.917C452.061 576.639 421.452 589.961 391.944 602.958C354.18 619.602 315.561 635.202 275.77 645.607C252.407 651.712 224.842 658.452 200.971 651.451C192.454 648.953 186.092 643.339 178.792 638.383C170.471 632.728 161.83 627.546 153.189 622.445C135.401 611.946 117.426 601.805 99.2623 592.023C89.6419 586.82 79.0519 579.854 68.1833 578.049C59.5423 576.612 49.7266 578.691 41.0472 579.296C25.4165 580.384 9.789 581.507 -5.84811 582.46C-23.8919 583.558 -41.9869 584.572 -60.0691 584.397C-70.1471 584.299 -87.4485 585.918 -94.5758 579.046C-100.794 573.049 -78.1546 551.361 -74.1733 547.241C-61.7398 534.375 -48.6629 522.125 -37.0903 508.367C-30.2511 500.255 -21.9237 490.388 -19.0401 479.635C-16.5854 470.471 -21.322 460.029 -24.1191 451.558C-27.6172 440.948 -30.4399 429.948 -34.5044 419.561C-38.124 410.305 -43.8848 402.061 -48.9446 393.647C-54.5101 384.392 -60.146 374.985 -64.2777 364.888C-66.8092 358.675 -70.9985 348.271 -65.9675 342.348C-60.1556 335.52 -42.2397 339.982 -34.8756 340.956C-19.9362 342.957 -5.11202 345.931 9.72499 348.595C34.368 353.016 57.8621 356.884 82.9563 355.957C115.636 354.747 148.283 351.901 180.955 350.326C193.021 349.738 205.278 348.554 217.354 349.193C224.276 349.562 229.547 351.793 233.573 356.826C239.071 363.695 251.735 367.498 260.543 371.439C274.276 377.581 288.181 383.294 302.049 389.081C332.491 401.791 363.519 414.041 392.389 430.479C401.523 435.678 411.982 441.475 418.738 450.064C422.508 454.854 421.558 459.468 423.859 464.559C426.905 471.255 436.923 474.277 442.911 476.468C454.467 480.7 466.498 483.536 478.435 486.193C505.446 492.203 532.522 496.154 559.971 499.065C566.404 499.741 591.735 502.083 578.431 513.374C563.732 525.85 542.507 531.965 525.202 538.996C509.613 545.317 494.011 551.199 479.635 559.917Z" stroke="white" stroke-width="2"/>
<path fill-rule="evenodd" clip-rule="evenodd" d="M441.526 556.825C415.607 571.537 386.894 582.512 358.979 593.012C325.105 605.752 290.381 617.109 254.854 623.471C232.536 627.464 207.931 630.531 185.763 623.896C170.625 619.367 158.915 607.123 145.619 598.699C132.323 590.275 118.489 582.367 104.242 575.776C95.3992 571.685 85.887 567.564 76.048 568.104C52.125 569.414 28.2308 572.536 4.28211 574.051C-11.5609 575.064 -27.4358 575.897 -43.3268 575.648C-52.9095 575.499 -66.0741 576.107 -74.5579 570.788C-83.9355 564.905 -34.0037 514.678 -29.2845 509.025C-17.4527 494.85 -3.12513 476.038 -5.41267 455.88C-7.60089 436.608 -17.0843 422.221 -27.8107 407.121C-33.898 398.532 -53.419 375.585 -46.1847 364.414C-42.0517 358.029 -28.429 360.239 -21.9573 360.675C-9.20282 361.532 3.48116 363.375 16.1684 364.974C34.6673 367.293 53.6757 370.874 72.2547 371.924C85.1918 372.653 98.2058 371.677 111.165 371.657C129.748 371.63 148.33 371.778 166.912 371.954C182.515 372.102 198.249 371.954 213.797 373.533C223.463 374.505 230.8 376.689 237.733 382.859C243.766 388.225 252.868 391.367 260.557 394.779C273.257 400.412 286.124 405.633 298.949 410.938C325.8 422.049 352.959 432.926 378.66 446.811C390.392 453.146 410.118 462.015 412.871 477.375C413.864 482.913 414.594 485.306 419.72 488.455C426.996 492.923 435.711 494.938 443.874 496.69C462.905 500.774 482.487 500.163 501.485 504.199C509.223 505.863 519.324 509.454 510.491 517.675C500.185 527.291 485.181 532.576 472.833 538.516C466.669 541.479 460.319 544.253 454.466 547.871C449.971 550.659 446.123 554.233 441.526 556.825Z" stroke="white" stroke-width="2"/>
<path fill-rule="evenodd" clip-rule="evenodd" d="M392.435 552.233C368.489 564.182 342.483 572.87 316.944 580.701C288.577 589.389 259.526 596.585 230.091 599.646C209.766 601.767 188.11 602.393 168.383 595.901C155.908 591.794 147.45 583.157 136.715 575.914C120.513 564.967 102.984 556.293 83.5196 558.404C61.6976 560.765 39.8041 562.537 17.8392 563.718C4.58983 564.432 -8.71067 564.967 -21.976 564.469C-30.3632 564.158 -41.1686 563.634 -48.465 559.625C-58.2277 554.256 -21.557 513.402 -16.9859 507.448C-5.64946 492.681 2.66097 477.187 7.51671 458.891C11.4768 443.962 3.3871 432.226 -4.9585 421.059C-10.1469 414.124 -26.9117 396.681 -21.6625 387.675C-18.7836 382.709 -9.29603 382.966 -4.20038 382.712C5.5111 382.232 15.2642 382.732 24.9756 382.952C39.3157 383.291 54.5803 380.967 68.7989 382.837C100.31 386.978 131.741 390.564 163.447 393.403C180.926 394.965 198.509 396.386 215.831 399.401C222.049 400.483 228.472 401.63 234.364 404.079C238.155 405.653 240.221 408.332 243.42 410.531C258.672 420.998 278.581 426.384 295.758 433.092C318.594 442.01 341.552 450.789 363.78 461.324C375.472 466.865 391.802 473.232 399.847 484.542C402.278 487.959 401.241 490.692 402.77 493.977C404.53 497.766 409.875 498.896 413.326 499.951C421.16 502.35 453.951 505.977 438.84 520.047C431.63 526.749 422.443 531.048 414.315 536.316C411.372 538.224 408.502 540.142 406.049 542.717C401.945 547.033 397.902 549.496 392.435 552.233Z" stroke="white" stroke-width="2"/>
<path fill-rule="evenodd" clip-rule="evenodd" d="M340.131 547.058C292.858 566.39 237.457 579.56 185.918 577.009C168.779 576.157 150.339 573.315 135.482 563.588C126.722 557.843 119.721 551.357 109.198 549.282C101.601 547.785 93.421 549.485 85.7794 550.1C74.7113 550.992 63.6368 551.79 52.5527 552.435C38.8113 553.223 25.0251 553.831 11.2581 553.507C1.42083 553.273 -12.1635 553.537 -20.709 547.96C-30.9116 541.309 -4.94178 510.108 -1.28767 504.549C7.56873 491.074 13.7775 478.018 16.0213 461.779C16.6816 457.047 18.9061 452.197 18.6176 447.429C18.3163 442.559 15.4731 438.222 12.8479 434.393C9.415 429.374 -2.49611 417.471 0.914384 411.351C2.79914 407.971 9.87335 407.545 13.5403 406.829C20.419 405.477 27.3971 404.75 34.3175 403.675C46.0587 401.844 57.7165 395.879 69.4994 396.047C101.184 396.494 133.328 406.862 164.378 412.557C182.838 415.954 201.422 419.036 219.658 423.636C225.427 425.092 231.37 426.6 236.854 429.07C240.682 430.794 243.14 433.866 246.685 435.796C260.279 443.207 275.912 447.706 290.509 452.694C309.459 459.183 328.473 465.476 347.292 472.384C359.088 476.714 374.255 480.522 384.419 488.553C391.843 494.416 386.769 496.17 382.852 501.632C380.852 504.417 381.313 507.161 380.445 510.314C379.204 514.816 375.698 518.057 372.409 520.97C367.873 524.996 361.831 528.311 358.123 533.245C356.815 534.983 356.876 537.139 355.818 538.653C352.741 543.063 344.577 545.24 340.131 547.058Z" stroke="white" stroke-width="2"/>
<path fill-rule="evenodd" clip-rule="evenodd" d="M289.867 540.17C251.5 552.324 208.811 559.245 168.255 556.033C154.145 554.914 139.948 552.314 126.804 546.604C120.824 544.014 116.334 541.127 109.782 540.971C94.5768 540.613 79.324 541.867 64.1225 542.168C53.2437 542.384 42.3105 542.462 31.4572 541.539C24.2004 540.924 14.3871 540.187 8.44214 535.491C-0.196918 528.652 15.3982 505.402 18.5723 498.978C23.8325 488.325 29.0511 476.482 26.9649 464.156C26.325 460.386 25.1923 457.056 25.0451 453.212C24.9043 449.909 25.2979 446.859 24.1876 443.702C22.815 439.787 16.7101 433.711 18.8091 430.107C20.2393 427.646 24.482 427.531 27.3041 426.744C31.8813 425.466 36.3505 423.79 40.6659 421.733C45.2094 419.556 49.0777 416.192 53.7844 414.393C61.4252 411.479 69.9779 411.205 78.009 411.218C110.053 411.273 142.504 417.943 173.736 424.918C190 428.549 206.353 432.42 222.16 437.927C226.959 439.601 232.399 441.281 236.619 444.371C239.252 446.295 241.038 448.705 244.029 450.152C269.585 462.506 299.13 467.094 326.26 476.016C333.322 478.338 372.457 490.073 351.995 501.111C339.564 507.819 326.43 510.868 315.087 520.044C311.632 522.833 309.328 525.142 307.978 529.399C307.088 532.232 309.229 530.795 306.24 533.757C302.615 537.317 294.337 538.754 289.867 540.17Z" stroke="white" stroke-width="2"/>
<path fill-rule="evenodd" clip-rule="evenodd" d="M249.974 532.983C205.055 542.904 157.486 543.376 111.857 534.581C100.355 532.367 88.384 532.896 76.7403 532.333C65.4271 531.794 45.313 532.916 37.096 523.737C31.1378 517.083 37.6029 502.942 39.8393 495.499C42.6884 486.017 45.1782 476.221 40.5002 467.012C37.7602 461.618 34.0062 456.484 31.0672 451.141C29.6619 448.59 26.7678 444.679 27.9742 442.262C29.9699 438.275 39.3066 436.596 43.8371 434.715C58.3171 428.705 73.6505 427.171 89.1315 427.214C117.726 427.292 146.468 431.418 174.516 437.014C187.421 439.589 200.505 442.337 212.951 446.813C219.994 449.345 225.188 454.229 231.913 457.125C253.567 466.455 276.832 471.441 298.859 479.973C305.234 482.444 329.048 490.669 317.051 500.367C305.436 509.755 288.495 508.639 276.418 517.471C275.052 518.482 273.361 519.692 272.568 521.327C272.1 522.304 272.924 524.165 272.568 524.721C268.859 530.765 255.676 531.726 249.974 532.983Z" stroke="white" stroke-width="2"/>
<path fill-rule="evenodd" clip-rule="evenodd" d="M220.872 526.426C197.827 529.761 174.276 530.588 150.843 530.798C138.034 530.914 123.962 531.774 111.429 528.351C103.73 526.243 96.2948 524.399 88.3588 523.071C79.8197 521.641 66.0711 520.6 60.8713 512.849C56.9867 507.057 59.6491 495.15 59.7903 488.108C59.941 480.383 58.4398 474.656 53.2721 469.128C50.0226 465.647 35.116 453.012 36.8386 449.369C38.4778 445.898 48.8646 445.366 53.3555 444.464C67.5499 441.604 81.9336 440.607 96.3718 440.763C118.733 441.001 141.178 443.407 163.19 447.542C172.29 449.26 181.696 451.04 190.389 454.473C196.243 456.788 201.125 460.892 206.941 463.285C223.596 470.148 241.206 474.808 257.919 481.797C263.282 484.044 280.758 490.026 276.569 499.245C273.075 506.942 261.194 509.283 255.356 514.442C245.424 523.24 233.536 524.596 220.872 526.426Z" stroke="white" stroke-width="2"/>
<path fill-rule="evenodd" clip-rule="evenodd" d="M206.355 522.004C188.075 524.212 169.369 525.177 150.82 525.225C138.85 525.255 126.221 525.427 114.473 522.588C108.573 521.163 103.445 517.831 97.8605 515.455C92.1099 513.01 84.1741 510.283 81.6886 504.679C79.3532 499.412 80.2254 491.728 78.1744 485.378C76.3501 479.744 72.5324 476.263 68.4207 472.455C65.801 470.021 52.3478 459.485 53.9036 457.159C55.5713 454.667 63.6509 454.87 67.8552 454.525C79.439 453.56 91.0634 453.252 102.678 453.604C118.531 454.117 134.505 455.548 150.082 458.789C161.133 461.085 169.468 466.554 179.771 470.565C193.119 475.774 206.946 479.892 220.166 485.591C226.754 488.43 236.504 492.083 239.878 499.412C241.175 502.221 242.434 509.364 240.99 512.173C239.255 515.549 232.798 516.981 229.75 517.848C222.115 520.012 214.125 521.066 206.355 522.004Z" stroke="white" stroke-width="2"/>
</g>
<ellipse opacity="0.2" cx="561.999" cy="593.11" rx="391.335" ry="346.328" transform="rotate(44.1987 561.999 593.11)" fill="#4BA07B"/>
<ellipse opacity="0.1" cx="199.311" cy="-10.8474" rx="265.058" ry="142.498" transform="rotate(148.058 199.311 -10.8474)" fill="#4BA07B"/>
<g filter="url(#filter0_d_1222_18665)">
<rect x="167" y="103" width="256" height="274" rx="15" fill="white"/>
</g>
<path d="M259.182 280C258.996 279.453 258.802 278.913 258.602 278.38C258.402 277.847 258.209 277.3 258.022 276.74H252.182C251.996 277.3 251.802 277.853 251.602 278.4C251.416 278.933 251.229 279.467 251.042 280H248.422C248.942 278.52 249.436 277.153 249.902 275.9C250.369 274.647 250.822 273.46 251.262 272.34C251.716 271.22 252.162 270.153 252.602 269.14C253.042 268.127 253.496 267.127 253.962 266.14H256.342C256.809 267.127 257.262 268.127 257.702 269.14C258.142 270.153 258.582 271.22 259.022 272.34C259.476 273.46 259.936 274.647 260.402 275.9C260.882 277.153 261.382 278.52 261.902 280H259.182ZM255.102 268.82C254.796 269.527 254.442 270.387 254.042 271.4C253.656 272.413 253.249 273.513 252.822 274.7H257.382C256.956 273.513 256.542 272.407 256.142 271.38C255.742 270.353 255.396 269.5 255.102 268.82ZM267.794 264.48C268.354 264.48 268.847 264.533 269.274 264.64C269.701 264.733 270.021 264.82 270.234 264.9L269.774 266.9C269.547 266.793 269.281 266.707 268.974 266.64C268.681 266.573 268.361 266.54 268.014 266.54C267.627 266.54 267.301 266.6 267.034 266.72C266.767 266.827 266.554 266.98 266.394 267.18C266.234 267.38 266.121 267.627 266.054 267.92C265.987 268.2 265.954 268.507 265.954 268.84V269.54H269.754V271.56H265.954V280H263.534V268.8C263.534 267.453 263.887 266.4 264.594 265.64C265.301 264.867 266.367 264.48 267.794 264.48ZM271.422 266.78L273.842 266.38V269.54H277.562V271.56H273.842V275.82C273.842 276.66 273.975 277.26 274.242 277.62C274.509 277.98 274.962 278.16 275.602 278.16C276.042 278.16 276.429 278.113 276.762 278.02C277.109 277.927 277.382 277.84 277.582 277.76L277.982 279.68C277.702 279.8 277.335 279.92 276.882 280.04C276.429 280.173 275.895 280.24 275.282 280.24C274.535 280.24 273.909 280.14 273.402 279.94C272.909 279.74 272.515 279.453 272.222 279.08C271.929 278.693 271.722 278.233 271.602 277.7C271.482 277.153 271.422 276.533 271.422 275.84V266.78ZM279.146 274.82C279.146 273.9 279.279 273.093 279.546 272.4C279.826 271.707 280.192 271.133 280.646 270.68C281.099 270.213 281.619 269.867 282.206 269.64C282.792 269.4 283.392 269.28 284.006 269.28C285.446 269.28 286.566 269.727 287.366 270.62C288.179 271.513 288.586 272.847 288.586 274.62C288.586 274.753 288.579 274.907 288.566 275.08C288.566 275.24 288.559 275.387 288.546 275.52H281.646C281.712 276.36 282.006 277.013 282.526 277.48C283.059 277.933 283.826 278.16 284.826 278.16C285.412 278.16 285.946 278.107 286.426 278C286.919 277.893 287.306 277.78 287.586 277.66L287.906 279.64C287.772 279.707 287.586 279.78 287.346 279.86C287.119 279.927 286.852 279.987 286.546 280.04C286.252 280.107 285.932 280.16 285.586 280.2C285.239 280.24 284.886 280.26 284.526 280.26C283.606 280.26 282.806 280.127 282.126 279.86C281.446 279.58 280.886 279.2 280.446 278.72C280.006 278.227 279.679 277.653 279.466 277C279.252 276.333 279.146 275.607 279.146 274.82ZM286.166 273.74C286.166 273.407 286.119 273.093 286.026 272.8C285.932 272.493 285.792 272.233 285.606 272.02C285.432 271.793 285.212 271.62 284.946 271.5C284.692 271.367 284.386 271.3 284.026 271.3C283.652 271.3 283.326 271.373 283.046 271.52C282.766 271.653 282.526 271.833 282.326 272.06C282.139 272.287 281.992 272.547 281.886 272.84C281.779 273.133 281.706 273.433 281.666 273.74H286.166ZM297.111 271.72C296.911 271.653 296.631 271.587 296.271 271.52C295.925 271.44 295.518 271.4 295.051 271.4C294.785 271.4 294.498 271.427 294.191 271.48C293.898 271.533 293.691 271.58 293.571 271.62V280H291.151V270.04C291.618 269.867 292.198 269.707 292.891 269.56C293.598 269.4 294.378 269.32 295.231 269.32C295.391 269.32 295.578 269.333 295.791 269.36C296.005 269.373 296.218 269.4 296.431 269.44C296.645 269.467 296.851 269.507 297.051 269.56C297.251 269.6 297.411 269.64 297.531 269.68L297.111 271.72ZM301.118 274.5C301.118 275.527 301.338 276.28 301.778 276.76C302.231 277.227 302.811 277.46 303.518 277.46C303.904 277.46 304.264 277.407 304.598 277.3C304.944 277.193 305.224 277.067 305.438 276.92V271.5C305.264 271.46 305.051 271.427 304.798 271.4C304.544 271.36 304.224 271.34 303.838 271.34C302.958 271.34 302.284 271.633 301.818 272.22C301.351 272.793 301.118 273.553 301.118 274.5ZM307.858 278.94C307.858 280.607 307.431 281.827 306.578 282.6C305.738 283.373 304.444 283.76 302.698 283.76C302.058 283.76 301.431 283.707 300.818 283.6C300.218 283.493 299.671 283.353 299.178 283.18L299.618 281.12C300.031 281.293 300.498 281.433 301.018 281.54C301.551 281.647 302.124 281.7 302.738 281.7C303.711 281.7 304.404 281.5 304.818 281.1C305.231 280.7 305.438 280.107 305.438 279.32V278.92C305.198 279.04 304.878 279.16 304.478 279.28C304.091 279.4 303.644 279.46 303.138 279.46C302.471 279.46 301.858 279.353 301.298 279.14C300.751 278.927 300.278 278.613 299.878 278.2C299.491 277.787 299.184 277.273 298.958 276.66C298.744 276.033 298.638 275.313 298.638 274.5C298.638 273.74 298.751 273.04 298.978 272.4C299.218 271.76 299.558 271.213 299.998 270.76C300.451 270.307 300.998 269.953 301.638 269.7C302.278 269.447 303.004 269.32 303.818 269.32C304.604 269.32 305.351 269.38 306.058 269.5C306.764 269.62 307.364 269.747 307.858 269.88V278.94ZM314.576 280.2C313.856 280.187 313.256 280.107 312.776 279.96C312.31 279.813 311.936 279.607 311.656 279.34C311.376 279.06 311.176 278.72 311.056 278.32C310.95 277.907 310.896 277.44 310.896 276.92V264.88L313.316 264.48V276.46C313.316 276.753 313.336 277 313.376 277.2C313.43 277.4 313.516 277.573 313.636 277.72C313.756 277.853 313.916 277.96 314.116 278.04C314.33 278.107 314.596 278.16 314.916 278.2L314.576 280.2ZM326.334 274.76C326.334 275.587 326.214 276.34 325.974 277.02C325.734 277.7 325.394 278.28 324.954 278.76C324.514 279.24 323.981 279.613 323.354 279.88C322.741 280.147 322.061 280.28 321.314 280.28C320.567 280.28 319.887 280.147 319.274 279.88C318.661 279.613 318.134 279.24 317.694 278.76C317.254 278.28 316.907 277.7 316.654 277.02C316.414 276.34 316.294 275.587 316.294 274.76C316.294 273.933 316.414 273.187 316.654 272.52C316.907 271.84 317.254 271.26 317.694 270.78C318.147 270.3 318.681 269.933 319.294 269.68C319.907 269.413 320.581 269.28 321.314 269.28C322.047 269.28 322.721 269.413 323.334 269.68C323.961 269.933 324.494 270.3 324.934 270.78C325.374 271.26 325.714 271.84 325.954 272.52C326.207 273.187 326.334 273.933 326.334 274.76ZM323.854 274.76C323.854 273.72 323.627 272.9 323.174 272.3C322.734 271.687 322.114 271.38 321.314 271.38C320.514 271.38 319.887 271.687 319.434 272.3C318.994 272.9 318.774 273.72 318.774 274.76C318.774 275.813 318.994 276.647 319.434 277.26C319.887 277.873 320.514 278.18 321.314 278.18C322.114 278.18 322.734 277.873 323.174 277.26C323.627 276.647 323.854 275.813 323.854 274.76ZM334.852 273.42C334.546 274.593 334.212 275.74 333.852 276.86C333.506 277.967 333.159 279.013 332.812 280H330.832C330.566 279.387 330.286 278.687 329.992 277.9C329.699 277.113 329.406 276.273 329.112 275.38C328.819 274.487 328.526 273.547 328.232 272.56C327.939 271.573 327.652 270.567 327.372 269.54H329.932C330.052 270.1 330.192 270.707 330.352 271.36C330.512 272 330.679 272.66 330.852 273.34C331.026 274.007 331.206 274.66 331.392 275.3C331.579 275.94 331.766 276.527 331.952 277.06C332.152 276.447 332.346 275.813 332.532 275.16C332.732 274.507 332.919 273.853 333.092 273.2C333.266 272.547 333.426 271.913 333.572 271.3C333.732 270.673 333.872 270.087 333.992 269.54H335.852C335.972 270.087 336.106 270.673 336.252 271.3C336.399 271.913 336.552 272.547 336.712 273.2C336.886 273.853 337.066 274.507 337.252 275.16C337.452 275.813 337.652 276.447 337.852 277.06C338.026 276.527 338.206 275.94 338.392 275.3C338.579 274.66 338.759 274.007 338.932 273.34C339.119 272.66 339.292 272 339.452 271.36C339.612 270.707 339.752 270.1 339.872 269.54H342.372C342.092 270.567 341.806 271.573 341.512 272.56C341.219 273.547 340.926 274.487 340.632 275.38C340.339 276.273 340.046 277.113 339.752 277.9C339.459 278.687 339.172 279.387 338.892 280H336.932C336.586 279.013 336.226 277.967 335.852 276.86C335.492 275.74 335.159 274.593 334.852 273.42Z" fill="#2D2D2D"/>
<circle cx="295" cy="188" r="51" fill="#EDEDE9"/>
<path fill-rule="evenodd" clip-rule="evenodd" d="M330.108 196C330.692 193.427 331 190.75 331 188C331 168.118 314.882 152 295 152C275.118 152 259 168.118 259 188C259 190.75 259.308 193.427 259.892 196H330.108ZM324.938 208H265.062C271.52 217.648 282.518 224 295 224C307.482 224 318.48 217.648 324.938 208Z" fill="#2D2D2D"/>
<rect x="210" y="311" width="160" height="7" rx="3.5" fill="#EDEDE9"/>
<rect x="210" y="336" width="83" height="7" rx="3.5" fill="#EDEDE9"/>
<g filter="url(#filter1_d_1222_18665)">
<rect x="-109" y="103" width="256" height="274" rx="15" fill="white"/>
</g>
<path d="M9.04945 280C8.86279 279.453 8.66945 278.913 8.46945 278.38C8.26945 277.847 8.07612 277.3 7.88945 276.74H2.04945C1.86279 277.3 1.66945 277.853 1.46945 278.4C1.28279 278.933 1.09612 279.467 0.909453 280H-1.71055C-1.19055 278.52 -0.697213 277.153 -0.230547 275.9C0.23612 274.647 0.689453 273.46 1.12945 272.34C1.58279 271.22 2.02945 270.153 2.46945 269.14C2.90945 268.127 3.36279 267.127 3.82945 266.14H6.20945C6.67612 267.127 7.12945 268.127 7.56945 269.14C8.00945 270.153 8.44945 271.22 8.88945 272.34C9.34279 273.46 9.80279 274.647 10.2695 275.9C10.7495 277.153 11.2495 278.52 11.7695 280H9.04945ZM4.96945 268.82C4.66279 269.527 4.30945 270.387 3.90945 271.4C3.52279 272.413 3.11612 273.513 2.68945 274.7H7.24945C6.82279 273.513 6.40945 272.407 6.00945 271.38C5.60945 270.353 5.26279 269.5 4.96945 268.82ZM17.7013 280.16C16.968 280.16 16.228 280.133 15.4813 280.08C14.7347 280.04 14.0813 279.947 13.5213 279.8V266.34C13.8147 266.287 14.128 266.24 14.4613 266.2C14.7947 266.147 15.1347 266.107 15.4813 266.08C15.828 266.053 16.168 266.033 16.5013 266.02C16.848 266.007 17.1747 266 17.4813 266C18.3213 266 19.1013 266.067 19.8213 266.2C20.5413 266.32 21.1613 266.527 21.6813 266.82C22.2147 267.113 22.628 267.5 22.9213 267.98C23.2147 268.46 23.3613 269.053 23.3613 269.76C23.3613 270.413 23.2013 270.973 22.8813 271.44C22.5747 271.907 22.1413 272.28 21.5813 272.56C22.4213 272.84 23.0413 273.253 23.4413 273.8C23.8413 274.347 24.0413 275.04 24.0413 275.88C24.0413 277.307 23.5213 278.38 22.4813 279.1C21.4413 279.807 19.848 280.16 17.7013 280.16ZM16.0013 273.76V277.98C16.2813 278.007 16.5813 278.027 16.9013 278.04C17.2213 278.053 17.5147 278.06 17.7813 278.06C18.3013 278.06 18.7813 278.027 19.2213 277.96C19.6747 277.893 20.0613 277.78 20.3813 277.62C20.7147 277.447 20.9747 277.22 21.1613 276.94C21.3613 276.66 21.4613 276.3 21.4613 275.86C21.4613 275.073 21.1747 274.527 20.6013 274.22C20.028 273.913 19.2347 273.76 18.2213 273.76H16.0013ZM16.0013 271.78H17.7813C18.7413 271.78 19.4947 271.647 20.0413 271.38C20.588 271.1 20.8613 270.607 20.8613 269.9C20.8613 269.233 20.5747 268.76 20.0013 268.48C19.4413 268.2 18.708 268.06 17.8013 268.06C17.4147 268.06 17.068 268.067 16.7613 268.08C16.468 268.093 16.2147 268.113 16.0013 268.14V271.78ZM36.0059 280C35.5525 279.24 35.0459 278.427 34.4859 277.56C33.9259 276.68 33.3459 275.8 32.7459 274.92C32.1459 274.027 31.5325 273.167 30.9059 272.34C30.2925 271.5 29.7059 270.747 29.1459 270.08V280H26.6659V266.14H28.7259C29.2592 266.7 29.8325 267.367 30.4459 268.14C31.0592 268.9 31.6725 269.693 32.2859 270.52C32.9125 271.347 33.5125 272.18 34.0859 273.02C34.6725 273.847 35.1925 274.62 35.6459 275.34V266.14H38.1459V280H36.0059Z" fill="#2D2D2D"/>
<circle cx="19" cy="188" r="51" fill="#EDEDE9"/>
<rect x="-66" y="311" width="118" height="7" rx="3.5" fill="#EDEDE9"/>
<rect x="-66" y="336" width="136" height="7" rx="3.5" fill="#EDEDE9"/>
<path d="M0.904 194.744H-7.992L-9.464 199H-14.168L-6.136 176.632H-0.919999L7.112 199H2.376L0.904 194.744ZM-0.311999 191.16L-3.544 181.816L-6.776 191.16H-0.311999ZM23.7863 187.544C25.0449 187.779 26.0796 188.408 26.8903 189.432C27.7009 190.456 28.1063 191.629 28.1063 192.952C28.1063 194.147 27.8076 195.203 27.2103 196.12C26.6343 197.016 25.7916 197.72 24.6823 198.232C23.5729 198.744 22.2609 199 20.7463 199H11.1143V176.664H20.3303C21.8449 176.664 23.1463 176.909 24.2343 177.4C25.3436 177.891 26.1756 178.573 26.7303 179.448C27.3063 180.323 27.5943 181.315 27.5943 182.424C27.5943 183.725 27.2423 184.813 26.5382 185.688C25.8556 186.563 24.9383 187.181 23.7863 187.544ZM15.5943 185.88H19.6903C20.7569 185.88 21.5783 185.645 22.1543 185.176C22.7303 184.685 23.0183 183.992 23.0183 183.096C23.0183 182.2 22.7303 181.507 22.1543 181.016C21.5783 180.525 20.7569 180.28 19.6903 180.28H15.5943V185.88ZM20.1063 195.352C21.1943 195.352 22.0369 195.096 22.6343 194.584C23.2529 194.072 23.5623 193.347 23.5623 192.408C23.5623 191.448 23.2423 190.701 22.6023 190.168C21.9623 189.613 21.0983 189.336 20.0103 189.336H15.5943V195.352H20.1063ZM51.7808 199H47.3008L37.1568 183.672V199H32.6768V176.632H37.1568L47.3008 191.992V176.632H51.7808V199Z" fill="#BFBFBF"/>
<g filter="url(#filter2_d_1222_18665)">
<rect x="443" y="103" width="256" height="274" rx="15" fill="white"/>
</g>
<path d="M561.479 277.82V280H552.719V266.14H555.239V277.82H561.479ZM572.547 274.76C572.547 275.587 572.427 276.34 572.187 277.02C571.947 277.7 571.607 278.28 571.167 278.76C570.727 279.24 570.194 279.613 569.567 279.88C568.954 280.147 568.274 280.28 567.527 280.28C566.78 280.28 566.1 280.147 565.487 279.88C564.874 279.613 564.347 279.24 563.907 278.76C563.467 278.28 563.12 277.7 562.867 277.02C562.627 276.34 562.507 275.587 562.507 274.76C562.507 273.933 562.627 273.187 562.867 272.52C563.12 271.84 563.467 271.26 563.907 270.78C564.36 270.3 564.894 269.933 565.507 269.68C566.12 269.413 566.794 269.28 567.527 269.28C568.26 269.28 568.934 269.413 569.547 269.68C570.174 269.933 570.707 270.3 571.147 270.78C571.587 271.26 571.927 271.84 572.167 272.52C572.42 273.187 572.547 273.933 572.547 274.76ZM570.067 274.76C570.067 273.72 569.84 272.9 569.387 272.3C568.947 271.687 568.327 271.38 567.527 271.38C566.727 271.38 566.1 271.687 565.647 272.3C565.207 272.9 564.987 273.72 564.987 274.76C564.987 275.813 565.207 276.647 565.647 277.26C566.1 277.873 566.727 278.18 567.527 278.18C568.327 278.18 568.947 277.873 569.387 277.26C569.84 276.647 570.067 275.813 570.067 274.76ZM581.98 274.74C581.98 273.713 581.773 272.9 581.36 272.3C580.96 271.7 580.32 271.4 579.44 271.4C579.04 271.4 578.66 271.46 578.3 271.58C577.953 271.7 577.673 271.833 577.46 271.98V278C577.633 278.04 577.853 278.08 578.12 278.12C578.4 278.147 578.733 278.16 579.12 278.16C580.013 278.16 580.713 277.86 581.22 277.26C581.727 276.647 581.98 275.807 581.98 274.74ZM584.46 274.78C584.46 275.62 584.333 276.38 584.08 277.06C583.84 277.727 583.487 278.3 583.02 278.78C582.567 279.26 582.013 279.627 581.36 279.88C580.707 280.133 579.967 280.26 579.14 280.26C578.34 280.26 577.573 280.2 576.84 280.08C576.12 279.96 575.52 279.827 575.04 279.68V264.88L577.46 264.48V269.9C577.74 269.753 578.08 269.62 578.48 269.5C578.893 269.38 579.347 269.32 579.84 269.32C580.573 269.32 581.227 269.453 581.8 269.72C582.387 269.973 582.873 270.34 583.26 270.82C583.647 271.3 583.94 271.88 584.14 272.56C584.353 273.227 584.46 273.967 584.46 274.78ZM589.394 280H586.974V269.54H589.394V280ZM589.654 266.48C589.654 266.933 589.507 267.293 589.214 267.56C588.921 267.827 588.574 267.96 588.174 267.96C587.761 267.96 587.407 267.827 587.114 267.56C586.821 267.293 586.674 266.933 586.674 266.48C586.674 266.013 586.821 265.647 587.114 265.38C587.407 265.113 587.761 264.98 588.174 264.98C588.574 264.98 588.921 265.113 589.214 265.38C589.507 265.647 589.654 266.013 589.654 266.48Z" fill="#2D2D2D"/>
<circle cx="571" cy="188" r="51" fill="#EDEDE9"/>
<rect x="486" y="311" width="162" height="7" rx="3.5" fill="#EDEDE9"/>
<rect x="486" y="336" width="124" height="7" rx="3.5" fill="#EDEDE9"/>
<path d="M575 164C575 157.373 580.373 152 587 152H595C601.627 152 607 157.373 607 164V172C607 178.627 601.627 184 595 184H575V164Z" fill="#4BA07B"/>
<path fill-rule="evenodd" clip-rule="evenodd" d="M571 158H553C546.373 158 541 163.373 541 170V188V206C541 212.627 546.373 218 553 218H571H589C595.627 218 601 212.627 601 206V188H571V158Z" fill="#4BA07B"/>
</g>
<defs>
<filter id="filter0_d_1222_18665" x="87" y="55" width="416" height="434" filterUnits="userSpaceOnUse" color-interpolation-filters="sRGB">
<feFlood flood-opacity="0" result="BackgroundImageFix"/>
<feColorMatrix in="SourceAlpha" type="matrix" values="0 0 0 0 0 0 0 0 0 0 0 0 0 0 0 0 0 0 127 0" result="hardAlpha"/>
<feOffset dy="32"/>
<feGaussianBlur stdDeviation="40"/>
<feComposite in2="hardAlpha" operator="out"/>
<feColorMatrix type="matrix" values="0 0 0 0 0.636 0 0 0 0 0.624 0 0 0 0 0.564 0 0 0 0.12 0"/>
<feBlend mode="normal" in2="BackgroundImageFix" result="effect1_dropShadow_1222_18665"/>
<feBlend mode="normal" in="SourceGraphic" in2="effect1_dropShadow_1222_18665" result="shape"/>
</filter>
<filter id="filter1_d_1222_18665" x="-189" y="55" width="416" height="434" filterUnits="userSpaceOnUse" color-interpolation-filters="sRGB">
<feFlood flood-opacity="0" result="BackgroundImageFix"/>
<feColorMatrix in="SourceAlpha" type="matrix" values="0 0 0 0 0 0 0 0 0 0 0 0 0 0 0 0 0 0 127 0" result="hardAlpha"/>
<feOffset dy="32"/>
<feGaussianBlur stdDeviation="40"/>
<feComposite in2="hardAlpha" operator="out"/>
<feColorMatrix type="matrix" values="0 0 0 0 0.636 0 0 0 0 0.624 0 0 0 0 0.564 0 0 0 0.12 0"/>
<feBlend mode="normal" in2="BackgroundImageFix" result="effect1_dropShadow_1222_18665"/>
<feBlend mode="normal" in="SourceGraphic" in2="effect1_dropShadow_1222_18665" result="shape"/>
</filter>
<filter id="filter2_d_1222_18665" x="363" y="55" width="416" height="434" filterUnits="userSpaceOnUse" color-interpolation-filters="sRGB">
<feFlood flood-opacity="0" result="BackgroundImageFix"/>
<feColorMatrix in="SourceAlpha" type="matrix" values="0 0 0 0 0 0 0 0 0 0 0 0 0 0 0 0 0 0 127 0" result="hardAlpha"/>
<feOffset dy="32"/>
<feGaussianBlur stdDeviation="40"/>
<feComposite in2="hardAlpha" operator="out"/>
<feColorMatrix type="matrix" values="0 0 0 0 0.636 0 0 0 0 0.624 0 0 0 0 0.564 0 0 0 0.12 0"/>
<feBlend mode="normal" in2="BackgroundImageFix" result="effect1_dropShadow_1222_18665"/>
<feBlend mode="normal" in="SourceGraphic" in2="effect1_dropShadow_1222_18665" result="shape"/>
</filter>
</defs>
</svg>
