<svg width="101" height="22" viewBox="0 0 101 22" fill="none" xmlns="http://www.w3.org/2000/svg">
<path d="M8.764 16.52L12.152 5.376H17.248L11.704 21H5.796L0.252 5.376H5.376L8.764 16.52ZM33.9913 12.936C33.9913 13.384 33.9633 13.8507 33.9073 14.336H23.0713C23.146 15.3067 23.454 16.0533 23.9953 16.576C24.5553 17.08 25.2367 17.332 26.0393 17.332C27.234 17.332 28.0647 16.828 28.5313 15.82H33.6273C33.366 16.8467 32.89 17.7707 32.1993 18.592C31.5273 19.4133 30.678 20.0573 29.6513 20.524C28.6247 20.9907 27.4767 21.224 26.2073 21.224C24.6767 21.224 23.314 20.8973 22.1193 20.244C20.9247 19.5907 19.9913 18.6573 19.3193 17.444C18.6473 16.2307 18.3113 14.812 18.3113 13.188C18.3113 11.564 18.638 10.1453 19.2913 8.932C19.9633 7.71867 20.8967 6.78533 22.0913 6.132C23.286 5.47867 24.658 5.152 26.2073 5.152C27.7193 5.152 29.0633 5.46933 30.2393 6.104C31.4153 6.73867 32.33 7.644 32.9833 8.82C33.6553 9.996 33.9913 11.368 33.9913 12.936ZM29.0913 11.676C29.0913 10.8547 28.8113 10.2013 28.2513 9.716C27.6913 9.23067 26.9913 8.988 26.1513 8.988C25.3487 8.988 24.6673 9.22133 24.1073 9.688C23.566 10.1547 23.23 10.8173 23.0993 11.676H29.0913ZM45.2253 16.94V21H42.7893C41.0533 21 39.6999 20.58 38.7293 19.74C37.7586 18.8813 37.2733 17.4907 37.2733 15.568V9.352H35.3693V5.376H37.2733V1.568H42.0613V5.376H45.1973V9.352H42.0613V15.624C42.0613 16.0907 42.1733 16.4267 42.3973 16.632C42.6213 16.8373 42.9946 16.94 43.5173 16.94H45.2253ZM56.6003 16.94V21H54.1643C52.4283 21 51.0749 20.58 50.1043 19.74C49.1336 18.8813 48.6483 17.4907 48.6483 15.568V9.352H46.7443V5.376H48.6483V1.568H53.4363V5.376H56.5723V9.352H53.4363V15.624C53.4363 16.0907 53.5483 16.4267 53.7723 16.632C53.9963 16.8373 54.3696 16.94 54.8923 16.94H56.6003ZM73.9952 12.936C73.9952 13.384 73.9673 13.8507 73.9113 14.336H63.0753C63.1499 15.3067 63.4579 16.0533 63.9993 16.576C64.5593 17.08 65.2406 17.332 66.0433 17.332C67.2379 17.332 68.0686 16.828 68.5353 15.82H73.6313C73.3699 16.8467 72.8939 17.7707 72.2033 18.592C71.5313 19.4133 70.6819 20.0573 69.6553 20.524C68.6286 20.9907 67.4806 21.224 66.2113 21.224C64.6806 21.224 63.3179 20.8973 62.1233 20.244C60.9286 19.5907 59.9953 18.6573 59.3233 17.444C58.6513 16.2307 58.3153 14.812 58.3153 13.188C58.3153 11.564 58.6419 10.1453 59.2953 8.932C59.9673 7.71867 60.9006 6.78533 62.0953 6.132C63.2899 5.47867 64.6619 5.152 66.2113 5.152C67.7233 5.152 69.0673 5.46933 70.2433 6.104C71.4193 6.73867 72.3339 7.644 72.9873 8.82C73.6593 9.996 73.9952 11.368 73.9952 12.936ZM69.0953 11.676C69.0953 10.8547 68.8153 10.2013 68.2553 9.716C67.6953 9.23067 66.9953 8.988 66.1553 8.988C65.3526 8.988 64.6713 9.22133 64.1113 9.688C63.5699 10.1547 63.2339 10.8173 63.1033 11.676H69.0953ZM75.5692 13.16C75.5692 11.5547 75.8678 10.1453 76.4652 8.932C77.0812 7.71867 77.9118 6.78533 78.9572 6.132C80.0025 5.47867 81.1692 5.152 82.4572 5.152C83.4838 5.152 84.4172 5.36667 85.2572 5.796C86.1158 6.22533 86.7878 6.804 87.2732 7.532V0.28H92.0612V21H87.2732V18.76C86.8252 19.5067 86.1812 20.104 85.3412 20.552C84.5198 21 83.5585 21.224 82.4572 21.224C81.1692 21.224 80.0025 20.8973 78.9572 20.244C77.9118 19.572 77.0812 18.6293 76.4652 17.416C75.8678 16.184 75.5692 14.7653 75.5692 13.16ZM87.2732 13.188C87.2732 11.9933 86.9372 11.0507 86.2652 10.36C85.6118 9.66933 84.8092 9.324 83.8572 9.324C82.9052 9.324 82.0932 9.66933 81.4212 10.36C80.7678 11.032 80.4412 11.9653 80.4412 13.16C80.4412 14.3547 80.7678 15.3067 81.4212 16.016C82.0932 16.7067 82.9052 17.052 83.8572 17.052C84.8092 17.052 85.6118 16.7067 86.2652 16.016C86.9372 15.3253 87.2732 14.3827 87.2732 13.188ZM97.7651 21.224C96.9251 21.224 96.2344 20.9813 95.6931 20.496C95.1704 19.992 94.9091 19.376 94.9091 18.648C94.9091 17.9013 95.1704 17.276 95.6931 16.772C96.2344 16.268 96.9251 16.016 97.7651 16.016C98.5864 16.016 99.2584 16.268 99.7811 16.772C100.322 17.276 100.593 17.9013 100.593 18.648C100.593 19.376 100.322 19.992 99.7811 20.496C99.2584 20.9813 98.5864 21.224 97.7651 21.224Z" fill="#2D2D2D"/>
</svg>
