<svg width="24" height="24" viewBox="0 0 24 24" fill="none" xmlns="http://www.w3.org/2000/svg">
<path fill-rule="evenodd" clip-rule="evenodd" d="M18.54 4.33992L20 4.48992C21.7285 4.68529 23.0265 6.16064 23 7.89992V16.0999C23.0265 17.8392 21.7285 19.3146 20 19.5099L18.6 19.6599C14.2316 20.1099 9.82847 20.1099 5.46003 19.6599L4.00003 19.5099C2.27155 19.3146 0.973586 17.8392 1.00003 16.0999V7.89992C0.973586 6.16064 2.27155 4.68529 4.00003 4.48992L5.40003 4.33992C9.76847 3.88995 14.1716 3.88995 18.54 4.33992ZM11.11 15.2199L15 12.6199H15.06C15.2696 12.4833 15.3961 12.2501 15.3961 11.9999C15.3961 11.7497 15.2696 11.5165 15.06 11.3799L11.17 8.77992C10.9404 8.62469 10.6438 8.60879 10.3989 8.73859C10.1539 8.86839 10.0005 9.12271 10 9.39992V14.5999C10.0129 14.858 10.1578 15.0913 10.3834 15.2173C10.609 15.3433 10.8835 15.3443 11.11 15.2199Z" fill="#BFBFBF"/>
</svg>
