<svg width="20" height="17" viewBox="0 0 20 17" fill="none" xmlns="http://www.w3.org/2000/svg">
<path d="M19.9699 2.46378C19.4539 3.15213 18.8301 3.75258 18.1227 4.24195C18.1227 4.42177 18.1227 4.60158 18.1227 4.79139C18.1283 8.0568 16.824 11.1879 14.5021 13.4828C12.1801 15.7777 9.03481 17.0443 5.77126 16.9988C3.88453 17.0051 2.02196 16.5743 0.329447 15.7401C0.238187 15.7003 0.179325 15.61 0.179672 15.5103V15.4005C0.179672 15.257 0.295903 15.1407 0.439282 15.1407C2.29389 15.0796 4.08234 14.4366 5.55159 13.3026C3.87291 13.2688 2.36252 12.2744 1.66743 10.7453C1.63232 10.6617 1.64326 10.5659 1.69628 10.4925C1.7493 10.419 1.83676 10.3785 1.92704 10.3856C2.43723 10.4369 2.95252 10.3894 3.44476 10.2458C1.59163 9.86109 0.199219 8.32265 -5.73431e-05 6.43969C-0.00713991 6.34936 0.0333398 6.26187 0.106758 6.20882C0.180176 6.15577 0.27592 6.14483 0.359402 6.17996C0.8567 6.39939 1.39353 6.51496 1.93703 6.51961C0.313252 5.45384 -0.388112 3.42672 0.229597 1.58469C0.293359 1.4057 0.446547 1.27347 0.632868 1.2366C0.819189 1.19972 1.01116 1.26365 1.13823 1.40487C3.32941 3.73695 6.34014 5.12662 9.53559 5.28088C9.45374 4.95427 9.41349 4.61862 9.41578 4.28191C9.44566 2.51636 10.5381 0.943567 12.1816 0.299861C13.8251 -0.343846 15.6945 0.0689272 16.9145 1.34494C17.7461 1.18651 18.5501 0.907164 19.3009 0.515789C19.3559 0.481454 19.4256 0.481454 19.4806 0.515789C19.5149 0.57081 19.5149 0.640583 19.4806 0.695604C19.117 1.52835 18.5026 2.2268 17.7233 2.69355C18.4058 2.6144 19.0762 2.45341 19.7203 2.21404C19.7745 2.17713 19.8458 2.17713 19.9 2.21404C19.9454 2.23482 19.9794 2.27457 19.9929 2.32269C20.0063 2.37081 19.9979 2.42242 19.9699 2.46378Z" fill="#BFBFBF"/>
</svg>
